<svg width="614" height="596" viewBox="0 0 614 596" fill="none" xmlns="http://www.w3.org/2000/svg">
<path fill-rule="evenodd" clip-rule="evenodd" d="M307 522C137.449 522 0 405.146 0 261C0 116.854 137.449 0 307 0C476.551 0 614 116.854 614 261C614 367.253 539.318 458.677 432.147 499.401L431.5 500.5L427.5 510.5L424.5 520L422 529L421 534V539V544L421.5 551L423 558.5L425.5 568L428 578L429.746 583.5L431.5 589L431.929 592L431 594.5L429.5 595.5H427.246H422.246L419 595L415.5 594L404.5 587.5L394 579.5L383 571.5L374.5 563.5L366 555L359 545.5L351 535.5L345 525L342.183 520.305C330.638 521.425 318.898 522 307 522Z" fill="white"/>
</svg>
