<svg width="1532" height="1787" viewBox="0 0 1532 1787" fill="none" xmlns="http://www.w3.org/2000/svg">
<mask id="path-1-inside-1_351_2310" fill="white">
<path fill-rule="evenodd" clip-rule="evenodd" d="M722.626 45.4111C722.701 45.4813 722.776 45.5515 722.851 45.6219L722.626 45.9787V744.107V1166.89C808.398 1101.88 926.491 1061.72 1056.86 1061.72C1318.96 1061.72 1531.43 1224.03 1531.43 1424.26C1531.43 1624.48 1318.96 1786.8 1056.86 1786.8C794.764 1786.8 582.293 1624.48 582.293 1424.26C582.293 1420.93 582.352 1417.62 582.468 1414.31L547.941 268.706C546.363 243.508 543.168 225.244 519.309 219.097C500.641 214.288 468.536 211.472 440.99 219.097C438.793 219.705 436.62 220.294 434.467 220.878C409.624 227.613 387.423 233.632 361.328 259.947C347.223 274.17 337.718 289 328.331 303.647C308.24 334.994 288.69 365.499 225.745 387.401L183.075 393.937H154.988H129.061L101.245 392.303L82.882 389.307L63.1653 385.495L49.834 381.682L36.6989 374.057L0.780029 344.1C12.2531 341.529 26.8229 341.449 43.4684 341.356C100.881 341.038 182.988 340.583 247.893 237.344C249.876 234.697 251.904 231.986 253.972 229.22C295.32 173.928 353.26 96.4499 410.046 62.045C469.672 25.9189 531.723 4.59525 587.778 0.967827C642.265 -2.55818 688.022 14.4434 720.116 43.1189H722.626V45.4111Z"/>
</mask>
<path fill-rule="evenodd" clip-rule="evenodd" d="M722.626 45.4111C722.701 45.4813 722.776 45.5515 722.851 45.6219L722.626 45.9787V744.107V1166.89C808.398 1101.88 926.491 1061.72 1056.86 1061.72C1318.96 1061.72 1531.43 1224.03 1531.43 1424.26C1531.43 1624.48 1318.96 1786.8 1056.86 1786.8C794.764 1786.8 582.293 1624.48 582.293 1424.26C582.293 1420.93 582.352 1417.62 582.468 1414.31L547.941 268.706C546.363 243.508 543.168 225.244 519.309 219.097C500.641 214.288 468.536 211.472 440.99 219.097C438.793 219.705 436.62 220.294 434.467 220.878C409.624 227.613 387.423 233.632 361.328 259.947C347.223 274.17 337.718 289 328.331 303.647C308.24 334.994 288.69 365.499 225.745 387.401L183.075 393.937H154.988H129.061L101.245 392.303L82.882 389.307L63.1653 385.495L49.834 381.682L36.6989 374.057L0.780029 344.1C12.2531 341.529 26.8229 341.449 43.4684 341.356C100.881 341.038 182.988 340.583 247.893 237.344C249.876 234.697 251.904 231.986 253.972 229.22C295.32 173.928 353.26 96.4499 410.046 62.045C469.672 25.9189 531.723 4.59525 587.778 0.967827C642.265 -2.55818 688.022 14.4434 720.116 43.1189H722.626V45.4111Z" fill="#43DBBC"/>
<path d="M722.851 45.6219L736.53 31.0315L748.583 42.3313L739.762 56.3004L722.851 45.6219ZM722.626 45.4111L708.978 60.031L702.626 54.1011V45.4111H722.626ZM722.626 45.9787H702.626V40.1926L705.715 35.3002L722.626 45.9787ZM722.626 1166.89L734.707 1182.83L702.626 1207.14V1166.89H722.626ZM582.468 1414.31L602.459 1413.71L602.479 1414.36L602.456 1415.01L582.468 1414.31ZM547.941 268.706L567.901 267.456L567.922 267.779L567.931 268.103L547.941 268.706ZM519.309 219.097L514.319 238.465L519.309 219.097ZM440.99 219.097L435.654 199.822L435.654 199.822L440.99 219.097ZM434.467 220.878L439.7 240.181L439.7 240.181L434.467 220.878ZM361.328 259.947L375.529 274.03V274.03L361.328 259.947ZM328.331 303.647L345.17 314.439V314.439L328.331 303.647ZM225.745 387.401L232.318 406.29L230.586 406.893L228.773 407.171L225.745 387.401ZM183.075 393.937L186.103 413.707L184.597 413.937H183.075V393.937ZM129.061 393.937V413.937H128.474L127.889 413.903L129.061 393.937ZM101.245 392.303L100.072 412.269L99.0416 412.208L98.0232 412.042L101.245 392.303ZM82.882 389.307L79.6605 409.045L79.3724 408.998L79.0859 408.943L82.882 389.307ZM63.1653 385.495L59.3693 405.131L58.5087 404.965L57.6659 404.724L63.1653 385.495ZM49.834 381.682L44.3346 400.911L41.9435 400.228L39.7927 398.979L49.834 381.682ZM36.6989 374.057L26.6576 391.354L25.1912 390.502L23.889 389.416L36.6989 374.057ZM0.780029 344.1L-12.0298 359.46L-43.2037 333.46L-3.59314 324.584L0.780029 344.1ZM43.4684 341.356L43.5792 361.356L43.4684 341.356ZM247.893 237.344L230.961 226.699L231.397 226.006L231.888 225.351L247.893 237.344ZM253.972 229.22L269.989 241.198L269.989 241.198L253.972 229.22ZM410.046 62.045L420.409 79.1504L410.046 62.045ZM587.778 0.967827L586.486 -18.9904L587.778 0.967827ZM720.116 43.1189V63.1189H712.483L706.791 58.033L720.116 43.1189ZM722.626 43.1189V23.1189H742.626V43.1189H722.626ZM709.172 60.2122C709.11 60.1537 709.045 60.0935 708.978 60.031L736.273 30.7911C736.357 30.8691 736.443 30.9494 736.53 31.0315L709.172 60.2122ZM705.715 35.3002L705.941 34.9433L739.762 56.3004L739.537 56.6573L705.715 35.3002ZM702.626 744.107V45.9787H742.626V744.107H702.626ZM702.626 1166.89V744.107H742.626V1166.89H702.626ZM1056.86 1081.72C930.468 1081.72 816.708 1120.67 734.707 1182.83L710.545 1150.95C800.088 1083.08 922.513 1041.72 1056.86 1041.72V1081.72ZM1511.43 1424.26C1511.43 1331.69 1462.37 1246.5 1380.29 1183.8C1298.2 1121.08 1183.91 1081.72 1056.86 1081.72V1041.72C1191.91 1041.72 1314.91 1083.51 1404.57 1152.01C1494.26 1220.52 1551.43 1316.6 1551.43 1424.26H1511.43ZM1056.86 1766.8C1183.91 1766.8 1298.2 1727.43 1380.29 1664.72C1462.37 1602.02 1511.43 1516.82 1511.43 1424.26H1551.43C1551.43 1531.92 1494.26 1627.99 1404.57 1696.51C1314.91 1765.01 1191.91 1806.8 1056.86 1806.8V1766.8ZM602.293 1424.26C602.293 1516.82 651.356 1602.02 733.432 1664.72C815.526 1727.43 929.809 1766.8 1056.86 1766.8V1806.8C921.817 1806.8 798.816 1765.01 709.149 1696.51C619.465 1627.99 562.293 1531.92 562.293 1424.26H602.293ZM602.456 1415.01C602.347 1418.09 602.293 1421.17 602.293 1424.26H562.293C562.293 1420.7 562.356 1417.14 562.481 1413.6L602.456 1415.01ZM567.931 268.103L602.459 1413.71L562.477 1414.91L527.95 269.308L567.931 268.103ZM524.298 199.73C541.626 204.194 553.417 214.038 560.088 228.266C565.893 240.646 567.132 255.161 567.901 267.456L527.98 269.955C527.172 257.053 526.024 249.837 523.872 245.249C522.587 242.508 520.851 240.148 514.319 238.465L524.298 199.73ZM435.654 199.822C467.432 191.025 503.22 194.299 524.298 199.73L514.319 238.465C498.062 234.277 469.64 231.918 446.325 238.372L435.654 199.822ZM429.233 201.575C431.394 200.989 433.516 200.414 435.654 199.822L446.325 238.372C444.069 238.997 441.845 239.6 439.7 240.181L429.233 201.575ZM347.127 245.864C377.095 215.644 403.629 208.517 429.233 201.575L439.7 240.181C415.618 246.71 397.751 251.621 375.529 274.03L347.127 245.864ZM311.493 292.855C320.799 278.335 331.334 261.79 347.127 245.864L375.529 274.03C363.113 286.55 354.638 299.666 345.17 314.439L311.493 292.855ZM219.172 368.512C248.393 358.345 266.494 346.576 279.445 334.461C292.643 322.114 301.341 308.694 311.493 292.855L345.17 314.439C335.23 329.947 324.108 347.453 306.772 363.671C289.188 380.121 266.042 394.556 232.318 406.29L219.172 368.512ZM180.046 374.168L222.717 367.632L228.773 407.171L186.103 413.707L180.046 374.168ZM154.988 373.937H183.075V413.937H154.988V373.937ZM129.061 373.937H154.988V413.937H129.061V373.937ZM102.417 372.338L130.234 373.972L127.889 413.903L100.072 412.269L102.417 372.338ZM86.1034 369.568L104.466 372.565L98.0232 412.042L79.6605 409.045L86.1034 369.568ZM66.9613 365.859L86.678 369.67L79.0859 408.943L59.3693 405.131L66.9613 365.859ZM55.3334 362.453L68.6647 366.266L57.6659 404.724L44.3346 400.911L55.3334 362.453ZM46.7401 356.76L59.8752 364.386L39.7927 398.979L26.6576 391.354L46.7401 356.76ZM13.5898 328.741L49.5087 358.698L23.889 389.416L-12.0298 359.46L13.5898 328.741ZM43.5792 361.356C26.1561 361.453 14.053 361.622 5.1532 363.616L-3.59314 324.584C10.4531 321.437 27.4896 321.445 43.3575 321.357L43.5792 361.356ZM264.825 247.988C230.136 303.165 189.929 332.077 149.722 346.736C110.228 361.135 72.0564 361.198 43.5792 361.356L43.3575 321.357C72.293 321.196 103.881 320.873 136.02 309.156C167.446 297.698 200.745 274.762 230.961 226.699L264.825 247.988ZM269.989 241.198C267.921 243.963 265.888 246.681 263.899 249.336L231.888 225.351C233.865 222.713 235.886 220.01 237.956 217.242L269.989 241.198ZM420.409 79.1504C394.683 94.7375 367.62 120.849 341.273 150.968C315.105 180.882 290.727 213.466 269.989 241.198L237.955 217.242C258.566 189.682 283.831 155.881 311.167 124.632C338.323 93.5878 368.623 63.7574 399.682 44.9396L420.409 79.1504ZM589.069 20.9261C536.907 24.3016 477.936 44.2962 420.409 79.1504L399.682 44.9396C461.407 7.54165 526.54 -15.1112 586.486 -18.9904L589.069 20.9261ZM706.791 58.033C678.943 33.1513 638.545 17.7244 589.069 20.9261L586.486 -18.9904C645.985 -22.8408 697.102 -4.26441 733.442 28.2048L706.791 58.033ZM722.626 63.1189H720.116V23.1189H722.626V63.1189ZM702.626 45.4111V43.1189H742.626V45.4111H702.626Z" fill="#22E8C0" mask="url(#path-1-inside-1_351_2310)"/>
<path d="M1222.51 1328.92C1222.51 1362.85 1230.51 1393.08 1242.93 1414.48C1255.49 1436.14 1271.36 1447.01 1286.82 1447.01C1302.27 1447.01 1318.14 1436.14 1330.7 1414.48C1343.12 1393.08 1351.12 1362.85 1351.12 1328.92C1351.12 1294.99 1343.12 1264.76 1330.7 1243.35C1318.14 1221.7 1302.27 1210.82 1286.82 1210.82C1271.36 1210.82 1255.49 1221.7 1242.93 1243.35C1230.51 1264.76 1222.51 1294.99 1222.51 1328.92Z" fill="white" stroke="black" stroke-width="20"/>
<mask id="path-4-inside-2_351_2310" fill="white">
<path fill-rule="evenodd" clip-rule="evenodd" d="M1321.24 1215.36C1319.98 1215.15 1318.72 1215.01 1317.46 1214.94C1301.75 1214.08 1286.43 1224.11 1274.59 1243.02C1262.75 1261.94 1255.25 1288.35 1253.6 1316.95L1315.58 1328.91L1254.44 1350.97C1257.48 1379.19 1266.24 1404.27 1278.96 1421.17C1291.19 1437.43 1306.22 1444.97 1321.24 1442.46C1344.95 1421.06 1361.12 1378.24 1361.12 1328.92C1361.12 1279.58 1344.94 1236.77 1321.24 1215.36Z"/>
</mask>
<path fill-rule="evenodd" clip-rule="evenodd" d="M1321.24 1215.36C1319.98 1215.15 1318.72 1215.01 1317.46 1214.94C1301.75 1214.08 1286.43 1224.11 1274.59 1243.02C1262.75 1261.94 1255.25 1288.35 1253.6 1316.95L1315.58 1328.91L1254.44 1350.97C1257.48 1379.19 1266.24 1404.27 1278.96 1421.17C1291.19 1437.43 1306.22 1444.97 1321.24 1442.46C1344.95 1421.06 1361.12 1378.24 1361.12 1328.92C1361.12 1279.58 1344.94 1236.77 1321.24 1215.36Z" fill="black"/>
<path d="M1321.24 1215.36L1321.4 1214.38L1321.69 1214.43L1321.91 1214.62L1321.24 1215.36ZM1317.46 1214.94L1317.51 1213.95L1317.46 1214.94ZM1274.59 1243.02L1273.75 1242.49L1274.59 1243.02ZM1253.6 1316.95L1253.42 1317.93L1252.56 1317.76L1252.61 1316.89L1253.6 1316.95ZM1315.58 1328.91L1315.77 1327.93L1319.34 1328.62L1315.92 1329.85L1315.58 1328.91ZM1254.44 1350.97L1253.44 1351.08L1253.36 1350.3L1254.1 1350.03L1254.44 1350.97ZM1278.96 1421.17L1278.16 1421.77L1278.96 1421.17ZM1321.24 1442.46L1321.91 1443.2L1321.7 1443.4L1321.41 1443.45L1321.24 1442.46ZM1321.07 1216.35C1319.85 1216.15 1318.63 1216.01 1317.4 1215.94L1317.51 1213.95C1318.82 1214.02 1320.11 1214.16 1321.4 1214.38L1321.07 1216.35ZM1317.4 1215.94C1302.2 1215.1 1287.18 1224.8 1275.44 1243.55L1273.75 1242.49C1285.69 1223.41 1301.29 1213.05 1317.51 1213.95L1317.4 1215.94ZM1275.44 1243.55C1263.71 1262.29 1256.25 1288.52 1254.6 1317.01L1252.61 1316.89C1254.26 1288.17 1261.79 1261.59 1273.75 1242.49L1275.44 1243.55ZM1253.79 1315.97L1315.77 1327.93L1315.39 1329.9L1253.42 1317.93L1253.79 1315.97ZM1315.92 1329.85L1254.78 1351.91L1254.1 1350.03L1315.24 1327.97L1315.92 1329.85ZM1255.43 1350.87C1258.46 1378.96 1267.18 1403.85 1279.75 1420.57L1278.16 1421.77C1265.3 1404.68 1256.5 1379.42 1253.44 1351.08L1255.43 1350.87ZM1279.75 1420.57C1291.85 1436.64 1306.55 1443.9 1321.08 1441.48L1321.41 1443.45C1305.9 1446.04 1290.53 1438.21 1278.16 1421.77L1279.75 1420.57ZM1320.57 1441.72C1343.99 1420.57 1360.12 1378.08 1360.12 1328.92H1362.12C1362.12 1378.41 1345.9 1421.54 1321.91 1443.2L1320.57 1441.72ZM1360.12 1328.92C1360.12 1279.75 1343.99 1237.25 1320.57 1216.11L1321.91 1214.62C1345.9 1236.28 1362.12 1279.42 1362.12 1328.92H1360.12Z" fill="black" mask="url(#path-4-inside-2_351_2310)"/>
<path d="M1018.79 1328.92C1018.79 1362.85 1026.79 1393.08 1039.2 1414.48C1051.76 1436.14 1067.63 1447.01 1083.09 1447.01C1098.55 1447.01 1114.42 1436.14 1126.98 1414.48C1139.39 1393.08 1147.39 1362.85 1147.39 1328.92C1147.39 1294.99 1139.39 1264.76 1126.98 1243.35C1114.42 1221.7 1098.55 1210.82 1083.09 1210.82C1067.63 1210.82 1051.76 1221.7 1039.2 1243.35C1026.79 1264.76 1018.79 1294.99 1018.79 1328.92Z" fill="white" stroke="black" stroke-width="20"/>
<mask id="path-7-inside-3_351_2310" fill="white">
<path fill-rule="evenodd" clip-rule="evenodd" d="M1117.51 1215.36C1116.26 1215.15 1115 1215.01 1113.73 1214.94C1098.02 1214.08 1082.71 1224.11 1070.87 1243.02C1059.02 1261.94 1051.53 1288.35 1049.88 1316.95L1111.85 1328.91L1050.71 1350.97C1053.75 1379.19 1062.51 1404.27 1075.23 1421.17C1087.47 1437.43 1102.5 1444.97 1117.52 1442.46C1141.22 1421.06 1157.39 1378.24 1157.39 1328.92C1157.39 1279.58 1141.22 1236.77 1117.51 1215.36Z"/>
</mask>
<path fill-rule="evenodd" clip-rule="evenodd" d="M1117.51 1215.36C1116.26 1215.15 1115 1215.01 1113.73 1214.94C1098.02 1214.08 1082.71 1224.11 1070.87 1243.02C1059.02 1261.94 1051.53 1288.35 1049.88 1316.95L1111.85 1328.91L1050.71 1350.97C1053.75 1379.19 1062.51 1404.27 1075.23 1421.17C1087.47 1437.43 1102.5 1444.97 1117.52 1442.46C1141.22 1421.06 1157.39 1378.24 1157.39 1328.92C1157.39 1279.58 1141.22 1236.77 1117.51 1215.36Z" fill="black"/>
<path d="M1117.51 1215.36L1117.67 1214.38L1117.96 1214.43L1118.18 1214.62L1117.51 1215.36ZM1113.73 1214.94L1113.79 1213.95L1113.73 1214.94ZM1070.87 1243.02L1070.02 1242.49L1070.87 1243.02ZM1049.88 1316.95L1049.69 1317.93L1048.83 1317.76L1048.88 1316.89L1049.88 1316.95ZM1111.85 1328.91L1112.04 1327.93L1115.61 1328.62L1112.19 1329.85L1111.85 1328.91ZM1050.71 1350.97L1049.72 1351.08L1049.63 1350.3L1050.37 1350.03L1050.71 1350.97ZM1075.23 1421.17L1074.43 1421.77L1075.23 1421.17ZM1117.52 1442.46L1118.19 1443.2L1117.97 1443.4L1117.68 1443.45L1117.52 1442.46ZM1117.35 1216.35C1116.13 1216.15 1114.9 1216.01 1113.68 1215.94L1113.79 1213.95C1115.09 1214.02 1116.39 1214.16 1117.67 1214.38L1117.35 1216.35ZM1113.68 1215.94C1098.47 1215.1 1083.45 1224.8 1071.71 1243.55L1070.02 1242.49C1081.96 1223.41 1097.57 1213.05 1113.79 1213.95L1113.68 1215.94ZM1071.71 1243.55C1059.98 1262.29 1052.52 1288.52 1050.88 1317.01L1048.88 1316.89C1050.54 1288.17 1058.07 1261.59 1070.02 1242.49L1071.71 1243.55ZM1050.07 1315.97L1112.04 1327.93L1111.66 1329.9L1049.69 1317.93L1050.07 1315.97ZM1112.19 1329.85L1051.05 1351.91L1050.37 1350.03L1111.51 1327.97L1112.19 1329.85ZM1051.71 1350.87C1054.73 1378.96 1063.45 1403.85 1076.03 1420.57L1074.43 1421.77C1061.57 1404.68 1052.77 1379.42 1049.72 1351.08L1051.71 1350.87ZM1076.03 1420.57C1088.13 1436.64 1102.82 1443.9 1117.35 1441.48L1117.68 1443.45C1102.17 1446.04 1086.8 1438.21 1074.43 1421.77L1076.03 1420.57ZM1116.85 1441.72C1140.27 1420.57 1156.39 1378.08 1156.39 1328.92H1158.39C1158.39 1378.41 1142.17 1421.54 1118.19 1443.2L1116.85 1441.72ZM1156.39 1328.92C1156.39 1279.75 1140.26 1237.25 1116.84 1216.11L1118.18 1214.62C1142.17 1236.28 1158.39 1279.42 1158.39 1328.92H1156.39Z" fill="black" mask="url(#path-7-inside-3_351_2310)"/>
<ellipse cx="978.826" cy="1486.01" rx="61.1187" ry="26.5863" fill="#F7C1B8"/>
<ellipse cx="1398.27" cy="1486.01" rx="61.1187" ry="26.5863" fill="#F7C1B8"/>
<ellipse cx="1211.31" cy="1528.31" rx="39.5474" ry="85.8014" fill="#E44E30"/>
<path d="M722.718 1261.18C722.718 1267.78 717.407 1273.13 710.865 1273.13C704.322 1273.13 699.012 1267.78 699.012 1261.18C699.012 1254.57 704.322 1249.22 710.865 1249.22C717.407 1249.22 722.718 1254.57 722.718 1261.18Z" fill="white" stroke="#FFBD2E"/>
<mask id="path-13-inside-4_351_2310" fill="white">
<path fill-rule="evenodd" clip-rule="evenodd" d="M970.429 1128.65C968.289 1127.23 965.61 1126.75 962.982 1127.32L962.989 1127.37C915.609 1126.18 870.075 1133.6 829.44 1149.13C788.733 1164.7 753.887 1188.05 727.245 1217.62L727.389 1217.71C726.155 1220.47 725.919 1223.63 726.739 1226.57C727.608 1229.68 729.593 1232.3 732.255 1233.84C734.918 1235.38 738.042 1235.72 740.938 1234.79C743.415 1233.99 745.553 1232.31 747.016 1230.05C771.743 1202.87 803.956 1181.38 841.53 1167.01C879.393 1152.53 921.822 1145.62 965.971 1146.74L965.975 1146.77C966.01 1146.76 966.045 1146.75 966.08 1146.75C966.103 1146.75 966.126 1146.75 966.149 1146.75L966.146 1146.73C968.706 1146.13 971.001 1144.58 972.545 1142.4C974.123 1140.17 974.787 1137.47 974.39 1134.89C973.993 1132.31 972.568 1130.07 970.429 1128.65Z"/>
</mask>
<path fill-rule="evenodd" clip-rule="evenodd" d="M970.429 1128.65C968.289 1127.23 965.61 1126.75 962.982 1127.32L962.989 1127.37C915.609 1126.18 870.075 1133.6 829.44 1149.13C788.733 1164.7 753.887 1188.05 727.245 1217.62L727.389 1217.71C726.155 1220.47 725.919 1223.63 726.739 1226.57C727.608 1229.68 729.593 1232.3 732.255 1233.84C734.918 1235.38 738.042 1235.72 740.938 1234.79C743.415 1233.99 745.553 1232.31 747.016 1230.05C771.743 1202.87 803.956 1181.38 841.53 1167.01C879.393 1152.53 921.822 1145.62 965.971 1146.74L965.975 1146.77C966.01 1146.76 966.045 1146.75 966.08 1146.75C966.103 1146.75 966.126 1146.75 966.149 1146.75L966.146 1146.73C968.706 1146.13 971.001 1144.58 972.545 1142.4C974.123 1140.17 974.787 1137.47 974.39 1134.89C973.993 1132.31 972.568 1130.07 970.429 1128.65Z" fill="white"/>
<path d="M962.982 1127.32L962.769 1126.35L961.85 1126.55L961.993 1127.48L962.982 1127.32ZM970.429 1128.65L969.876 1129.48V1129.48L970.429 1128.65ZM962.989 1127.37L962.964 1128.37L964.16 1128.4L963.978 1127.22L962.989 1127.37ZM829.44 1149.13L829.083 1148.2L829.44 1149.13ZM727.245 1217.62L726.502 1216.95L725.74 1217.79L726.677 1218.44L727.245 1217.62ZM727.389 1217.71L728.301 1218.12L728.642 1217.36L727.956 1216.89L727.389 1217.71ZM726.739 1226.57L725.776 1226.83L726.739 1226.57ZM732.255 1233.84L732.757 1232.97H732.757L732.255 1233.84ZM740.938 1234.79L741.245 1235.74H741.245L740.938 1234.79ZM747.016 1230.05L746.277 1229.38L746.222 1229.44L746.177 1229.51L747.016 1230.05ZM841.53 1167.01L841.887 1167.94L841.53 1167.01ZM965.971 1146.74L966.959 1146.59L966.832 1145.76L965.996 1145.74L965.971 1146.74ZM965.975 1146.77L964.987 1146.92L965.149 1147.97L966.187 1147.75L965.975 1146.77ZM966.08 1146.75L966.106 1145.75L965.98 1145.74L965.858 1145.77L966.08 1146.75ZM966.149 1146.75L966.123 1147.75L967.315 1147.78L967.137 1146.6L966.149 1146.75ZM966.146 1146.73L965.917 1145.76L965.02 1145.97L965.157 1146.88L966.146 1146.73ZM972.545 1142.4L973.361 1142.98V1142.98L972.545 1142.4ZM974.39 1134.89L975.378 1134.74V1134.74L974.39 1134.89ZM963.194 1128.3C965.573 1127.78 967.973 1128.22 969.876 1129.48L970.981 1127.82C968.605 1126.24 965.648 1125.72 962.769 1126.35L963.194 1128.3ZM963.978 1127.22L963.97 1127.17L961.993 1127.48L962.001 1127.53L963.978 1127.22ZM829.797 1150.07C870.3 1134.58 915.703 1127.18 962.964 1128.37L963.015 1126.37C915.516 1125.18 869.85 1132.61 829.083 1148.2L829.797 1150.07ZM727.988 1218.28C754.514 1188.85 789.224 1165.58 829.797 1150.07L829.083 1148.2C788.243 1163.82 753.259 1187.25 726.502 1216.95L727.988 1218.28ZM727.956 1216.89L727.813 1216.79L726.677 1218.44L726.821 1218.54L727.956 1216.89ZM727.702 1226.3C726.944 1223.58 727.163 1220.66 728.301 1218.12L726.476 1217.31C725.146 1220.27 724.893 1223.67 725.776 1226.83L727.702 1226.3ZM732.757 1232.97C730.332 1231.57 728.505 1229.17 727.702 1226.3L725.776 1226.83C726.711 1230.19 728.853 1233.02 731.754 1234.71L732.757 1232.97ZM740.631 1233.84C738.007 1234.68 735.177 1234.38 732.757 1232.97L731.754 1234.71C734.659 1236.39 738.076 1236.76 741.245 1235.74L740.631 1233.84ZM746.177 1229.51C744.832 1231.59 742.877 1233.11 740.631 1233.84L741.245 1235.74C743.953 1234.87 746.273 1233.04 747.856 1230.6L746.177 1229.51ZM841.173 1166.08C803.467 1180.49 771.118 1202.07 746.277 1229.38L747.756 1230.73C772.368 1203.66 804.446 1182.26 841.887 1167.94L841.173 1166.08ZM965.996 1145.74C921.729 1144.62 879.168 1151.55 841.173 1166.08L841.887 1167.94C879.617 1153.52 921.916 1146.62 965.946 1147.74L965.996 1145.74ZM966.963 1146.62L966.959 1146.59L964.983 1146.89L964.987 1146.92L966.963 1146.62ZM965.858 1145.77C965.826 1145.78 965.794 1145.78 965.763 1145.79L966.187 1147.75C966.226 1147.74 966.264 1147.73 966.302 1147.72L965.858 1145.77ZM966.174 1145.75C966.151 1145.75 966.128 1145.75 966.106 1145.75L966.054 1147.74C966.077 1147.75 966.1 1147.75 966.123 1147.75L966.174 1145.75ZM965.157 1146.88L965.16 1146.9L967.137 1146.6L967.135 1146.58L965.157 1146.88ZM971.729 1141.82C970.324 1143.8 968.237 1145.21 965.917 1145.76L966.375 1147.7C969.175 1147.05 971.678 1145.35 973.361 1142.98L971.729 1141.82ZM973.401 1135.04C973.757 1137.35 973.165 1139.79 971.729 1141.82L973.361 1142.98C975.081 1140.55 975.817 1137.59 975.378 1134.74L973.401 1135.04ZM969.876 1129.48C971.776 1130.74 973.047 1132.74 973.401 1135.04L975.378 1134.74C974.939 1131.89 973.36 1129.39 970.981 1127.82L969.876 1129.48Z" fill="#FFBD2E" mask="url(#path-13-inside-4_351_2310)"/>
</svg>
