<svg width="1532" height="1787" viewBox="0 0 1532 1787" fill="none" xmlns="http://www.w3.org/2000/svg">
<mask id="path-1-inside-1_351_2640" fill="white">
<path fill-rule="evenodd" clip-rule="evenodd" d="M722.384 44.9043C722.459 44.9742 722.533 45.0441 722.608 45.1141L722.384 45.4692V743.601V1166.38C808.156 1101.37 926.248 1061.21 1056.62 1061.21C1318.72 1061.21 1531.19 1223.53 1531.19 1423.75C1531.19 1623.98 1318.72 1786.29 1056.62 1786.29C794.522 1786.29 582.051 1623.98 582.051 1423.75C582.051 1420.42 582.109 1417.11 582.226 1413.8L547.699 268.23C546.122 243.016 542.935 224.739 519.065 218.589C500.397 213.78 468.293 210.964 440.746 218.589C438.549 219.198 436.376 219.787 434.223 220.37C409.381 227.106 387.18 233.125 361.084 259.439C346.98 273.662 337.475 288.492 328.088 303.139C307.997 334.486 288.446 364.991 225.502 386.894L182.831 393.43H154.745H128.818L101.001 391.796L82.6387 388.799L62.922 384.987L49.5907 381.175L36.4556 373.549L0.536743 343.592C12.0098 341.022 26.5796 340.941 43.2251 340.849C100.638 340.53 182.745 340.076 247.65 236.836C249.633 234.189 251.66 231.478 253.729 228.712C295.077 173.42 353.017 95.9421 409.802 61.5372C469.429 25.4111 531.48 4.08743 587.534 0.460015C642.023 -3.06605 687.781 13.9362 719.874 42.6125H722.384V44.9043Z"/>
</mask>
<path fill-rule="evenodd" clip-rule="evenodd" d="M722.384 44.9043C722.459 44.9742 722.533 45.0441 722.608 45.1141L722.384 45.4692V743.601V1166.38C808.156 1101.37 926.248 1061.21 1056.62 1061.21C1318.72 1061.21 1531.19 1223.53 1531.19 1423.75C1531.19 1623.98 1318.72 1786.29 1056.62 1786.29C794.522 1786.29 582.051 1623.98 582.051 1423.75C582.051 1420.42 582.109 1417.11 582.226 1413.8L547.699 268.23C546.122 243.016 542.935 224.739 519.065 218.589C500.397 213.78 468.293 210.964 440.746 218.589C438.549 219.198 436.376 219.787 434.223 220.37C409.381 227.106 387.18 233.125 361.084 259.439C346.98 273.662 337.475 288.492 328.088 303.139C307.997 334.486 288.446 364.991 225.502 386.894L182.831 393.43H154.745H128.818L101.001 391.796L82.6387 388.799L62.922 384.987L49.5907 381.175L36.4556 373.549L0.536743 343.592C12.0098 341.022 26.5796 340.941 43.2251 340.849C100.638 340.53 182.745 340.076 247.65 236.836C249.633 234.189 251.66 231.478 253.729 228.712C295.077 173.42 353.017 95.9421 409.802 61.5372C469.429 25.4111 531.48 4.08743 587.534 0.460015C642.023 -3.06605 687.781 13.9362 719.874 42.6125H722.384V44.9043Z" fill="#628F94"/>
<path d="M722.608 45.1141L736.287 30.5237L748.34 41.8235L739.519 55.7926L722.608 45.1141ZM722.384 44.9043L708.736 59.524L702.384 53.5941V44.9043H722.384ZM722.384 45.4692H702.384V39.683L705.473 34.7907L722.384 45.4692ZM722.384 1166.38L734.464 1182.32L702.384 1206.63V1166.38H722.384ZM582.226 1413.8L602.217 1413.2L602.237 1413.85L602.213 1414.51L582.226 1413.8ZM547.699 268.23L567.66 266.982L567.68 267.305L567.69 267.628L547.699 268.23ZM519.065 218.589L514.076 237.957L519.065 218.589ZM440.746 218.589L435.41 199.314L435.411 199.314L440.746 218.589ZM434.223 220.37L428.99 201.067L428.99 201.067L434.223 220.37ZM361.084 259.439L375.286 273.522V273.522L361.084 259.439ZM328.088 303.139L344.926 313.931V313.931L328.088 303.139ZM225.502 386.894L232.074 405.783L230.343 406.385L228.53 406.663L225.502 386.894ZM182.831 393.43L185.859 413.199L184.354 413.43H182.831V393.43ZM128.818 393.43V413.43H128.231L127.645 413.395L128.818 393.43ZM101.001 391.796L99.8285 411.761L98.7983 411.701L97.7799 411.534L101.001 391.796ZM82.6387 388.799L79.4172 408.538L79.1292 408.491L78.8427 408.435L82.6387 388.799ZM62.922 384.987L59.126 404.624L58.2654 404.457L57.4226 404.216L62.922 384.987ZM49.5907 381.175L44.0913 400.404L41.7002 399.72L39.5494 398.471L49.5907 381.175ZM36.4556 373.549L26.4143 390.846L24.9479 389.994L23.6458 388.908L36.4556 373.549ZM0.536743 343.592L-12.2731 358.952L-43.447 332.952L-3.83643 324.076L0.536743 343.592ZM43.2251 340.849L43.3359 360.848L43.2251 340.849ZM247.65 236.836L230.718 226.191L231.154 225.498L231.644 224.843L247.65 236.836ZM253.729 228.712L269.745 240.69L269.745 240.69L253.729 228.712ZM409.802 61.5372L420.166 78.6425L409.802 61.5372ZM587.534 0.460015L588.826 20.4183L587.534 0.460015ZM719.874 42.6125V62.6125H712.241L706.549 57.5264L719.874 42.6125ZM722.384 42.6125V22.6125H742.384V42.6125H722.384ZM708.929 59.7044C708.866 59.646 708.802 59.5861 708.736 59.524L736.032 30.2846C736.115 30.3623 736.2 30.4421 736.287 30.5237L708.929 59.7044ZM705.473 34.7907L705.697 34.4355L739.519 55.7926L739.294 56.1477L705.473 34.7907ZM702.384 743.601V45.4692H742.384V743.601H702.384ZM702.384 1166.38V743.601H742.384V1166.38H702.384ZM1056.62 1081.21C930.226 1081.21 816.466 1120.17 734.464 1182.32L710.303 1150.44C799.846 1082.57 922.271 1041.21 1056.62 1041.21V1081.21ZM1511.19 1423.75C1511.19 1331.19 1462.12 1245.99 1380.05 1183.29C1297.95 1120.57 1183.67 1081.21 1056.62 1081.21V1041.21C1191.66 1041.21 1314.66 1083 1404.33 1151.5C1494.02 1220.02 1551.19 1316.09 1551.19 1423.75H1511.19ZM1056.62 1766.29C1183.67 1766.29 1297.95 1726.93 1380.05 1664.21C1462.12 1601.51 1511.19 1516.32 1511.19 1423.75H1551.19C1551.19 1531.41 1494.02 1627.49 1404.33 1696C1314.66 1764.5 1191.66 1806.29 1056.62 1806.29V1766.29ZM602.051 1423.75C602.051 1516.32 651.114 1601.51 733.19 1664.21C815.284 1726.93 929.567 1766.29 1056.62 1766.29V1806.29C921.575 1806.29 798.573 1764.5 708.907 1696C619.223 1627.49 562.051 1531.41 562.051 1423.75H602.051ZM602.213 1414.51C602.105 1417.58 602.051 1420.66 602.051 1423.75H562.051C562.051 1420.19 562.113 1416.64 562.238 1413.1L602.213 1414.51ZM567.69 267.628L602.217 1413.2L562.235 1414.41L527.708 268.833L567.69 267.628ZM524.055 199.222C541.391 203.688 553.183 213.54 559.853 227.775C565.655 240.16 566.891 254.682 567.66 266.982L527.738 269.479C526.931 256.565 525.784 249.341 523.631 244.746C522.346 242.002 520.609 239.64 514.076 237.957L524.055 199.222ZM435.411 199.314C467.189 190.518 502.976 193.792 524.055 199.222L514.076 237.957C497.818 233.769 469.397 231.411 446.082 237.865L435.411 199.314ZM428.99 201.067C431.151 200.481 433.273 199.906 435.41 199.314L446.082 237.865C443.826 238.489 441.602 239.092 439.457 239.674L428.99 201.067ZM346.883 245.356C376.851 215.136 403.386 208.009 428.99 201.067L439.457 239.674C415.375 246.202 397.508 251.113 375.286 273.522L346.883 245.356ZM311.249 292.347C320.556 277.827 331.09 261.282 346.883 245.356L375.286 273.522C362.87 286.042 354.395 299.158 344.926 313.931L311.249 292.347ZM218.929 368.004C248.149 357.837 266.251 346.068 279.202 333.953C292.4 321.606 301.098 308.186 311.249 292.347L344.926 313.931C334.987 329.439 323.865 346.945 306.528 363.163C288.945 379.613 265.799 394.048 232.074 405.783L218.929 368.004ZM179.803 373.66L222.474 367.124L228.53 406.663L185.859 413.199L179.803 373.66ZM154.745 373.43H182.831V413.43H154.745V373.43ZM128.818 373.43H154.745V413.43H128.818V373.43ZM102.174 371.83L129.991 373.464L127.645 413.395L99.8285 411.761L102.174 371.83ZM85.8601 369.06L104.223 372.057L97.7799 411.534L79.4172 408.538L85.8601 369.06ZM66.718 365.351L86.4347 369.162L78.8427 408.435L59.126 404.624L66.718 365.351ZM55.0901 361.945L68.4214 365.758L57.4226 404.216L44.0913 400.404L55.0901 361.945ZM46.4968 356.253L59.632 363.878L39.5494 398.471L26.4143 390.846L46.4968 356.253ZM13.3466 328.233L49.2654 358.19L23.6458 388.908L-12.2731 358.952L13.3466 328.233ZM43.3359 360.848C25.9128 360.945 13.8097 361.114 4.90991 363.108L-3.83643 324.076C10.2098 320.929 27.2463 320.937 43.1143 320.849L43.3359 360.848ZM264.582 247.481C229.893 302.657 189.685 331.569 149.479 346.228C109.985 360.627 71.8131 360.69 43.3359 360.848L43.1143 320.849C72.0497 320.689 103.638 320.365 135.777 308.648C167.203 297.19 200.501 274.254 230.718 226.191L264.582 247.481ZM269.745 240.69C267.678 243.454 265.645 246.173 263.655 248.828L231.644 224.843C233.621 222.205 235.642 219.502 237.712 216.734L269.745 240.69ZM420.166 78.6425C394.439 94.2297 367.377 120.341 341.03 150.46C314.862 180.374 290.484 212.958 269.745 240.69L237.712 216.734C258.322 189.174 283.588 155.373 310.923 124.124C338.079 93.08 368.38 63.2496 399.439 44.4318L420.166 78.6425ZM588.826 20.4183C536.663 23.7938 477.693 43.7884 420.166 78.6425L399.439 44.4318C461.164 7.03383 526.297 -15.619 586.243 -19.4982L588.826 20.4183ZM706.549 57.5264C678.701 32.644 638.302 17.2165 588.826 20.4183L586.243 -19.4982C645.743 -23.3486 696.86 -4.77162 733.2 27.6986L706.549 57.5264ZM722.384 62.6125H719.874V22.6125H722.384V62.6125ZM702.384 44.9043V42.6125H742.384V44.9043H702.384Z" fill="#355154" mask="url(#path-1-inside-1_351_2640)"/>
<path d="M1222.26 1328.41C1222.26 1362.34 1230.26 1392.57 1242.68 1413.97C1255.24 1435.63 1271.11 1446.51 1286.57 1446.51C1302.02 1446.51 1317.89 1435.63 1330.45 1413.97C1342.87 1392.57 1350.87 1362.34 1350.87 1328.41C1350.87 1294.48 1342.87 1264.25 1330.45 1242.85C1317.89 1221.19 1302.02 1210.31 1286.57 1210.31C1271.11 1210.31 1255.24 1221.19 1242.68 1242.85C1230.26 1264.25 1222.26 1294.48 1222.26 1328.41Z" fill="white" stroke="black" stroke-width="20"/>
<mask id="path-4-inside-2_351_2640" fill="white">
<path fill-rule="evenodd" clip-rule="evenodd" d="M1320.99 1214.86C1319.74 1214.65 1318.48 1214.51 1317.22 1214.44C1301.5 1213.57 1286.19 1223.6 1274.35 1242.51C1262.51 1261.43 1255.01 1287.84 1253.36 1316.44L1315.34 1328.41L1254.2 1350.47C1257.24 1378.68 1265.99 1403.76 1278.71 1420.66C1290.95 1436.92 1305.98 1444.46 1321 1441.95C1344.7 1420.55 1360.88 1377.74 1360.88 1328.41C1360.88 1279.08 1344.7 1236.26 1320.99 1214.86Z"/>
</mask>
<path fill-rule="evenodd" clip-rule="evenodd" d="M1320.99 1214.86C1319.74 1214.65 1318.48 1214.51 1317.22 1214.44C1301.5 1213.57 1286.19 1223.6 1274.35 1242.51C1262.51 1261.43 1255.01 1287.84 1253.36 1316.44L1315.34 1328.41L1254.2 1350.47C1257.24 1378.68 1265.99 1403.76 1278.71 1420.66C1290.95 1436.92 1305.98 1444.46 1321 1441.95C1344.7 1420.55 1360.88 1377.74 1360.88 1328.41C1360.88 1279.08 1344.7 1236.26 1320.99 1214.86Z" fill="black"/>
<path d="M1320.99 1214.86L1321.16 1213.87L1321.45 1213.92L1321.66 1214.11L1320.99 1214.86ZM1317.22 1214.44L1317.27 1213.44L1317.22 1214.44ZM1274.35 1242.51L1273.5 1241.98L1274.35 1242.51ZM1253.36 1316.44L1253.17 1317.42L1252.31 1317.26L1252.36 1316.38L1253.36 1316.44ZM1315.34 1328.41L1315.53 1327.42L1319.09 1328.11L1315.68 1329.35L1315.34 1328.41ZM1254.2 1350.47L1253.2 1350.57L1253.12 1349.79L1253.86 1349.52L1254.2 1350.47ZM1278.71 1420.66L1277.91 1421.26L1278.71 1420.66ZM1321 1441.95L1321.67 1442.7L1321.45 1442.89L1321.17 1442.94L1321 1441.95ZM1320.83 1215.84C1319.61 1215.64 1318.39 1215.5 1317.16 1215.44L1317.27 1213.44C1318.57 1213.51 1319.87 1213.65 1321.16 1213.87L1320.83 1215.84ZM1317.16 1215.44C1301.96 1214.6 1286.94 1224.29 1275.2 1243.05L1273.5 1241.98C1285.45 1222.9 1301.05 1212.54 1317.27 1213.44L1317.16 1215.44ZM1275.2 1243.05C1263.47 1261.78 1256 1288.02 1254.36 1316.5L1252.36 1316.38C1254.02 1287.66 1261.55 1261.08 1273.5 1241.98L1275.2 1243.05ZM1253.55 1315.46L1315.53 1327.42L1315.15 1329.39L1253.17 1317.42L1253.55 1315.46ZM1315.68 1329.35L1254.54 1351.41L1253.86 1349.52L1315 1327.47L1315.68 1329.35ZM1255.19 1350.36C1258.22 1378.46 1266.93 1403.34 1279.51 1420.06L1277.91 1421.26C1265.06 1404.17 1256.26 1378.91 1253.2 1350.57L1255.19 1350.36ZM1279.51 1420.06C1291.61 1436.14 1306.31 1443.4 1320.84 1440.97L1321.17 1442.94C1305.66 1445.53 1290.29 1437.71 1277.91 1421.26L1279.51 1420.06ZM1320.33 1441.21C1343.75 1420.06 1359.88 1377.57 1359.88 1328.41H1361.88C1361.88 1377.9 1345.66 1421.04 1321.67 1442.7L1320.33 1441.21ZM1359.88 1328.41C1359.88 1279.24 1343.75 1236.74 1320.32 1215.6L1321.66 1214.11C1345.65 1235.77 1361.88 1278.91 1361.88 1328.41H1359.88Z" fill="black" mask="url(#path-4-inside-2_351_2640)"/>
<path d="M1018.54 1328.41C1018.54 1362.34 1026.54 1392.57 1038.95 1413.97C1051.51 1435.63 1067.38 1446.51 1082.84 1446.51C1098.3 1446.51 1114.17 1435.63 1126.73 1413.97C1139.14 1392.57 1147.14 1362.34 1147.14 1328.41C1147.14 1294.48 1139.14 1264.25 1126.73 1242.85C1114.17 1221.19 1098.3 1210.31 1082.84 1210.31C1067.38 1210.31 1051.51 1221.19 1038.95 1242.85C1026.54 1264.25 1018.54 1294.48 1018.54 1328.41Z" fill="white" stroke="black" stroke-width="20"/>
<mask id="path-7-inside-3_351_2640" fill="white">
<path fill-rule="evenodd" clip-rule="evenodd" d="M1117.27 1214.86C1116.01 1214.65 1114.75 1214.51 1113.49 1214.44C1097.78 1213.57 1082.47 1223.6 1070.62 1242.51C1058.78 1261.43 1051.29 1287.84 1049.64 1316.44L1111.61 1328.41L1050.47 1350.47C1053.51 1378.68 1062.27 1403.76 1074.99 1420.66C1087.22 1436.92 1102.26 1444.46 1117.27 1441.95C1140.98 1420.55 1157.15 1377.74 1157.15 1328.41C1157.15 1279.08 1140.97 1236.26 1117.27 1214.86Z"/>
</mask>
<path fill-rule="evenodd" clip-rule="evenodd" d="M1117.27 1214.86C1116.01 1214.65 1114.75 1214.51 1113.49 1214.44C1097.78 1213.57 1082.47 1223.6 1070.62 1242.51C1058.78 1261.43 1051.29 1287.84 1049.64 1316.44L1111.61 1328.41L1050.47 1350.47C1053.51 1378.68 1062.27 1403.76 1074.99 1420.66C1087.22 1436.92 1102.26 1444.46 1117.27 1441.95C1140.98 1420.55 1157.15 1377.74 1157.15 1328.41C1157.15 1279.08 1140.97 1236.26 1117.27 1214.86Z" fill="black"/>
<path d="M1117.27 1214.86L1117.43 1213.87L1117.72 1213.92L1117.94 1214.11L1117.27 1214.86ZM1113.49 1214.44L1113.54 1213.44L1113.49 1214.44ZM1070.62 1242.51L1069.78 1241.98L1070.62 1242.51ZM1049.64 1316.44L1049.45 1317.42L1048.59 1317.26L1048.64 1316.38L1049.64 1316.44ZM1111.61 1328.41L1111.8 1327.42L1115.37 1328.11L1111.95 1329.35L1111.61 1328.41ZM1050.47 1350.47L1049.48 1350.57L1049.39 1349.79L1050.13 1349.52L1050.47 1350.47ZM1074.99 1420.66L1074.19 1421.26L1074.99 1420.66ZM1117.27 1441.95L1117.95 1442.7L1117.73 1442.89L1117.44 1442.94L1117.27 1441.95ZM1117.1 1215.84C1115.89 1215.64 1114.66 1215.5 1113.43 1215.44L1113.54 1213.44C1114.85 1213.51 1116.14 1213.65 1117.43 1213.87L1117.1 1215.84ZM1113.43 1215.44C1098.23 1214.6 1083.21 1224.29 1071.47 1243.05L1069.78 1241.98C1081.72 1222.9 1097.32 1212.54 1113.54 1213.44L1113.43 1215.44ZM1071.47 1243.05C1059.74 1261.78 1052.28 1288.02 1050.63 1316.5L1048.64 1316.38C1050.29 1287.66 1057.82 1261.08 1069.78 1241.98L1071.47 1243.05ZM1049.83 1315.46L1111.8 1327.42L1111.42 1329.39L1049.45 1317.42L1049.83 1315.46ZM1111.95 1329.35L1050.81 1351.41L1050.13 1349.52L1111.27 1327.47L1111.95 1329.35ZM1051.46 1350.36C1054.49 1378.46 1063.21 1403.34 1075.79 1420.06L1074.19 1421.26C1061.33 1404.17 1052.53 1378.91 1049.48 1350.57L1051.46 1350.36ZM1075.79 1420.06C1087.88 1436.14 1102.58 1443.4 1117.11 1440.97L1117.44 1442.94C1101.93 1445.53 1086.56 1437.71 1074.19 1421.26L1075.79 1420.06ZM1116.6 1441.21C1140.02 1420.06 1156.15 1377.57 1156.15 1328.41H1158.15C1158.15 1377.9 1141.93 1421.04 1117.95 1442.7L1116.6 1441.21ZM1156.15 1328.41C1156.15 1279.24 1140.02 1236.74 1116.6 1215.6L1117.94 1214.11C1141.93 1235.77 1158.15 1278.91 1158.15 1328.41H1156.15Z" fill="black" mask="url(#path-7-inside-3_351_2640)"/>
<ellipse cx="978.58" cy="1485.51" rx="61.1187" ry="26.5863" fill="#F7C1B8"/>
<ellipse cx="1398.02" cy="1485.51" rx="61.1187" ry="26.5863" fill="#F7C1B8"/>
<ellipse cx="1211.07" cy="1527.8" rx="39.5474" ry="85.8014" fill="#E44E30"/>
<path d="M722.472 1260.67C722.472 1267.28 717.161 1272.63 710.619 1272.63C704.076 1272.63 698.766 1267.28 698.766 1260.67C698.766 1254.06 704.076 1248.71 710.619 1248.71C717.161 1248.71 722.472 1254.06 722.472 1260.67Z" fill="white" stroke="#FFBD2E"/>
<mask id="path-13-inside-4_351_2640" fill="white">
<path fill-rule="evenodd" clip-rule="evenodd" d="M970.186 1128.14C968.047 1126.72 965.368 1126.24 962.74 1126.81L962.747 1126.86C915.367 1125.67 869.833 1133.09 829.198 1148.63C788.491 1164.19 753.644 1187.54 727.003 1217.11L727.146 1217.2C725.913 1219.96 725.677 1223.12 726.497 1226.06C727.366 1229.17 729.35 1231.79 732.013 1233.33C734.676 1234.87 737.799 1235.21 740.696 1234.28C743.173 1233.48 745.31 1231.8 746.774 1229.54C771.501 1202.36 803.714 1180.87 841.288 1166.5C879.151 1152.02 921.58 1145.11 965.729 1146.23L965.733 1146.26C965.768 1146.25 965.803 1146.24 965.838 1146.24C965.861 1146.24 965.883 1146.24 965.906 1146.24L965.904 1146.22C968.464 1145.62 970.759 1144.07 972.303 1141.89C973.881 1139.66 974.545 1136.96 974.148 1134.38C973.751 1131.8 972.326 1129.56 970.186 1128.14Z"/>
</mask>
<path fill-rule="evenodd" clip-rule="evenodd" d="M970.186 1128.14C968.047 1126.72 965.368 1126.24 962.74 1126.81L962.747 1126.86C915.367 1125.67 869.833 1133.09 829.198 1148.63C788.491 1164.19 753.644 1187.54 727.003 1217.11L727.146 1217.2C725.913 1219.96 725.677 1223.12 726.497 1226.06C727.366 1229.17 729.35 1231.79 732.013 1233.33C734.676 1234.87 737.799 1235.21 740.696 1234.28C743.173 1233.48 745.31 1231.8 746.774 1229.54C771.501 1202.36 803.714 1180.87 841.288 1166.5C879.151 1152.02 921.58 1145.11 965.729 1146.23L965.733 1146.26C965.768 1146.25 965.803 1146.24 965.838 1146.24C965.861 1146.24 965.883 1146.24 965.906 1146.24L965.904 1146.22C968.464 1145.62 970.759 1144.07 972.303 1141.89C973.881 1139.66 974.545 1136.96 974.148 1134.38C973.751 1131.8 972.326 1129.56 970.186 1128.14Z" fill="white"/>
<path d="M962.74 1126.81L962.527 1125.84L961.608 1126.04L961.751 1126.97L962.74 1126.81ZM970.186 1128.14L969.633 1128.97V1128.97L970.186 1128.14ZM962.747 1126.86L962.722 1127.86L963.918 1127.89L963.736 1126.71L962.747 1126.86ZM829.198 1148.63L828.84 1147.69L829.198 1148.63ZM727.003 1217.11L726.26 1216.44L725.497 1217.28L726.435 1217.93L727.003 1217.11ZM727.146 1217.2L728.059 1217.61L728.399 1216.85L727.714 1216.38L727.146 1217.2ZM726.497 1226.06L727.46 1225.79L726.497 1226.06ZM732.013 1233.33L732.514 1232.46H732.514L732.013 1233.33ZM740.696 1234.28L741.003 1235.23H741.003L740.696 1234.28ZM746.774 1229.54L746.034 1228.87L745.979 1228.93L745.935 1229L746.774 1229.54ZM841.288 1166.5L840.931 1165.57L841.288 1166.5ZM965.729 1146.23L966.717 1146.08L966.59 1145.25L965.754 1145.23L965.729 1146.23ZM965.733 1146.26L964.745 1146.41L964.907 1147.46L965.945 1147.24L965.733 1146.26ZM965.838 1146.24L965.863 1145.24L965.738 1145.23L965.616 1145.26L965.838 1146.24ZM965.906 1146.24L965.88 1147.24L967.073 1147.27L966.895 1146.09L965.906 1146.24ZM965.904 1146.22L965.675 1145.25L964.778 1145.46L964.915 1146.37L965.904 1146.22ZM972.303 1141.89L973.119 1142.47V1142.47L972.303 1141.89ZM974.148 1134.38L975.136 1134.23V1134.23L974.148 1134.38ZM962.952 1127.79C965.331 1127.27 967.731 1127.71 969.633 1128.97L970.739 1127.31C968.363 1125.73 965.406 1125.21 962.527 1125.84L962.952 1127.79ZM963.736 1126.71L963.728 1126.66L961.751 1126.97L961.759 1127.02L963.736 1126.71ZM829.555 1149.56C870.058 1134.07 915.461 1126.67 962.722 1127.86L962.773 1125.86C915.274 1124.67 869.608 1132.1 828.84 1147.69L829.555 1149.56ZM727.746 1217.78C754.272 1188.34 788.981 1165.07 829.555 1149.56L828.84 1147.69C788 1163.31 753.017 1186.74 726.26 1216.44L727.746 1217.78ZM727.714 1216.38L727.57 1216.28L726.435 1217.93L726.579 1218.03L727.714 1216.38ZM727.46 1225.79C726.702 1223.07 726.921 1220.15 728.059 1217.61L726.234 1216.8C724.904 1219.76 724.651 1223.16 725.534 1226.32L727.46 1225.79ZM732.514 1232.46C730.09 1231.06 728.263 1228.67 727.46 1225.79L725.534 1226.32C726.469 1229.68 728.611 1232.52 731.512 1234.2L732.514 1232.46ZM740.389 1233.33C737.765 1234.17 734.935 1233.87 732.514 1232.46L731.512 1234.2C734.417 1235.88 737.834 1236.25 741.003 1235.23L740.389 1233.33ZM745.935 1229C744.589 1231.08 742.635 1232.6 740.389 1233.33L741.003 1235.23C743.71 1234.36 746.031 1232.53 747.613 1230.09L745.935 1229ZM840.931 1165.57C803.225 1179.98 770.876 1201.56 746.034 1228.87L747.514 1230.22C772.126 1203.15 804.203 1181.75 841.645 1167.43L840.931 1165.57ZM965.754 1145.23C921.487 1144.11 878.926 1151.04 840.931 1165.57L841.645 1167.43C879.375 1153.01 921.673 1146.12 965.704 1147.23L965.754 1145.23ZM966.721 1146.11L966.717 1146.08L964.741 1146.39L964.745 1146.41L966.721 1146.11ZM965.616 1145.26C965.584 1145.27 965.552 1145.27 965.521 1145.28L965.945 1147.24C965.984 1147.23 966.022 1147.22 966.06 1147.21L965.616 1145.26ZM965.932 1145.24C965.909 1145.24 965.886 1145.24 965.863 1145.24L965.812 1147.24C965.835 1147.24 965.858 1147.24 965.88 1147.24L965.932 1145.24ZM964.915 1146.37L964.917 1146.39L966.895 1146.09L966.893 1146.07L964.915 1146.37ZM971.487 1141.31C970.082 1143.29 967.994 1144.7 965.675 1145.25L966.132 1147.19C968.933 1146.54 971.436 1144.84 973.119 1142.47L971.487 1141.31ZM973.159 1134.53C973.515 1136.84 972.923 1139.28 971.487 1141.31L973.119 1142.47C974.839 1140.04 975.574 1137.08 975.136 1134.23L973.159 1134.53ZM969.633 1128.97C971.534 1130.23 972.804 1132.23 973.159 1134.53L975.136 1134.23C974.697 1131.38 973.117 1128.88 970.739 1127.31L969.633 1128.97Z" fill="#FFBD2E" mask="url(#path-13-inside-4_351_2640)"/>
</svg>
