<svg width="1532" height="1787" viewBox="0 0 1532 1787" fill="none" xmlns="http://www.w3.org/2000/svg">
<mask id="path-1-inside-1_351_2816" fill="white">
<path fill-rule="evenodd" clip-rule="evenodd" d="M722.563 44.9047C722.638 44.9744 722.713 45.0442 722.787 45.1141L722.563 45.4685V743.601V1166.38C808.336 1101.37 926.428 1061.21 1056.8 1061.21C1318.9 1061.21 1531.37 1223.53 1531.37 1423.75C1531.37 1623.98 1318.9 1786.29 1056.8 1786.29C794.702 1786.29 582.23 1623.98 582.23 1423.75C582.23 1420.42 582.289 1417.11 582.406 1413.8L547.879 268.242C546.303 243.022 543.118 224.74 519.245 218.589C500.577 213.78 468.472 210.964 440.926 218.589C438.729 219.198 436.556 219.787 434.403 220.37C409.56 227.106 387.359 233.125 361.264 259.439C347.159 273.662 337.654 288.492 328.267 303.139C308.177 334.486 288.626 364.991 225.681 386.894L183.011 393.43H154.924H128.997L101.181 391.796L82.818 388.799L63.1013 384.987L49.77 381.175L36.6349 373.549L0.716064 343.592C12.1891 341.022 26.7589 340.941 43.4044 340.849C100.817 340.53 182.924 340.076 247.829 236.836C249.813 234.188 251.84 231.477 253.909 228.711C295.258 173.419 353.197 95.9418 409.982 61.5372C469.608 25.4111 531.659 4.08743 587.714 0.460048C642.202 -3.06603 687.96 13.9362 720.054 42.6125H722.563V44.9047Z"/>
</mask>
<path fill-rule="evenodd" clip-rule="evenodd" d="M722.563 44.9047C722.638 44.9744 722.713 45.0442 722.787 45.1141L722.563 45.4685V743.601V1166.38C808.336 1101.37 926.428 1061.21 1056.8 1061.21C1318.9 1061.21 1531.37 1223.53 1531.37 1423.75C1531.37 1623.98 1318.9 1786.29 1056.8 1786.29C794.702 1786.29 582.23 1623.98 582.23 1423.75C582.23 1420.42 582.289 1417.11 582.406 1413.8L547.879 268.242C546.303 243.022 543.118 224.74 519.245 218.589C500.577 213.78 468.472 210.964 440.926 218.589C438.729 219.198 436.556 219.787 434.403 220.37C409.56 227.106 387.359 233.125 361.264 259.439C347.159 273.662 337.654 288.492 328.267 303.139C308.177 334.486 288.626 364.991 225.681 386.894L183.011 393.43H154.924H128.997L101.181 391.796L82.818 388.799L63.1013 384.987L49.77 381.175L36.6349 373.549L0.716064 343.592C12.1891 341.022 26.7589 340.941 43.4044 340.849C100.817 340.53 182.924 340.076 247.829 236.836C249.813 234.188 251.84 231.477 253.909 228.711C295.258 173.419 353.197 95.9418 409.982 61.5372C469.608 25.4111 531.659 4.08743 587.714 0.460048C642.202 -3.06603 687.96 13.9362 720.054 42.6125H722.563V44.9047Z" fill="#764037"/>
<path d="M722.787 45.1141L736.464 30.5219L748.52 41.8216L739.698 55.7927L722.787 45.1141ZM722.563 44.9047L708.918 59.5264L702.563 53.5962V44.9047H722.563ZM722.563 45.4685H702.563V39.6823L705.653 34.7899L722.563 45.4685ZM722.563 1166.38L734.644 1182.32L702.563 1206.63V1166.38H722.563ZM582.406 1413.8L602.397 1413.2L602.416 1413.85L602.393 1414.51L582.406 1413.8ZM547.879 268.242L567.84 266.994L567.861 267.316L567.87 267.639L547.879 268.242ZM519.245 218.589L514.255 237.957L514.255 237.957L519.245 218.589ZM440.926 218.589L435.59 199.314L435.59 199.314L440.926 218.589ZM434.403 220.37L439.636 239.673L439.636 239.674L434.403 220.37ZM361.264 259.439L375.465 273.522L375.465 273.522L361.264 259.439ZM328.267 303.139L311.429 292.347L311.429 292.347L328.267 303.139ZM225.681 386.894L232.254 405.783L230.522 406.385L228.709 406.663L225.681 386.894ZM183.011 393.43L186.039 413.199L184.533 413.43H183.011V393.43ZM128.997 393.43V413.43H128.411L127.825 413.395L128.997 393.43ZM101.181 391.796L100.008 411.761L98.9777 411.701L97.9592 411.534L101.181 391.796ZM82.818 388.799L79.5965 408.538L79.3085 408.491L79.022 408.435L82.818 388.799ZM63.1013 384.987L59.3053 404.624L58.4447 404.457L57.6019 404.216L63.1013 384.987ZM49.77 381.175L44.2706 400.404L41.8795 399.72L39.7288 398.471L49.77 381.175ZM36.6349 373.549L26.5936 390.846L25.1272 389.994L23.825 388.908L36.6349 373.549ZM0.716064 343.592L-12.0938 358.952L-43.2677 332.952L-3.65707 324.076L0.716064 343.592ZM43.4044 340.849L43.5152 360.848L43.5152 360.848L43.4044 340.849ZM247.829 236.836L230.897 226.191L231.333 225.498L231.824 224.843L247.829 236.836ZM253.909 228.711L269.926 240.688L269.926 240.689L253.909 228.711ZM409.982 61.5372L399.618 44.4318L399.618 44.4318L409.982 61.5372ZM587.714 0.460048L589.005 20.4183L589.005 20.4183L587.714 0.460048ZM720.054 42.6125V62.6125H712.42L706.728 57.5264L720.054 42.6125ZM722.563 42.6125V22.6125H742.563V42.6125H722.563ZM709.11 59.7063C709.044 59.6443 708.98 59.5845 708.918 59.5264L736.209 30.2831C736.296 30.3644 736.382 30.4441 736.464 30.5219L709.11 59.7063ZM705.653 34.7899L705.877 34.4355L739.698 55.7927L739.474 56.1471L705.653 34.7899ZM702.563 743.601V45.4685H742.563V743.601H702.563ZM702.563 1166.38V743.601H742.563V1166.38H702.563ZM1056.8 1081.21C930.406 1081.21 816.646 1120.17 734.644 1182.32L710.483 1150.44C800.026 1082.57 922.451 1041.21 1056.8 1041.21V1081.21ZM1511.37 1423.75C1511.37 1331.19 1462.3 1245.99 1380.23 1183.29C1298.13 1120.57 1183.85 1081.21 1056.8 1081.21V1041.21C1191.84 1041.21 1314.84 1083 1404.51 1151.5C1494.19 1220.02 1551.37 1316.09 1551.37 1423.75H1511.37ZM1056.8 1766.29C1183.85 1766.29 1298.13 1726.93 1380.23 1664.21C1462.3 1601.51 1511.37 1516.32 1511.37 1423.75H1551.37C1551.37 1531.41 1494.19 1627.49 1404.51 1696C1314.84 1764.5 1191.84 1806.29 1056.8 1806.29V1766.29ZM602.23 1423.75C602.23 1516.32 651.294 1601.51 733.37 1664.21C815.463 1726.93 929.746 1766.29 1056.8 1766.29V1806.29C921.754 1806.29 798.753 1764.5 709.087 1696C619.403 1627.49 562.23 1531.41 562.23 1423.75H602.23ZM602.393 1414.51C602.285 1417.58 602.23 1420.66 602.23 1423.75H562.23C562.23 1420.19 562.293 1416.64 562.418 1413.1L602.393 1414.51ZM567.87 267.639L602.397 1413.2L562.415 1414.41L527.888 268.844L567.87 267.639ZM524.234 199.222C541.574 203.689 553.366 213.543 560.035 227.781C565.836 240.167 567.071 254.692 567.84 266.994L527.918 269.49C527.111 256.572 525.965 249.345 523.812 244.748C522.525 242.002 520.789 239.64 514.255 237.957L524.234 199.222ZM435.59 199.314C467.368 190.518 503.156 193.792 524.234 199.222L514.255 237.957C497.998 233.769 469.576 231.411 446.261 237.865L435.59 199.314ZM429.169 201.067C431.33 200.481 433.452 199.906 435.59 199.314L446.261 237.865C444.005 238.489 441.781 239.092 439.636 239.673L429.169 201.067ZM347.063 245.356C377.031 215.136 403.565 208.009 429.169 201.067L439.636 239.674C415.554 246.202 397.687 251.113 375.465 273.522L347.063 245.356ZM311.429 292.347C320.735 277.827 331.27 261.282 347.063 245.356L375.465 273.522C363.049 286.042 354.574 299.158 345.106 313.931L311.429 292.347ZM219.108 368.004C248.329 357.837 266.43 346.068 279.381 333.953C292.579 321.606 301.277 308.186 311.429 292.347L345.106 313.931C335.166 329.439 324.044 346.945 306.708 363.163C289.124 379.613 265.978 394.048 232.254 405.783L219.108 368.004ZM179.982 373.66L222.653 367.124L228.709 406.663L186.039 413.199L179.982 373.66ZM154.924 373.43H183.011V413.43H154.924V373.43ZM128.997 373.43H154.924V413.43H128.997V373.43ZM102.353 371.83L130.17 373.464L127.825 413.395L100.008 411.761L102.353 371.83ZM86.0394 369.06L104.402 372.057L97.9592 411.534L79.5965 408.538L86.0394 369.06ZM66.8973 365.351L86.614 369.162L79.022 408.435L59.3053 404.624L66.8973 365.351ZM55.2694 361.945L68.6007 365.758L57.6019 404.216L44.2706 400.404L55.2694 361.945ZM46.6761 356.253L59.8113 363.878L39.7288 398.471L26.5936 390.846L46.6761 356.253ZM13.5259 328.233L49.4447 358.19L23.825 388.908L-12.0938 358.952L13.5259 328.233ZM43.5152 360.848C26.0921 360.945 13.989 361.114 5.0892 363.108L-3.65707 324.076C10.3892 320.929 27.4257 320.937 43.2936 320.849L43.5152 360.848ZM264.761 247.481C230.072 302.657 189.865 331.569 149.658 346.228C110.164 360.627 71.9925 360.69 43.5152 360.848L43.2936 320.849C72.2289 320.689 103.817 320.365 135.956 308.648C167.382 297.19 200.681 274.254 230.897 226.191L264.761 247.481ZM269.926 240.689C267.858 243.454 265.825 246.172 263.835 248.829L231.824 224.843C233.801 222.204 235.822 219.501 237.893 216.733L269.926 240.689ZM420.345 78.6425C394.619 94.2295 367.557 120.34 341.21 150.459C315.042 180.373 290.664 212.957 269.926 240.688L237.892 216.733C258.503 189.173 283.768 155.372 311.103 124.123C338.259 93.0796 368.559 63.2494 399.618 44.4318L420.345 78.6425ZM589.005 20.4183C536.843 23.7938 477.872 43.7884 420.345 78.6425L399.618 44.4318C461.343 7.03383 526.476 -15.619 586.422 -19.4982L589.005 20.4183ZM706.728 57.5264C678.88 32.644 638.482 17.2166 589.005 20.4183L586.422 -19.4982C645.922 -23.3486 697.039 -4.7716 733.379 27.6986L706.728 57.5264ZM722.563 62.6125H720.054V22.6125H722.563V62.6125ZM702.563 44.9047V42.6125H742.563V44.9047H702.563Z" fill="#4B1D16" mask="url(#path-1-inside-1_351_2816)"/>
<path d="M1222.44 1328.41C1222.44 1362.34 1230.44 1392.57 1242.86 1413.97C1255.42 1435.63 1271.29 1446.51 1286.75 1446.51C1302.2 1446.51 1318.07 1435.63 1330.63 1413.97C1343.05 1392.57 1351.05 1362.34 1351.05 1328.41C1351.05 1294.48 1343.05 1264.25 1330.63 1242.85C1318.07 1221.19 1302.2 1210.31 1286.75 1210.31C1271.29 1210.31 1255.42 1221.19 1242.86 1242.85C1230.44 1264.25 1222.44 1294.48 1222.44 1328.41Z" fill="white" stroke="black" stroke-width="20"/>
<mask id="path-4-inside-2_351_2816" fill="white">
<path fill-rule="evenodd" clip-rule="evenodd" d="M1321.17 1214.86C1319.92 1214.65 1318.66 1214.51 1317.4 1214.44C1301.68 1213.57 1286.37 1223.6 1274.53 1242.51C1262.69 1261.43 1255.19 1287.84 1253.54 1316.44L1315.52 1328.41L1254.38 1350.47C1257.42 1378.68 1266.17 1403.76 1278.89 1420.66C1291.13 1436.92 1306.16 1444.46 1321.18 1441.95C1344.88 1420.55 1361.05 1377.74 1361.05 1328.41C1361.05 1279.08 1344.88 1236.26 1321.17 1214.86Z"/>
</mask>
<path fill-rule="evenodd" clip-rule="evenodd" d="M1321.17 1214.86C1319.92 1214.65 1318.66 1214.51 1317.4 1214.44C1301.68 1213.57 1286.37 1223.6 1274.53 1242.51C1262.69 1261.43 1255.19 1287.84 1253.54 1316.44L1315.52 1328.41L1254.38 1350.47C1257.42 1378.68 1266.17 1403.76 1278.89 1420.66C1291.13 1436.92 1306.16 1444.46 1321.18 1441.95C1344.88 1420.55 1361.05 1377.74 1361.05 1328.41C1361.05 1279.08 1344.88 1236.26 1321.17 1214.86Z" fill="black"/>
<path d="M1321.17 1214.86L1321.34 1213.87L1321.63 1213.92L1321.84 1214.11L1321.17 1214.86ZM1317.4 1214.44L1317.45 1213.44L1317.4 1214.44ZM1274.53 1242.51L1273.68 1241.98L1274.53 1242.51ZM1253.54 1316.44L1253.35 1317.42L1252.49 1317.26L1252.54 1316.38L1253.54 1316.44ZM1315.52 1328.41L1315.71 1327.42L1319.27 1328.11L1315.85 1329.35L1315.52 1328.41ZM1254.38 1350.47L1253.38 1350.57L1253.3 1349.79L1254.04 1349.52L1254.38 1350.47ZM1278.89 1420.66L1278.09 1421.26L1278.89 1420.66ZM1321.18 1441.95L1321.85 1442.7L1321.63 1442.89L1321.35 1442.94L1321.18 1441.95ZM1321.01 1215.84C1319.79 1215.64 1318.57 1215.5 1317.34 1215.44L1317.45 1213.44C1318.75 1213.51 1320.05 1213.65 1321.34 1213.87L1321.01 1215.84ZM1317.34 1215.44C1302.14 1214.6 1287.12 1224.29 1275.38 1243.05L1273.68 1241.98C1285.63 1222.9 1301.23 1212.54 1317.45 1213.44L1317.34 1215.44ZM1275.38 1243.05C1263.65 1261.78 1256.18 1288.02 1254.54 1316.5L1252.54 1316.38C1254.2 1287.66 1261.73 1261.08 1273.68 1241.98L1275.38 1243.05ZM1253.73 1315.46L1315.71 1327.42L1315.33 1329.39L1253.35 1317.42L1253.73 1315.46ZM1315.85 1329.35L1254.72 1351.41L1254.04 1349.52L1315.18 1327.47L1315.85 1329.35ZM1255.37 1350.36C1258.4 1378.46 1267.11 1403.34 1279.69 1420.06L1278.09 1421.26C1265.24 1404.17 1256.44 1378.91 1253.38 1350.57L1255.37 1350.36ZM1279.69 1420.06C1291.79 1436.14 1306.49 1443.4 1321.02 1440.97L1321.35 1442.94C1305.84 1445.53 1290.47 1437.71 1278.09 1421.26L1279.69 1420.06ZM1320.51 1441.21C1343.93 1420.06 1360.05 1377.57 1360.05 1328.41H1362.05C1362.05 1377.9 1345.84 1421.04 1321.85 1442.7L1320.51 1441.21ZM1360.05 1328.41C1360.05 1279.24 1343.93 1236.74 1320.5 1215.6L1321.84 1214.11C1345.83 1235.77 1362.05 1278.91 1362.05 1328.41H1360.05Z" fill="black" mask="url(#path-4-inside-2_351_2816)"/>
<path d="M1018.72 1328.41C1018.72 1362.34 1026.72 1392.57 1039.13 1413.97C1051.69 1435.63 1067.56 1446.51 1083.02 1446.51C1098.48 1446.51 1114.35 1435.63 1126.91 1413.97C1139.32 1392.57 1147.32 1362.34 1147.32 1328.41C1147.32 1294.48 1139.32 1264.25 1126.91 1242.85C1114.35 1221.19 1098.48 1210.31 1083.02 1210.31C1067.56 1210.31 1051.69 1221.19 1039.13 1242.85C1026.72 1264.25 1018.72 1294.48 1018.72 1328.41Z" fill="white" stroke="black" stroke-width="20"/>
<mask id="path-7-inside-3_351_2816" fill="white">
<path fill-rule="evenodd" clip-rule="evenodd" d="M1117.45 1214.86C1116.19 1214.65 1114.93 1214.51 1113.67 1214.44C1097.96 1213.57 1082.65 1223.6 1070.8 1242.51C1058.96 1261.43 1051.47 1287.84 1049.82 1316.44L1111.79 1328.41L1050.65 1350.47C1053.69 1378.68 1062.45 1403.76 1075.17 1420.66C1087.4 1436.92 1102.43 1444.46 1117.45 1441.95C1141.16 1420.55 1157.33 1377.74 1157.33 1328.41C1157.33 1279.08 1141.15 1236.26 1117.45 1214.86Z"/>
</mask>
<path fill-rule="evenodd" clip-rule="evenodd" d="M1117.45 1214.86C1116.19 1214.65 1114.93 1214.51 1113.67 1214.44C1097.96 1213.57 1082.65 1223.6 1070.8 1242.51C1058.96 1261.43 1051.47 1287.84 1049.82 1316.44L1111.79 1328.41L1050.65 1350.47C1053.69 1378.68 1062.45 1403.76 1075.17 1420.66C1087.4 1436.92 1102.43 1444.46 1117.45 1441.95C1141.16 1420.55 1157.33 1377.74 1157.33 1328.41C1157.33 1279.08 1141.15 1236.26 1117.45 1214.86Z" fill="black"/>
<path d="M1117.45 1214.86L1117.61 1213.87L1117.9 1213.92L1118.12 1214.11L1117.45 1214.86ZM1113.67 1214.44L1113.72 1213.44L1113.67 1214.44ZM1070.8 1242.51L1069.96 1241.98L1070.8 1242.51ZM1049.82 1316.44L1049.63 1317.42L1048.77 1317.26L1048.82 1316.38L1049.82 1316.44ZM1111.79 1328.41L1111.98 1327.42L1115.55 1328.11L1112.13 1329.35L1111.79 1328.41ZM1050.65 1350.47L1049.65 1350.57L1049.57 1349.79L1050.31 1349.52L1050.65 1350.47ZM1075.17 1420.66L1074.37 1421.26L1075.17 1420.66ZM1117.45 1441.95L1118.12 1442.7L1117.91 1442.89L1117.62 1442.94L1117.45 1441.95ZM1117.28 1215.84C1116.07 1215.64 1114.84 1215.5 1113.61 1215.44L1113.72 1213.44C1115.03 1213.51 1116.32 1213.65 1117.61 1213.87L1117.28 1215.84ZM1113.61 1215.44C1098.41 1214.6 1083.39 1224.29 1071.65 1243.05L1069.96 1241.98C1081.9 1222.9 1097.5 1212.54 1113.72 1213.44L1113.61 1215.44ZM1071.65 1243.05C1059.92 1261.78 1052.46 1288.02 1050.81 1316.5L1048.82 1316.38C1050.47 1287.66 1058 1261.08 1069.96 1241.98L1071.65 1243.05ZM1050.01 1315.46L1111.98 1327.42L1111.6 1329.39L1049.63 1317.42L1050.01 1315.46ZM1112.13 1329.35L1050.99 1351.41L1050.31 1349.52L1111.45 1327.47L1112.13 1329.35ZM1051.64 1350.36C1054.67 1378.46 1063.39 1403.34 1075.97 1420.06L1074.37 1421.26C1061.51 1404.17 1052.71 1378.91 1049.65 1350.57L1051.64 1350.36ZM1075.97 1420.06C1088.06 1436.14 1102.76 1443.4 1117.29 1440.97L1117.62 1442.94C1102.11 1445.53 1086.74 1437.71 1074.37 1421.26L1075.97 1420.06ZM1116.78 1441.21C1140.2 1420.06 1156.33 1377.57 1156.33 1328.41H1158.33C1158.33 1377.9 1142.11 1421.04 1118.12 1442.7L1116.78 1441.21ZM1156.33 1328.41C1156.33 1279.24 1140.2 1236.74 1116.78 1215.6L1118.12 1214.11C1142.11 1235.77 1158.33 1278.91 1158.33 1328.41H1156.33Z" fill="black" mask="url(#path-7-inside-3_351_2816)"/>
<ellipse cx="978.759" cy="1485.51" rx="61.1187" ry="26.5863" fill="#F7C1B8"/>
<ellipse cx="1398.2" cy="1485.51" rx="61.1187" ry="26.5863" fill="#F7C1B8"/>
<ellipse cx="1211.25" cy="1527.8" rx="39.5474" ry="85.8014" fill="#E44E30"/>
<path d="M722.652 1260.67C722.652 1267.28 717.341 1272.63 710.798 1272.63C704.256 1272.63 698.945 1267.28 698.945 1260.67C698.945 1254.06 704.256 1248.71 710.798 1248.71C717.341 1248.71 722.652 1254.06 722.652 1260.67Z" fill="white" stroke="#FFBD2E"/>
<mask id="path-13-inside-4_351_2816" fill="white">
<path fill-rule="evenodd" clip-rule="evenodd" d="M970.366 1128.14C968.227 1126.72 965.548 1126.24 962.919 1126.81L962.927 1126.86C915.547 1125.67 870.013 1133.09 829.377 1148.63C788.671 1164.19 753.824 1187.54 727.182 1217.11L727.326 1217.2C726.092 1219.96 725.856 1223.12 726.676 1226.06C727.546 1229.17 729.53 1231.79 732.193 1233.33C734.856 1234.87 737.979 1235.21 740.876 1234.28C743.352 1233.48 745.49 1231.8 746.954 1229.54C771.681 1202.36 803.894 1180.87 841.468 1166.5C879.33 1152.02 921.76 1145.11 965.909 1146.23L965.913 1146.26C965.948 1146.25 965.983 1146.24 966.017 1146.24C966.04 1146.24 966.063 1146.24 966.086 1146.24L966.083 1146.22C968.643 1145.62 970.939 1144.07 972.483 1141.89C974.061 1139.66 974.724 1136.96 974.327 1134.38C973.93 1131.8 972.505 1129.56 970.366 1128.14Z"/>
</mask>
<path fill-rule="evenodd" clip-rule="evenodd" d="M970.366 1128.14C968.227 1126.72 965.548 1126.24 962.919 1126.81L962.927 1126.86C915.547 1125.67 870.013 1133.09 829.377 1148.63C788.671 1164.19 753.824 1187.54 727.182 1217.11L727.326 1217.2C726.092 1219.96 725.856 1223.12 726.676 1226.06C727.546 1229.17 729.53 1231.79 732.193 1233.33C734.856 1234.87 737.979 1235.21 740.876 1234.28C743.352 1233.48 745.49 1231.8 746.954 1229.54C771.681 1202.36 803.894 1180.87 841.468 1166.5C879.33 1152.02 921.76 1145.11 965.909 1146.23L965.913 1146.26C965.948 1146.25 965.983 1146.24 966.017 1146.24C966.04 1146.24 966.063 1146.24 966.086 1146.24L966.083 1146.22C968.643 1145.62 970.939 1144.07 972.483 1141.89C974.061 1139.66 974.724 1136.96 974.327 1134.38C973.93 1131.8 972.505 1129.56 970.366 1128.14Z" fill="white"/>
<path d="M962.919 1126.81L962.707 1125.84L961.788 1126.04L961.931 1126.97L962.919 1126.81ZM970.366 1128.14L969.813 1128.97V1128.97L970.366 1128.14ZM962.927 1126.86L962.902 1127.86L964.097 1127.89L963.915 1126.71L962.927 1126.86ZM829.377 1148.63L829.02 1147.69L829.377 1148.63ZM727.182 1217.11L726.439 1216.44L725.677 1217.28L726.615 1217.93L727.182 1217.11ZM727.326 1217.2L728.239 1217.61L728.579 1216.85L727.894 1216.38L727.326 1217.2ZM726.676 1226.06L725.713 1226.32L726.676 1226.06ZM732.193 1233.33L732.694 1232.46H732.694L732.193 1233.33ZM740.876 1234.28L741.183 1235.23H741.183L740.876 1234.28ZM746.954 1229.54L746.214 1228.87L746.159 1228.93L746.115 1229L746.954 1229.54ZM841.468 1166.5L841.825 1167.43L841.468 1166.5ZM965.909 1146.23L966.897 1146.08L966.77 1145.25L965.934 1145.23L965.909 1146.23ZM965.913 1146.26L964.924 1146.41L965.086 1147.46L966.125 1147.24L965.913 1146.26ZM966.017 1146.24L966.043 1145.24L965.918 1145.23L965.795 1145.26L966.017 1146.24ZM966.086 1146.24L966.06 1147.24L967.252 1147.27L967.075 1146.09L966.086 1146.24ZM966.083 1146.22L965.855 1145.25L964.957 1145.46L965.095 1146.37L966.083 1146.22ZM972.483 1141.89L973.299 1142.47V1142.47L972.483 1141.89ZM974.327 1134.38L975.316 1134.23V1134.23L974.327 1134.38ZM963.132 1127.79C965.51 1127.27 967.911 1127.71 969.813 1128.97L970.919 1127.31C968.543 1125.73 965.586 1125.21 962.707 1125.84L963.132 1127.79ZM963.915 1126.71L963.908 1126.66L961.931 1126.97L961.939 1127.02L963.915 1126.71ZM829.734 1149.56C870.237 1134.07 915.64 1126.67 962.902 1127.86L962.952 1125.86C915.453 1124.67 869.788 1132.1 829.02 1147.69L829.734 1149.56ZM727.925 1217.78C754.451 1188.34 789.161 1165.07 829.734 1149.56L829.02 1147.69C788.18 1163.31 753.197 1186.74 726.439 1216.44L727.925 1217.78ZM727.894 1216.38L727.75 1216.28L726.615 1217.93L726.758 1218.03L727.894 1216.38ZM727.64 1225.79C726.882 1223.07 727.101 1220.15 728.239 1217.61L726.414 1216.8C725.084 1219.76 724.831 1223.16 725.713 1226.32L727.64 1225.79ZM732.694 1232.46C730.27 1231.06 728.443 1228.67 727.64 1225.79L725.713 1226.32C726.649 1229.68 728.79 1232.52 731.692 1234.2L732.694 1232.46ZM740.569 1233.33C737.945 1234.17 735.115 1233.87 732.694 1232.46L731.692 1234.2C734.597 1235.88 738.013 1236.25 741.183 1235.23L740.569 1233.33ZM746.115 1229C744.769 1231.08 742.815 1232.6 740.569 1233.33L741.183 1235.23C743.89 1234.36 746.211 1232.53 747.793 1230.09L746.115 1229ZM841.11 1165.57C803.404 1179.98 771.056 1201.56 746.214 1228.87L747.694 1230.22C772.306 1203.15 804.383 1181.75 841.825 1167.43L841.11 1165.57ZM965.934 1145.23C921.666 1144.11 879.106 1151.04 841.11 1165.57L841.825 1167.43C879.555 1153.01 921.853 1146.12 965.883 1147.23L965.934 1145.23ZM966.901 1146.11L966.897 1146.08L964.92 1146.39L964.924 1146.41L966.901 1146.11ZM965.795 1145.26C965.764 1145.27 965.732 1145.27 965.7 1145.28L966.125 1147.24C966.163 1147.23 966.202 1147.22 966.24 1147.21L965.795 1145.26ZM966.112 1145.24C966.089 1145.24 966.066 1145.24 966.043 1145.24L965.992 1147.24C966.015 1147.24 966.037 1147.24 966.06 1147.24L966.112 1145.24ZM965.095 1146.37L965.097 1146.39L967.075 1146.09L967.072 1146.07L965.095 1146.37ZM971.667 1141.31C970.262 1143.29 968.174 1144.7 965.855 1145.25L966.312 1147.19C969.113 1146.54 971.616 1144.84 973.299 1142.47L971.667 1141.31ZM973.339 1134.53C973.694 1136.84 973.102 1139.28 971.667 1141.31L973.299 1142.47C975.019 1140.04 975.754 1137.08 975.316 1134.23L973.339 1134.53ZM969.813 1128.97C971.714 1130.23 972.984 1132.23 973.339 1134.53L975.316 1134.23C974.877 1131.38 973.297 1128.88 970.919 1127.31L969.813 1128.97Z" fill="#FFBD2E" mask="url(#path-13-inside-4_351_2816)"/>
</svg>
