<svg width="1531" height="1787" viewBox="0 0 1531 1787" fill="none" xmlns="http://www.w3.org/2000/svg">
<mask id="path-1-inside-1_349_1003" fill="white">
<path fill-rule="evenodd" clip-rule="evenodd" d="M722.2 44.8999C722.277 44.9712 722.353 45.0426 722.429 45.1141L722.2 45.4767V743.601V1166.38C807.973 1101.37 926.065 1061.21 1056.44 1061.21C1318.53 1061.21 1531 1223.53 1531 1423.75C1531 1623.98 1318.53 1786.29 1056.44 1786.29C794.339 1786.29 581.867 1623.98 581.867 1423.75C581.867 1420.42 581.926 1417.11 582.042 1413.8L547.511 268.084C545.931 242.946 542.71 224.727 518.887 218.589C500.219 213.78 468.114 210.964 440.567 218.589C438.37 219.198 436.198 219.787 434.045 220.37C409.202 227.106 387.001 233.125 360.906 259.439C346.801 273.662 337.296 288.492 327.909 303.139C307.818 334.486 288.267 364.991 225.323 386.894L182.652 393.43H154.566H128.639L100.823 391.796L82.4598 388.799L62.7432 384.987L49.4119 381.175L36.2767 373.549L0.35791 343.592C11.8309 341.022 26.4008 340.941 43.0463 340.849C100.459 340.53 182.566 340.076 247.471 236.836C249.454 234.189 251.481 231.478 253.55 228.712C294.898 173.42 352.838 95.9421 409.624 61.5372C469.25 25.4111 531.301 4.08743 587.356 0.460015C641.844 -3.06605 687.602 13.9362 719.696 42.6125H722.2V44.8999Z"/>
</mask>
<path fill-rule="evenodd" clip-rule="evenodd" d="M722.2 44.8999C722.277 44.9712 722.353 45.0426 722.429 45.1141L722.2 45.4767V743.601V1166.38C807.973 1101.37 926.065 1061.21 1056.44 1061.21C1318.53 1061.21 1531 1223.53 1531 1423.75C1531 1623.98 1318.53 1786.29 1056.44 1786.29C794.339 1786.29 581.867 1623.98 581.867 1423.75C581.867 1420.42 581.926 1417.11 582.042 1413.8L547.511 268.084C545.931 242.946 542.71 224.727 518.887 218.589C500.219 213.78 468.114 210.964 440.567 218.589C438.37 219.198 436.198 219.787 434.045 220.37C409.202 227.106 387.001 233.125 360.906 259.439C346.801 273.662 337.296 288.492 327.909 303.139C307.818 334.486 288.267 364.991 225.323 386.894L182.652 393.43H154.566H128.639L100.823 391.796L82.4598 388.799L62.7432 384.987L49.4119 381.175L36.2767 373.549L0.35791 343.592C11.8309 341.022 26.4008 340.941 43.0463 340.849C100.459 340.53 182.566 340.076 247.471 236.836C249.454 234.189 251.481 231.478 253.55 228.712C294.898 173.42 352.838 95.9421 409.624 61.5372C469.25 25.4111 531.301 4.08743 587.356 0.460015C641.844 -3.06605 687.602 13.9362 719.696 42.6125H722.2V44.8999Z" fill="#F8FF9B"/>
<path d="M722.429 45.1141L736.108 30.5233L748.161 41.8231L739.34 55.7926L722.429 45.1141ZM722.2 44.8999L708.553 59.5201L702.2 53.5901V44.8999H722.2ZM722.2 45.4767H702.2V39.6905L705.29 34.7982L722.2 45.4767ZM722.2 1166.38L734.281 1182.32L702.2 1206.63V1166.38H722.2ZM582.042 1413.8L602.033 1413.2L602.053 1413.85L602.03 1414.51L582.042 1413.8ZM547.511 268.084L567.472 266.829L567.492 267.155L567.502 267.482L547.511 268.084ZM518.887 218.589L513.897 237.957L518.887 218.589ZM440.567 218.589L435.232 199.314L435.232 199.314L440.567 218.589ZM434.045 220.37L439.278 239.673L439.278 239.674L434.045 220.37ZM360.906 259.439L375.107 273.522V273.522L360.906 259.439ZM327.909 303.139L344.748 313.931V313.931L327.909 303.139ZM225.323 386.894L231.896 405.783L230.164 406.385L228.351 406.663L225.323 386.894ZM182.652 393.43L185.681 413.199L184.175 413.43H182.652V393.43ZM128.639 393.43V413.43H128.052L127.466 413.395L128.639 393.43ZM100.823 391.796L99.6497 411.761L98.6195 411.701L97.6011 411.534L100.823 391.796ZM82.4598 388.799L79.2384 408.538L78.9503 408.491L78.6638 408.435L82.4598 388.799ZM62.7432 384.987L58.9471 404.624L58.0865 404.457L57.2438 404.216L62.7432 384.987ZM49.4119 381.175L43.9125 400.404L41.5214 399.72L39.3706 398.471L49.4119 381.175ZM36.2767 373.549L26.2355 390.846L24.769 389.994L23.4669 388.908L36.2767 373.549ZM0.35791 343.592L-12.4519 358.952L-43.6259 332.952L-4.01526 324.076L0.35791 343.592ZM43.0463 340.849L43.1571 360.848L43.0463 340.849ZM247.471 236.836L230.539 226.191L230.975 225.498L231.466 224.843L247.471 236.836ZM253.55 228.712L269.567 240.69L269.567 240.69L253.55 228.712ZM409.624 61.5372L419.987 78.6425L409.624 61.5372ZM587.356 0.460015L588.647 20.4183L587.356 0.460015ZM719.696 42.6125V62.6125H712.062L706.37 57.5264L719.696 42.6125ZM722.2 42.6125V22.6125H742.2V42.6125H722.2ZM708.75 59.7048C708.686 59.6447 708.62 59.5832 708.553 59.5201L735.847 30.2797C735.933 30.3592 736.02 30.4405 736.108 30.5233L708.75 59.7048ZM705.29 34.7982L705.519 34.4355L739.34 55.7926L739.111 56.1553L705.29 34.7982ZM702.2 743.601V45.4767H742.2V743.601H702.2ZM702.2 1166.38V743.601H742.2V1166.38H702.2ZM1056.44 1081.21C930.042 1081.21 816.282 1120.17 734.281 1182.32L710.119 1150.44C799.663 1082.57 922.087 1041.21 1056.44 1041.21V1081.21ZM1511 1423.75C1511 1331.19 1461.94 1245.99 1379.86 1183.29C1297.77 1120.57 1183.49 1081.21 1056.44 1081.21V1041.21C1191.48 1041.21 1314.48 1083 1404.15 1151.5C1493.83 1220.02 1551 1316.09 1551 1423.75H1511ZM1056.44 1766.29C1183.49 1766.29 1297.77 1726.93 1379.86 1664.21C1461.94 1601.51 1511 1516.32 1511 1423.75H1551C1551 1531.41 1493.83 1627.49 1404.15 1696C1314.48 1764.5 1191.48 1806.29 1056.44 1806.29V1766.29ZM601.867 1423.75C601.867 1516.32 650.93 1601.51 733.006 1664.21C815.1 1726.93 929.383 1766.29 1056.44 1766.29V1806.29C921.391 1806.29 798.39 1764.5 708.724 1696C619.04 1627.49 561.867 1531.41 561.867 1423.75H601.867ZM602.03 1414.51C601.922 1417.58 601.867 1420.66 601.867 1423.75H561.867C561.867 1420.19 561.93 1416.64 562.055 1413.1L602.03 1414.51ZM567.502 267.482L602.033 1413.2L562.051 1414.41L527.52 268.687L567.502 267.482ZM523.876 199.222C541.174 203.678 552.959 213.498 559.639 227.7C565.453 240.062 566.7 254.552 567.472 266.829L527.551 269.339C526.742 256.477 525.589 249.289 523.442 244.723C522.159 241.997 520.423 239.638 513.897 237.957L523.876 199.222ZM435.232 199.314C467.01 190.518 502.798 193.792 523.876 199.222L513.897 237.957C497.639 233.769 469.218 231.411 445.903 237.865L435.232 199.314ZM428.811 201.067C430.972 200.481 433.094 199.906 435.232 199.314L445.903 237.865C443.647 238.489 441.423 239.092 439.278 239.673L428.811 201.067ZM346.704 245.356C376.673 215.136 403.207 208.009 428.811 201.067L439.278 239.674C415.196 246.202 397.329 251.113 375.107 273.522L346.704 245.356ZM311.071 292.347C320.377 277.827 330.911 261.282 346.704 245.356L375.107 273.522C362.691 286.042 354.216 299.158 344.748 313.931L311.071 292.347ZM218.75 368.004C247.971 357.837 266.072 346.068 279.023 333.953C292.221 321.606 300.919 308.186 311.071 292.347L344.748 313.931C334.808 329.439 323.686 346.945 306.349 363.163C288.766 379.613 265.62 394.048 231.896 405.783L218.75 368.004ZM179.624 373.66L222.295 367.124L228.351 406.663L185.681 413.199L179.624 373.66ZM154.566 373.43H182.652V413.43H154.566V373.43ZM128.639 373.43H154.566V413.43H128.639V373.43ZM101.995 371.83L129.812 373.464L127.466 413.395L99.6497 411.761L101.995 371.83ZM85.6813 369.06L104.044 372.057L97.6011 411.534L79.2384 408.538L85.6813 369.06ZM66.5392 365.351L86.2559 369.162L78.6638 408.435L58.9471 404.624L66.5392 365.351ZM54.9113 361.945L68.2426 365.758L57.2438 404.216L43.9125 400.404L54.9113 361.945ZM46.318 356.253L59.4531 363.878L39.3706 398.471L26.2355 390.846L46.318 356.253ZM13.1677 328.233L49.0865 358.19L23.4669 388.908L-12.4519 358.952L13.1677 328.233ZM43.1571 360.848C25.734 360.945 13.6309 361.114 4.73108 363.108L-4.01526 324.076C10.031 320.929 27.0675 320.937 42.9354 320.849L43.1571 360.848ZM264.403 247.481C229.714 302.657 189.506 331.569 149.3 346.228C109.806 360.627 71.6343 360.69 43.1571 360.848L42.9354 320.849C71.8708 320.689 103.459 320.365 135.598 308.648C167.024 297.19 200.323 274.254 230.539 226.191L264.403 247.481ZM269.567 240.69C267.499 243.455 265.466 246.173 263.477 248.828L231.466 224.843C233.442 222.205 235.464 219.502 237.533 216.734L269.567 240.69ZM419.987 78.6425C394.261 94.2297 367.198 120.341 340.851 150.46C314.683 180.374 290.305 212.958 269.567 240.69L237.533 216.735C258.144 189.174 283.409 155.373 310.745 124.124C337.901 93.08 368.201 63.2496 399.26 44.4318L419.987 78.6425ZM588.647 20.4183C536.484 23.7938 477.514 43.7884 419.987 78.6425L399.26 44.4318C460.985 7.03383 526.118 -15.619 586.064 -19.4982L588.647 20.4183ZM706.37 57.5264C678.522 32.644 638.123 17.2165 588.647 20.4183L586.064 -19.4982C645.564 -23.3486 696.681 -4.77162 733.021 27.6986L706.37 57.5264ZM722.2 62.6125H719.696V22.6125H722.2V62.6125ZM702.2 44.8999V42.6125H742.2V44.8999H702.2Z" fill="#F6FF73" mask="url(#path-1-inside-1_349_1003)"/>
<path d="M1222.09 1328.41C1222.09 1362.34 1230.09 1392.57 1242.51 1413.97C1255.07 1435.63 1270.94 1446.51 1286.39 1446.51C1301.85 1446.51 1317.72 1435.63 1330.28 1413.97C1342.7 1392.57 1350.7 1362.34 1350.7 1328.41C1350.7 1294.48 1342.7 1264.25 1330.28 1242.85C1317.72 1221.19 1301.85 1210.31 1286.39 1210.31C1270.94 1210.31 1255.07 1221.19 1242.51 1242.85C1230.09 1264.25 1222.09 1294.48 1222.09 1328.41Z" fill="white" stroke="black" stroke-width="20"/>
<mask id="path-4-inside-2_349_1003" fill="white">
<path fill-rule="evenodd" clip-rule="evenodd" d="M1320.82 1214.86C1319.57 1214.65 1318.31 1214.51 1317.04 1214.44C1301.33 1213.57 1286.02 1223.6 1274.17 1242.51C1262.33 1261.43 1254.84 1287.84 1253.19 1316.44L1315.16 1328.41L1254.02 1350.47C1257.06 1378.68 1265.82 1403.76 1278.54 1420.66C1290.77 1436.92 1305.81 1444.46 1320.83 1441.95C1344.53 1420.55 1360.7 1377.74 1360.7 1328.41C1360.7 1279.08 1344.52 1236.26 1320.82 1214.86Z"/>
</mask>
<path fill-rule="evenodd" clip-rule="evenodd" d="M1320.82 1214.86C1319.57 1214.65 1318.31 1214.51 1317.04 1214.44C1301.33 1213.57 1286.02 1223.6 1274.17 1242.51C1262.33 1261.43 1254.84 1287.84 1253.19 1316.44L1315.16 1328.41L1254.02 1350.47C1257.06 1378.68 1265.82 1403.76 1278.54 1420.66C1290.77 1436.92 1305.81 1444.46 1320.83 1441.95C1344.53 1420.55 1360.7 1377.74 1360.7 1328.41C1360.7 1279.08 1344.52 1236.26 1320.82 1214.86Z" fill="black"/>
<path d="M1320.82 1214.86L1320.98 1213.87L1321.27 1213.92L1321.49 1214.11L1320.82 1214.86ZM1317.04 1214.44L1316.98 1215.44L1317.04 1214.44ZM1274.17 1242.51L1273.33 1241.98L1274.17 1242.51ZM1253.19 1316.44L1253 1317.42L1252.14 1317.26L1252.19 1316.38L1253.19 1316.44ZM1315.16 1328.41L1315.35 1327.42L1318.92 1328.11L1315.5 1329.35L1315.16 1328.41ZM1254.02 1350.47L1253.03 1350.57L1252.94 1349.79L1253.68 1349.52L1254.02 1350.47ZM1278.54 1420.66L1279.34 1420.06L1278.54 1420.66ZM1320.83 1441.95L1321.5 1442.7L1321.28 1442.89L1320.99 1442.94L1320.83 1441.95ZM1320.65 1215.84C1319.44 1215.64 1318.21 1215.5 1316.98 1215.44L1317.1 1213.44C1318.4 1213.51 1319.69 1213.65 1320.98 1213.87L1320.65 1215.84ZM1316.98 1215.44C1301.78 1214.6 1286.76 1224.29 1275.02 1243.05L1273.33 1241.98C1285.27 1222.9 1300.88 1212.54 1317.1 1213.44L1316.98 1215.44ZM1275.02 1243.05C1263.29 1261.78 1255.83 1288.02 1254.19 1316.5L1252.19 1316.38C1253.85 1287.66 1261.37 1261.08 1273.33 1241.98L1275.02 1243.05ZM1253.38 1315.46L1315.35 1327.42L1314.97 1329.39L1253 1317.42L1253.38 1315.46ZM1315.5 1329.35L1254.36 1351.41L1253.68 1349.52L1314.82 1327.47L1315.5 1329.35ZM1255.01 1350.36C1258.04 1378.46 1266.76 1403.34 1279.34 1420.06L1277.74 1421.26C1264.88 1404.17 1256.08 1378.91 1253.03 1350.57L1255.01 1350.36ZM1279.34 1420.06C1291.43 1436.14 1306.13 1443.4 1320.66 1440.97L1320.99 1442.94C1305.48 1445.53 1290.11 1437.71 1277.74 1421.26L1279.34 1420.06ZM1320.16 1441.21C1343.57 1420.06 1359.7 1377.57 1359.7 1328.41H1361.7C1361.7 1377.9 1345.48 1421.04 1321.5 1442.7L1320.16 1441.21ZM1359.7 1328.41C1359.7 1279.24 1343.57 1236.74 1320.15 1215.6L1321.49 1214.11C1345.48 1235.77 1361.7 1278.91 1361.7 1328.41H1359.7Z" fill="black" mask="url(#path-4-inside-2_349_1003)"/>
<path d="M1018.37 1328.41C1018.37 1362.34 1026.36 1392.57 1038.78 1413.97C1051.34 1435.63 1067.21 1446.51 1082.67 1446.51C1098.12 1446.51 1113.99 1435.63 1126.56 1413.97C1138.97 1392.57 1146.97 1362.34 1146.97 1328.41C1146.97 1294.48 1138.97 1264.25 1126.56 1242.85C1113.99 1221.19 1098.12 1210.31 1082.67 1210.31C1067.21 1210.31 1051.34 1221.19 1038.78 1242.85C1026.36 1264.25 1018.37 1294.48 1018.37 1328.41Z" fill="white" stroke="black" stroke-width="20"/>
<mask id="path-7-inside-3_349_1003" fill="white">
<path fill-rule="evenodd" clip-rule="evenodd" d="M1117.09 1214.86C1115.84 1214.65 1114.58 1214.51 1113.31 1214.44C1097.6 1213.57 1082.29 1223.6 1070.45 1242.51C1058.61 1261.43 1051.11 1287.84 1049.46 1316.44L1111.43 1328.41L1050.29 1350.47C1053.33 1378.68 1062.09 1403.76 1074.81 1420.66C1087.05 1436.92 1102.08 1444.46 1117.1 1441.95C1140.8 1420.55 1156.97 1377.74 1156.97 1328.41C1156.97 1279.08 1140.8 1236.26 1117.09 1214.86Z"/>
</mask>
<path fill-rule="evenodd" clip-rule="evenodd" d="M1117.09 1214.86C1115.84 1214.65 1114.58 1214.51 1113.31 1214.44C1097.6 1213.57 1082.29 1223.6 1070.45 1242.51C1058.61 1261.43 1051.11 1287.84 1049.46 1316.44L1111.43 1328.41L1050.29 1350.47C1053.33 1378.68 1062.09 1403.76 1074.81 1420.66C1087.05 1436.92 1102.08 1444.46 1117.1 1441.95C1140.8 1420.55 1156.97 1377.74 1156.97 1328.41C1156.97 1279.08 1140.8 1236.26 1117.09 1214.86Z" fill="black"/>
<path d="M1117.09 1214.86L1117.26 1213.87L1117.55 1213.92L1117.76 1214.11L1117.09 1214.86ZM1113.31 1214.44L1113.37 1213.44L1113.31 1214.44ZM1070.45 1242.51L1069.6 1241.98L1070.45 1242.51ZM1049.46 1316.44L1049.27 1317.42L1048.41 1317.26L1048.46 1316.38L1049.46 1316.44ZM1111.43 1328.41L1111.62 1327.42L1115.19 1328.11L1111.77 1329.35L1111.43 1328.41ZM1050.29 1350.47L1049.3 1350.57L1049.22 1349.79L1049.95 1349.52L1050.29 1350.47ZM1074.81 1420.66L1074.01 1421.26L1074.81 1420.66ZM1117.1 1441.95L1117.77 1442.7L1117.55 1442.89L1117.26 1442.94L1117.1 1441.95ZM1116.93 1215.84C1115.71 1215.64 1114.49 1215.5 1113.26 1215.44L1113.37 1213.44C1114.67 1213.51 1115.97 1213.65 1117.26 1213.87L1116.93 1215.84ZM1113.26 1215.44C1098.05 1214.6 1083.03 1224.29 1071.3 1243.05L1069.6 1241.98C1081.54 1222.9 1097.15 1212.54 1113.37 1213.44L1113.26 1215.44ZM1071.3 1243.05C1059.57 1261.78 1052.1 1288.02 1050.46 1316.5L1048.46 1316.38C1050.12 1287.66 1057.65 1261.08 1069.6 1241.98L1071.3 1243.05ZM1049.65 1315.46L1111.62 1327.42L1111.24 1329.39L1049.27 1317.42L1049.65 1315.46ZM1111.77 1329.35L1050.63 1351.41L1049.95 1349.52L1111.09 1327.47L1111.77 1329.35ZM1051.29 1350.36C1054.32 1378.46 1063.03 1403.34 1075.61 1420.06L1074.01 1421.26C1061.15 1404.17 1052.35 1378.91 1049.3 1350.57L1051.29 1350.36ZM1075.61 1420.06C1087.71 1436.14 1102.41 1443.4 1116.93 1440.97L1117.26 1442.94C1101.75 1445.53 1086.39 1437.71 1074.01 1421.26L1075.61 1420.06ZM1116.43 1441.21C1139.85 1420.06 1155.97 1377.57 1155.97 1328.41H1157.97C1157.97 1377.9 1141.75 1421.04 1117.77 1442.7L1116.43 1441.21ZM1155.97 1328.41C1155.97 1279.24 1139.84 1236.74 1116.42 1215.6L1117.76 1214.11C1141.75 1235.77 1157.97 1278.91 1157.97 1328.41H1155.97Z" fill="black" mask="url(#path-7-inside-3_349_1003)"/>
<ellipse cx="978.408" cy="1485.51" rx="61.1187" ry="26.5863" fill="#F7C1B8"/>
<ellipse cx="1397.85" cy="1485.51" rx="61.1187" ry="26.5863" fill="#F7C1B8"/>
<ellipse cx="1210.9" cy="1527.8" rx="39.5474" ry="85.8014" fill="#E44E30"/>
<path d="M722.3 1260.67C722.3 1267.28 716.989 1272.63 710.447 1272.63C703.905 1272.63 698.594 1267.28 698.594 1260.67C698.594 1254.06 703.905 1248.71 710.447 1248.71C716.989 1248.71 722.3 1254.06 722.3 1260.67Z" fill="white" stroke="#FFBD2E"/>
<mask id="path-13-inside-4_349_1003" fill="white">
<path fill-rule="evenodd" clip-rule="evenodd" d="M970.007 1128.14C967.867 1126.72 965.189 1126.24 962.56 1126.81L962.568 1126.86C915.187 1125.67 869.653 1133.09 829.018 1148.63C788.311 1164.19 753.465 1187.54 726.823 1217.11L726.967 1217.2C725.733 1219.96 725.497 1223.12 726.317 1226.06C727.186 1229.17 729.171 1231.79 731.834 1233.33C734.496 1234.87 737.62 1235.21 740.516 1234.28C742.993 1233.48 745.131 1231.8 746.594 1229.54C771.321 1202.36 803.534 1180.87 841.108 1166.5C878.971 1152.02 921.4 1145.11 965.549 1146.23L965.553 1146.26C965.588 1146.25 965.623 1146.24 965.658 1146.24C965.681 1146.24 965.704 1146.24 965.727 1146.24L965.724 1146.22C968.284 1145.62 970.579 1144.07 972.123 1141.89C973.701 1139.66 974.365 1136.96 973.968 1134.38C973.571 1131.8 972.146 1129.56 970.007 1128.14Z"/>
</mask>
<path fill-rule="evenodd" clip-rule="evenodd" d="M970.007 1128.14C967.867 1126.72 965.189 1126.24 962.56 1126.81L962.568 1126.86C915.187 1125.67 869.653 1133.09 829.018 1148.63C788.311 1164.19 753.465 1187.54 726.823 1217.11L726.967 1217.2C725.733 1219.96 725.497 1223.12 726.317 1226.06C727.186 1229.17 729.171 1231.79 731.834 1233.33C734.496 1234.87 737.62 1235.21 740.516 1234.28C742.993 1233.48 745.131 1231.8 746.594 1229.54C771.321 1202.36 803.534 1180.87 841.108 1166.5C878.971 1152.02 921.4 1145.11 965.549 1146.23L965.553 1146.26C965.588 1146.25 965.623 1146.24 965.658 1146.24C965.681 1146.24 965.704 1146.24 965.727 1146.24L965.724 1146.22C968.284 1145.62 970.579 1144.07 972.123 1141.89C973.701 1139.66 974.365 1136.96 973.968 1134.38C973.571 1131.8 972.146 1129.56 970.007 1128.14Z" fill="white"/>
<path d="M962.56 1126.81L962.348 1125.84L961.428 1126.04L961.572 1126.97L962.56 1126.81ZM970.007 1128.14L969.454 1128.97V1128.97L970.007 1128.14ZM962.568 1126.86L962.542 1127.86L963.738 1127.89L963.556 1126.71L962.568 1126.86ZM829.018 1148.63L828.661 1147.69L829.018 1148.63ZM726.823 1217.11L726.08 1216.44L725.318 1217.28L726.255 1217.93L726.823 1217.11ZM726.967 1217.2L727.879 1217.61L728.22 1216.85L727.535 1216.38L726.967 1217.2ZM726.317 1226.06L727.28 1225.79L726.317 1226.06ZM731.834 1233.33L732.335 1232.46H732.335L731.834 1233.33ZM740.516 1234.28L740.823 1235.23H740.823L740.516 1234.28ZM746.594 1229.54L745.855 1228.87L745.8 1228.93L745.755 1229L746.594 1229.54ZM841.108 1166.5L840.751 1165.57L841.108 1166.5ZM965.549 1146.23L966.538 1146.08L966.41 1145.25L965.575 1145.23L965.549 1146.23ZM965.553 1146.26L964.565 1146.41L964.727 1147.46L965.766 1147.24L965.553 1146.26ZM965.658 1146.24L965.684 1145.24L965.558 1145.23L965.436 1145.26L965.658 1146.24ZM965.727 1146.24L965.701 1147.24L966.893 1147.27L966.716 1146.09L965.727 1146.24ZM965.724 1146.22L965.495 1145.25L964.598 1145.46L964.735 1146.37L965.724 1146.22ZM972.123 1141.89L972.939 1142.47V1142.47L972.123 1141.89ZM973.968 1134.38L974.956 1134.23V1134.23L973.968 1134.38ZM962.772 1127.79C965.151 1127.27 967.551 1127.71 969.454 1128.97L970.559 1127.31C968.183 1125.73 965.226 1125.21 962.348 1125.84L962.772 1127.79ZM963.556 1126.71L963.548 1126.66L961.572 1126.97L961.579 1127.02L963.556 1126.71ZM829.375 1149.56C869.878 1134.07 915.281 1126.67 962.542 1127.86L962.593 1125.86C915.094 1124.67 869.429 1132.1 828.661 1147.69L829.375 1149.56ZM727.566 1217.78C754.092 1188.34 788.802 1165.07 829.375 1149.56L828.661 1147.69C787.821 1163.31 752.838 1186.74 726.08 1216.44L727.566 1217.78ZM727.535 1216.38L727.391 1216.28L726.255 1217.93L726.399 1218.03L727.535 1216.38ZM727.28 1225.79C726.522 1223.07 726.742 1220.15 727.879 1217.61L726.054 1216.8C724.724 1219.76 724.471 1223.16 725.354 1226.32L727.28 1225.79ZM732.335 1232.46C729.91 1231.06 728.083 1228.67 727.28 1225.79L725.354 1226.32C726.289 1229.68 728.431 1232.52 731.332 1234.2L732.335 1232.46ZM740.209 1233.33C737.585 1234.17 734.756 1233.87 732.335 1232.46L731.332 1234.2C734.237 1235.88 737.654 1236.25 740.823 1235.23L740.209 1233.33ZM745.755 1229C744.41 1231.08 742.455 1232.6 740.209 1233.33L740.823 1235.23C743.531 1234.36 745.851 1232.53 747.434 1230.09L745.755 1229ZM840.751 1165.57C803.045 1179.98 770.697 1201.56 745.855 1228.87L747.334 1230.22C771.946 1203.15 804.024 1181.75 841.465 1167.43L840.751 1165.57ZM965.575 1145.23C921.307 1144.11 878.746 1151.04 840.751 1165.57L841.465 1167.43C879.196 1153.01 921.494 1146.12 965.524 1147.23L965.575 1145.23ZM966.542 1146.11L966.538 1146.08L964.561 1146.39L964.565 1146.41L966.542 1146.11ZM965.436 1145.26C965.404 1145.27 965.372 1145.27 965.341 1145.28L965.766 1147.24C965.804 1147.23 965.842 1147.22 965.88 1147.21L965.436 1145.26ZM965.753 1145.24C965.73 1145.24 965.707 1145.24 965.684 1145.24L965.632 1147.24C965.655 1147.24 965.678 1147.24 965.701 1147.24L965.753 1145.24ZM964.735 1146.37L964.738 1146.39L966.716 1146.09L966.713 1146.07L964.735 1146.37ZM971.307 1141.31C969.902 1143.29 967.815 1144.7 965.495 1145.25L965.953 1147.19C968.754 1146.54 971.256 1144.84 972.939 1142.47L971.307 1141.31ZM972.98 1134.53C973.335 1136.84 972.743 1139.28 971.307 1141.31L972.939 1142.47C974.66 1140.04 975.395 1137.08 974.956 1134.23L972.98 1134.53ZM969.454 1128.97C971.354 1130.23 972.625 1132.23 972.98 1134.53L974.956 1134.23C974.517 1131.38 972.938 1128.88 970.559 1127.31L969.454 1128.97Z" fill="#FFBD2E" mask="url(#path-13-inside-4_349_1003)"/>
</svg>
