<svg width="1531" height="1787" viewBox="0 0 1531 1787" fill="none" xmlns="http://www.w3.org/2000/svg">
<mask id="path-1-inside-1_351_2926" fill="white">
<path fill-rule="evenodd" clip-rule="evenodd" d="M721.845 45.4103C721.92 45.4808 721.996 45.5513 722.071 45.6219L721.845 45.9801V744.107V1166.89C807.617 1101.88 925.709 1061.72 1056.08 1061.72C1318.18 1061.72 1530.65 1224.03 1530.65 1424.26C1530.65 1624.48 1318.18 1786.8 1056.08 1786.8C793.983 1786.8 581.512 1624.48 581.512 1424.26C581.512 1420.93 581.57 1417.62 581.687 1414.31L547.159 268.679C545.58 243.496 542.379 225.242 518.528 219.097C499.86 214.288 467.756 211.472 440.209 219.097C438.012 219.705 435.839 220.294 433.686 220.878C408.844 227.613 386.643 233.632 360.547 259.947C346.443 274.17 336.938 289 327.551 303.647C307.46 334.994 287.909 365.499 224.965 387.401L182.294 393.937H154.207H128.281L100.464 392.303L82.1016 389.307L62.3849 385.495L49.0536 381.682L35.9185 374.057L-0.000366211 344.1C11.4727 341.529 26.0425 341.449 42.688 341.356C100.101 341.038 182.208 340.583 247.113 237.344C249.096 234.697 251.123 231.986 253.192 229.22C294.54 173.928 352.48 96.4499 409.265 62.045C468.891 25.9189 530.943 4.59525 586.997 0.967827C641.485 -2.55818 687.242 14.4434 719.336 43.1189H721.845V45.4103Z"/>
</mask>
<path fill-rule="evenodd" clip-rule="evenodd" d="M721.845 45.4103C721.92 45.4808 721.996 45.5513 722.071 45.6219L721.845 45.9801V744.107V1166.89C807.617 1101.88 925.709 1061.72 1056.08 1061.72C1318.18 1061.72 1530.65 1224.03 1530.65 1424.26C1530.65 1624.48 1318.18 1786.8 1056.08 1786.8C793.983 1786.8 581.512 1624.48 581.512 1424.26C581.512 1420.93 581.57 1417.62 581.687 1414.31L547.159 268.679C545.58 243.496 542.379 225.242 518.528 219.097C499.86 214.288 467.756 211.472 440.209 219.097C438.012 219.705 435.839 220.294 433.686 220.878C408.844 227.613 386.643 233.632 360.547 259.947C346.443 274.17 336.938 289 327.551 303.647C307.46 334.994 287.909 365.499 224.965 387.401L182.294 393.937H154.207H128.281L100.464 392.303L82.1016 389.307L62.3849 385.495L49.0536 381.682L35.9185 374.057L-0.000366211 344.1C11.4727 341.529 26.0425 341.449 42.688 341.356C100.101 341.038 182.208 340.583 247.113 237.344C249.096 234.697 251.123 231.986 253.192 229.22C294.54 173.928 352.48 96.4499 409.265 62.045C468.891 25.9189 530.943 4.59525 586.997 0.967827C641.485 -2.55818 687.242 14.4434 719.336 43.1189H721.845V45.4103Z" fill="#FFCC74"/>
<path d="M722.071 45.6219L735.748 31.0297L747.804 42.3294L738.981 56.3005L722.071 45.6219ZM721.845 45.4103L708.199 60.032L701.845 54.1018V45.4103H721.845ZM721.845 45.9801H701.845V40.1939L704.934 35.3015L721.845 45.9801ZM721.845 1166.89L733.925 1182.83L701.845 1207.14V1166.89H721.845ZM581.687 1414.31L601.678 1413.71L601.697 1414.36L601.674 1415.01L581.687 1414.31ZM547.159 268.679L567.119 267.428L567.14 267.752L567.149 268.077L547.159 268.679ZM518.528 219.097L513.539 238.465L518.528 219.097ZM440.209 219.097L434.873 199.822L434.873 199.822L440.209 219.097ZM433.686 220.878L428.453 201.575L428.453 201.575L433.686 220.878ZM360.547 259.947L374.749 274.03V274.03L360.547 259.947ZM327.551 303.647L344.389 314.439V314.439L327.551 303.647ZM224.965 387.401L231.537 406.29L229.805 406.893L227.993 407.171L224.965 387.401ZM182.294 393.937L185.322 413.707L183.817 413.937H182.294V393.937ZM128.281 393.937V413.937H127.694L127.108 413.903L128.281 393.937ZM100.464 392.303L99.2914 412.269L98.2612 412.208L97.2428 412.042L100.464 392.303ZM82.1016 389.307L78.8801 409.045L78.592 408.998L78.3055 408.943L82.1016 389.307ZM62.3849 385.495L58.5889 405.131L57.7283 404.965L56.8855 404.724L62.3849 385.495ZM49.0536 381.682L43.5542 400.911L41.1631 400.228L39.0123 398.979L49.0536 381.682ZM35.9185 374.057L25.8772 391.354L24.4108 390.502L23.1086 389.416L35.9185 374.057ZM-0.000366211 344.1L-12.8102 359.46L-43.9841 333.46L-4.37354 324.584L-0.000366211 344.1ZM42.688 341.356L42.7988 361.356L42.688 341.356ZM247.113 237.344L230.181 226.699L230.617 226.006L231.107 225.351L247.113 237.344ZM253.192 229.22L269.208 241.198L269.208 241.198L253.192 229.22ZM409.265 62.045L419.629 79.1504L409.265 62.045ZM586.997 0.967827L585.706 -18.9904L586.997 0.967827ZM719.336 43.1189V63.1189H711.702L706.01 58.033L719.336 43.1189ZM721.845 43.1189V23.1189H741.845V43.1189H721.845ZM708.394 60.2141C708.327 60.1515 708.262 60.091 708.199 60.032L735.49 30.7886C735.578 30.8705 735.664 30.951 735.748 31.0297L708.394 60.2141ZM704.934 35.3015L705.16 34.9433L738.981 56.3005L738.755 56.6587L704.934 35.3015ZM701.845 744.107V45.9801H741.845V744.107H701.845ZM701.845 1166.89V744.107H741.845V1166.89H701.845ZM1056.08 1081.72C929.687 1081.72 815.927 1120.67 733.925 1182.83L709.764 1150.95C799.307 1083.08 921.732 1041.72 1056.08 1041.72V1081.72ZM1510.65 1424.26C1510.65 1331.69 1461.59 1246.5 1379.51 1183.8C1297.42 1121.08 1183.13 1081.72 1056.08 1081.72V1041.72C1191.12 1041.72 1314.13 1083.51 1403.79 1152.01C1493.48 1220.52 1550.65 1316.6 1550.65 1424.26H1510.65ZM1056.08 1766.8C1183.13 1766.8 1297.42 1727.43 1379.51 1664.72C1461.59 1602.02 1510.65 1516.82 1510.65 1424.26H1550.65C1550.65 1531.92 1493.48 1627.99 1403.79 1696.51C1314.13 1765.01 1191.12 1806.8 1056.08 1806.8V1766.8ZM601.512 1424.26C601.512 1516.82 650.575 1602.02 732.651 1664.72C814.745 1727.43 929.028 1766.8 1056.08 1766.8V1806.8C921.036 1806.8 798.034 1765.01 708.368 1696.51C618.684 1627.99 561.512 1531.92 561.512 1424.26H601.512ZM601.674 1415.01C601.566 1418.09 601.512 1421.17 601.512 1424.26H561.512C561.512 1420.7 561.574 1417.14 561.699 1413.6L601.674 1415.01ZM567.149 268.077L601.678 1413.71L561.696 1414.91L527.168 269.282L567.149 268.077ZM523.518 199.73C540.839 204.192 552.628 214.031 559.302 228.253C565.109 240.628 566.349 255.137 567.119 267.428L527.198 269.93C526.39 257.038 525.241 249.828 523.09 245.245C521.806 242.507 520.069 240.147 513.539 238.465L523.518 199.73ZM434.873 199.822C466.652 191.025 502.439 194.299 523.518 199.73L513.539 238.465C497.281 234.277 468.86 231.918 445.545 238.372L434.873 199.822ZM428.453 201.575C430.614 200.989 432.736 200.414 434.873 199.822L445.545 238.372C443.288 238.997 441.065 239.6 438.919 240.181L428.453 201.575ZM346.346 245.864C376.314 215.644 402.849 208.517 428.453 201.575L438.92 240.181C414.838 246.71 396.971 251.621 374.749 274.03L346.346 245.864ZM310.712 292.855C320.019 278.335 330.553 261.79 346.346 245.864L374.749 274.03C362.333 286.55 353.857 299.666 344.389 314.439L310.712 292.855ZM218.392 368.512C247.612 358.345 265.714 346.576 278.665 334.461C291.862 322.114 300.561 308.694 310.712 292.855L344.389 314.439C334.45 329.947 323.328 347.453 305.991 363.671C288.407 380.121 265.261 394.556 231.537 406.29L218.392 368.512ZM179.266 374.168L221.936 367.632L227.993 407.171L185.322 413.707L179.266 374.168ZM154.207 373.937H182.294V413.937H154.207V373.937ZM128.281 373.937H154.207V413.937H128.281V373.937ZM101.637 372.338L129.454 373.972L127.108 413.903L99.2914 412.269L101.637 372.338ZM85.323 369.568L103.686 372.565L97.2428 412.042L78.8801 409.045L85.323 369.568ZM66.1809 365.859L85.8976 369.67L78.3055 408.943L58.5889 405.131L66.1809 365.859ZM54.553 362.453L67.8843 366.266L56.8855 404.724L43.5542 400.911L54.553 362.453ZM45.9597 356.76L59.0948 364.386L39.0123 398.979L25.8772 391.354L45.9597 356.76ZM12.8094 328.741L48.7283 358.698L23.1086 389.416L-12.8102 359.46L12.8094 328.741ZM42.7988 361.356C25.3757 361.453 13.2726 361.622 4.3728 363.616L-4.37354 324.584C9.67273 321.437 26.7092 321.445 42.5771 321.357L42.7988 361.356ZM264.045 247.988C229.356 303.165 189.148 332.077 148.941 346.736C109.448 361.135 71.276 361.198 42.7988 361.356L42.5771 321.357C71.5126 321.196 103.101 320.873 135.24 309.156C166.666 297.698 199.964 274.762 230.181 226.699L264.045 247.988ZM269.208 241.198C267.141 243.962 265.108 246.68 263.118 249.336L231.107 225.351C233.084 222.713 235.105 220.01 237.175 217.242L269.208 241.198ZM419.629 79.1504C393.902 94.7375 366.84 120.849 340.493 150.968C314.325 180.882 289.946 213.466 269.208 241.198L237.175 217.242C257.785 189.682 283.051 155.881 310.386 124.632C337.542 93.5878 367.843 63.7574 398.901 44.9396L419.629 79.1504ZM588.289 20.9261C536.126 24.3016 477.156 44.2962 419.629 79.1504L398.901 44.9396C460.627 7.54165 525.759 -15.1112 585.706 -18.9904L588.289 20.9261ZM706.01 58.033C678.162 33.1513 637.764 17.7244 588.289 20.9261L585.706 -18.9904C645.205 -22.8408 696.321 -4.26441 732.661 28.2048L706.01 58.033ZM721.845 63.1189H719.336V23.1189H721.845V63.1189ZM701.845 45.4103V43.1189H741.845V45.4103H701.845Z" fill="#FFBE4F" mask="url(#path-1-inside-1_351_2926)"/>
<path d="M1221.73 1328.92C1221.73 1362.85 1229.73 1393.08 1242.15 1414.48C1254.71 1436.14 1270.58 1447.01 1286.03 1447.01C1301.49 1447.01 1317.36 1436.14 1329.92 1414.48C1342.34 1393.08 1350.34 1362.85 1350.34 1328.92C1350.34 1294.99 1342.34 1264.76 1329.92 1243.35C1317.36 1221.7 1301.49 1210.82 1286.03 1210.82C1270.58 1210.82 1254.71 1221.7 1242.15 1243.35C1229.73 1264.76 1221.73 1294.99 1221.73 1328.92Z" fill="white" stroke="black" stroke-width="20"/>
<mask id="path-4-inside-2_351_2926" fill="white">
<path fill-rule="evenodd" clip-rule="evenodd" d="M1320.46 1215.36C1319.21 1215.16 1317.95 1215.02 1316.68 1214.95C1300.97 1214.08 1285.66 1224.11 1273.82 1243.02C1261.98 1261.94 1254.48 1288.35 1252.83 1316.95L1314.8 1328.91L1253.66 1350.97C1256.71 1379.19 1265.46 1404.27 1278.18 1421.17C1290.42 1437.43 1305.45 1444.97 1320.47 1442.46C1344.17 1421.06 1360.34 1378.24 1360.34 1328.92C1360.34 1279.59 1344.17 1236.77 1320.46 1215.36Z"/>
</mask>
<path fill-rule="evenodd" clip-rule="evenodd" d="M1320.46 1215.36C1319.21 1215.16 1317.95 1215.02 1316.68 1214.95C1300.97 1214.08 1285.66 1224.11 1273.82 1243.02C1261.98 1261.94 1254.48 1288.35 1252.83 1316.95L1314.8 1328.91L1253.66 1350.97C1256.71 1379.19 1265.46 1404.27 1278.18 1421.17C1290.42 1437.43 1305.45 1444.97 1320.47 1442.46C1344.17 1421.06 1360.34 1378.24 1360.34 1328.92C1360.34 1279.59 1344.17 1236.77 1320.46 1215.36Z" fill="black"/>
<path d="M1320.46 1215.36L1320.63 1214.38L1320.92 1214.43L1321.13 1214.62L1320.46 1215.36ZM1316.68 1214.95L1316.74 1213.95L1316.68 1214.95ZM1273.82 1243.02L1272.97 1242.49L1273.82 1243.02ZM1252.83 1316.95L1252.64 1317.93L1251.78 1317.77L1251.83 1316.89L1252.83 1316.95ZM1314.8 1328.91L1314.99 1327.93L1318.56 1328.62L1315.14 1329.86L1314.8 1328.91ZM1253.66 1350.97L1252.67 1351.08L1252.59 1350.3L1253.33 1350.03L1253.66 1350.97ZM1278.18 1421.17L1277.38 1421.77L1278.18 1421.17ZM1320.47 1442.46L1321.14 1443.21L1320.92 1443.4L1320.64 1443.45L1320.47 1442.46ZM1320.3 1216.35C1319.08 1216.15 1317.86 1216.01 1316.63 1215.94L1316.74 1213.95C1318.04 1214.02 1319.34 1214.16 1320.63 1214.38L1320.3 1216.35ZM1316.63 1215.94C1301.42 1215.1 1286.41 1224.8 1274.67 1243.55L1272.97 1242.49C1284.92 1223.41 1300.52 1213.05 1316.74 1213.95L1316.63 1215.94ZM1274.67 1243.55C1262.94 1262.29 1255.47 1288.53 1253.83 1317.01L1251.83 1316.89C1253.49 1288.17 1261.02 1261.59 1272.97 1242.49L1274.67 1243.55ZM1253.02 1315.97L1314.99 1327.93L1314.61 1329.9L1252.64 1317.93L1253.02 1315.97ZM1315.14 1329.86L1254 1351.91L1253.33 1350.03L1314.47 1327.97L1315.14 1329.86ZM1254.66 1350.87C1257.69 1378.97 1266.4 1403.85 1278.98 1420.57L1277.38 1421.77C1264.53 1404.68 1255.72 1379.42 1252.67 1351.08L1254.66 1350.87ZM1278.98 1420.57C1291.08 1436.65 1305.78 1443.9 1320.31 1441.48L1320.64 1443.45C1305.12 1446.04 1289.76 1438.21 1277.38 1421.77L1278.98 1420.57ZM1319.8 1441.72C1343.22 1420.57 1359.34 1378.08 1359.34 1328.92H1361.34C1361.34 1378.41 1345.13 1421.55 1321.14 1443.21L1319.8 1441.72ZM1359.34 1328.92C1359.34 1279.75 1343.22 1237.25 1319.79 1216.11L1321.13 1214.62C1345.12 1236.28 1361.34 1279.42 1361.34 1328.92H1359.34Z" fill="black" mask="url(#path-4-inside-2_351_2926)"/>
<path d="M1018.01 1328.92C1018.01 1362.85 1026.01 1393.08 1038.42 1414.48C1050.98 1436.14 1066.85 1447.01 1082.31 1447.01C1097.76 1447.01 1113.63 1436.14 1126.2 1414.48C1138.61 1393.08 1146.61 1362.85 1146.61 1328.92C1146.61 1294.99 1138.61 1264.76 1126.2 1243.35C1113.63 1221.7 1097.76 1210.82 1082.31 1210.82C1066.85 1210.82 1050.98 1221.7 1038.42 1243.35C1026.01 1264.76 1018.01 1294.99 1018.01 1328.92Z" fill="white" stroke="black" stroke-width="20"/>
<mask id="path-7-inside-3_351_2926" fill="white">
<path fill-rule="evenodd" clip-rule="evenodd" d="M1116.74 1215.36C1115.48 1215.16 1114.22 1215.02 1112.96 1214.95C1097.25 1214.08 1081.93 1224.11 1070.09 1243.02C1058.25 1261.94 1050.75 1288.35 1049.1 1316.95L1111.08 1328.91L1049.94 1350.97C1052.98 1379.19 1061.74 1404.27 1074.46 1421.17C1086.69 1437.43 1101.72 1444.97 1116.74 1442.46C1140.45 1421.06 1156.62 1378.24 1156.62 1328.92C1156.62 1279.59 1140.44 1236.77 1116.74 1215.36Z"/>
</mask>
<path fill-rule="evenodd" clip-rule="evenodd" d="M1116.74 1215.36C1115.48 1215.16 1114.22 1215.02 1112.96 1214.95C1097.25 1214.08 1081.93 1224.11 1070.09 1243.02C1058.25 1261.94 1050.75 1288.35 1049.1 1316.95L1111.08 1328.91L1049.94 1350.97C1052.98 1379.19 1061.74 1404.27 1074.46 1421.17C1086.69 1437.43 1101.72 1444.97 1116.74 1442.46C1140.45 1421.06 1156.62 1378.24 1156.62 1328.92C1156.62 1279.59 1140.44 1236.77 1116.74 1215.36Z" fill="black"/>
<path d="M1116.74 1215.36L1116.9 1214.38L1117.19 1214.43L1117.41 1214.62L1116.74 1215.36ZM1112.96 1214.95L1113.01 1213.95L1112.96 1214.95ZM1070.09 1243.02L1069.25 1242.49L1070.09 1243.02ZM1049.1 1316.95L1048.92 1317.93L1048.06 1317.77L1048.11 1316.89L1049.1 1316.95ZM1111.08 1328.91L1111.27 1327.93L1114.84 1328.62L1111.42 1329.86L1111.08 1328.91ZM1049.94 1350.97L1048.94 1351.08L1048.86 1350.3L1049.6 1350.03L1049.94 1350.97ZM1074.46 1421.17L1073.66 1421.77L1074.46 1421.17ZM1116.74 1442.46L1117.41 1443.21L1117.2 1443.4L1116.91 1443.45L1116.74 1442.46ZM1116.57 1216.35C1115.35 1216.15 1114.13 1216.01 1112.9 1215.94L1113.01 1213.95C1114.32 1214.02 1115.61 1214.16 1116.9 1214.38L1116.57 1216.35ZM1112.9 1215.94C1097.7 1215.1 1082.68 1224.8 1070.94 1243.55L1069.25 1242.49C1081.19 1223.41 1096.79 1213.05 1113.01 1213.95L1112.9 1215.94ZM1070.94 1243.55C1059.21 1262.29 1051.75 1288.53 1050.1 1317.01L1048.11 1316.89C1049.76 1288.17 1057.29 1261.59 1069.25 1242.49L1070.94 1243.55ZM1049.29 1315.97L1111.27 1327.93L1110.89 1329.9L1048.92 1317.93L1049.29 1315.97ZM1111.42 1329.86L1050.28 1351.91L1049.6 1350.03L1110.74 1327.97L1111.42 1329.86ZM1050.93 1350.87C1053.96 1378.97 1062.68 1403.85 1075.25 1420.57L1073.66 1421.77C1060.8 1404.68 1052 1379.42 1048.94 1351.08L1050.93 1350.87ZM1075.25 1420.57C1087.35 1436.65 1102.05 1443.9 1116.58 1441.48L1116.91 1443.45C1101.4 1446.04 1086.03 1438.21 1073.66 1421.77L1075.25 1420.57ZM1116.07 1441.72C1139.49 1420.57 1155.62 1378.08 1155.62 1328.92H1157.62C1157.62 1378.41 1141.4 1421.55 1117.41 1443.21L1116.07 1441.72ZM1155.62 1328.92C1155.62 1279.75 1139.49 1237.25 1116.07 1216.11L1117.41 1214.62C1141.4 1236.28 1157.62 1279.42 1157.62 1328.92H1155.62Z" fill="black" mask="url(#path-7-inside-3_351_2926)"/>
<ellipse cx="978.048" cy="1486.01" rx="61.1187" ry="26.5863" fill="#F7C1B8"/>
<ellipse cx="1397.49" cy="1486.01" rx="61.1187" ry="26.5863" fill="#F7C1B8"/>
<ellipse cx="1210.53" cy="1528.31" rx="39.5474" ry="85.8014" fill="#E44E30"/>
<path d="M721.941 1261.18C721.941 1267.78 716.63 1273.13 710.088 1273.13C703.545 1273.13 698.234 1267.78 698.234 1261.18C698.234 1254.57 703.545 1249.22 710.088 1249.22C716.63 1249.22 721.941 1254.57 721.941 1261.18Z" fill="white" stroke="#FFBD2E"/>
<mask id="path-13-inside-4_351_2926" fill="white">
<path fill-rule="evenodd" clip-rule="evenodd" d="M969.647 1128.65C967.508 1127.23 964.829 1126.75 962.201 1127.32L962.208 1127.37C914.828 1126.18 869.294 1133.6 828.659 1149.13C787.952 1164.7 753.105 1188.05 726.464 1217.61L726.607 1217.71C725.374 1220.47 725.137 1223.62 725.958 1226.56C726.827 1229.68 728.811 1232.3 731.474 1233.84C734.137 1235.38 737.26 1235.72 740.157 1234.79C742.634 1233.99 744.771 1232.31 746.235 1230.05C770.962 1202.86 803.175 1181.38 840.749 1167.01C878.612 1152.53 921.041 1145.62 965.19 1146.74L965.194 1146.77C965.229 1146.76 965.264 1146.75 965.299 1146.74C965.322 1146.74 965.344 1146.75 965.367 1146.75L965.365 1146.73C967.925 1146.13 970.22 1144.58 971.764 1142.4C973.342 1140.17 974.005 1137.47 973.609 1134.89C973.212 1132.31 971.787 1130.07 969.647 1128.65Z"/>
</mask>
<path fill-rule="evenodd" clip-rule="evenodd" d="M969.647 1128.65C967.508 1127.23 964.829 1126.75 962.201 1127.32L962.208 1127.37C914.828 1126.18 869.294 1133.6 828.659 1149.13C787.952 1164.7 753.105 1188.05 726.464 1217.61L726.607 1217.71C725.374 1220.47 725.137 1223.62 725.958 1226.56C726.827 1229.68 728.811 1232.3 731.474 1233.84C734.137 1235.38 737.26 1235.72 740.157 1234.79C742.634 1233.99 744.771 1232.31 746.235 1230.05C770.962 1202.86 803.175 1181.38 840.749 1167.01C878.612 1152.53 921.041 1145.62 965.19 1146.74L965.194 1146.77C965.229 1146.76 965.264 1146.75 965.299 1146.74C965.322 1146.74 965.344 1146.75 965.367 1146.75L965.365 1146.73C967.925 1146.13 970.22 1144.58 971.764 1142.4C973.342 1140.17 974.005 1137.47 973.609 1134.89C973.212 1132.31 971.787 1130.07 969.647 1128.65Z" fill="white"/>
<path d="M962.201 1127.32L961.988 1126.35L961.069 1126.55L961.212 1127.47L962.201 1127.32ZM969.647 1128.65L969.094 1129.48V1129.48L969.647 1128.65ZM962.208 1127.37L962.183 1128.37L963.379 1128.4L963.197 1127.22L962.208 1127.37ZM828.659 1149.13L828.301 1148.2L828.659 1149.13ZM726.464 1217.61L725.721 1216.95L724.958 1217.79L725.896 1218.44L726.464 1217.61ZM726.607 1217.71L727.52 1218.12L727.86 1217.36L727.175 1216.89L726.607 1217.71ZM725.958 1226.56L726.921 1226.3L725.958 1226.56ZM731.474 1233.84L731.975 1232.97H731.975L731.474 1233.84ZM740.157 1234.79L740.464 1235.74H740.464L740.157 1234.79ZM746.235 1230.05L745.495 1229.38L745.44 1229.44L745.396 1229.51L746.235 1230.05ZM840.749 1167.01L840.392 1166.07L840.749 1167.01ZM965.19 1146.74L966.178 1146.59L966.051 1145.76L965.215 1145.74L965.19 1146.74ZM965.194 1146.77L964.206 1146.92L964.368 1147.97L965.406 1147.74L965.194 1146.77ZM965.299 1146.74L965.324 1145.74L965.199 1145.74L965.076 1145.77L965.299 1146.74ZM965.367 1146.75L965.341 1147.75L966.534 1147.78L966.356 1146.6L965.367 1146.75ZM965.365 1146.73L965.136 1145.76L964.239 1145.97L964.376 1146.88L965.365 1146.73ZM971.764 1142.4L972.58 1142.98V1142.98L971.764 1142.4ZM973.609 1134.89L974.597 1134.74V1134.74L973.609 1134.89ZM962.413 1128.3C964.792 1127.78 967.192 1128.22 969.094 1129.48L970.2 1127.81C967.824 1126.24 964.867 1125.72 961.988 1126.35L962.413 1128.3ZM963.197 1127.22L963.189 1127.17L961.212 1127.47L961.22 1127.52L963.197 1127.22ZM829.016 1150.07C869.518 1134.58 914.922 1127.18 962.183 1128.37L962.233 1126.37C914.735 1125.17 869.069 1132.61 828.301 1148.2L829.016 1150.07ZM727.206 1218.28C753.733 1188.85 788.442 1165.58 829.016 1150.07L828.301 1148.2C787.461 1163.82 752.478 1187.25 725.721 1216.95L727.206 1218.28ZM727.175 1216.89L727.031 1216.79L725.896 1218.44L726.04 1218.54L727.175 1216.89ZM726.921 1226.3C726.163 1223.58 726.382 1220.66 727.52 1218.12L725.695 1217.3C724.365 1220.27 724.112 1223.67 724.995 1226.83L726.921 1226.3ZM731.975 1232.97C729.551 1231.57 727.724 1229.17 726.921 1226.3L724.995 1226.83C725.93 1230.19 728.072 1233.02 730.973 1234.7L731.975 1232.97ZM739.85 1233.84C737.226 1234.68 734.396 1234.38 731.975 1232.97L730.973 1234.7C733.878 1236.39 737.295 1236.76 740.464 1235.74L739.85 1233.84ZM745.396 1229.51C744.05 1231.58 742.096 1233.11 739.85 1233.84L740.464 1235.74C743.171 1234.86 745.492 1233.04 747.074 1230.59L745.396 1229.51ZM840.392 1166.07C802.686 1180.49 770.337 1202.07 745.495 1229.38L746.975 1230.72C771.587 1203.66 803.664 1182.26 841.106 1167.94L840.392 1166.07ZM965.215 1145.74C920.948 1144.62 878.387 1151.55 840.392 1166.07L841.106 1167.94C878.836 1153.52 921.134 1146.62 965.164 1147.74L965.215 1145.74ZM966.182 1146.62L966.178 1146.59L964.202 1146.89L964.206 1146.92L966.182 1146.62ZM965.076 1145.77C965.045 1145.78 965.013 1145.78 964.982 1145.79L965.406 1147.74C965.445 1147.74 965.483 1147.73 965.521 1147.72L965.076 1145.77ZM965.393 1145.75C965.37 1145.75 965.347 1145.75 965.324 1145.74L965.273 1147.74C965.296 1147.74 965.319 1147.75 965.341 1147.75L965.393 1145.75ZM964.376 1146.88L964.378 1146.89L966.356 1146.6L966.354 1146.58L964.376 1146.88ZM970.948 1141.82C969.543 1143.8 967.455 1145.21 965.136 1145.76L965.593 1147.7C968.394 1147.04 970.897 1145.35 972.58 1142.98L970.948 1141.82ZM972.62 1135.04C972.976 1137.35 972.384 1139.79 970.948 1141.82L972.58 1142.98C974.3 1140.55 975.035 1137.59 974.597 1134.74L972.62 1135.04ZM969.094 1129.48C970.995 1130.74 972.265 1132.74 972.62 1135.04L974.597 1134.74C974.158 1131.89 972.578 1129.39 970.2 1127.81L969.094 1129.48Z" fill="#FFBD2E" mask="url(#path-13-inside-4_351_2926)"/>
</svg>
