<svg width="1532" height="1787" viewBox="0 0 1532 1787" fill="none" xmlns="http://www.w3.org/2000/svg">
<mask id="path-1-inside-1_351_2156" fill="white">
<path fill-rule="evenodd" clip-rule="evenodd" d="M722.298 44.9044C722.373 44.9742 722.447 45.0441 722.522 45.1141L722.298 45.469V743.601V1166.38C808.07 1101.37 926.162 1061.21 1056.53 1061.21C1318.63 1061.21 1531.1 1223.53 1531.1 1423.75C1531.1 1623.98 1318.63 1786.29 1056.53 1786.29C794.436 1786.29 581.965 1623.98 581.965 1423.75C581.965 1420.42 582.023 1417.11 582.14 1413.8L547.613 268.234C546.037 243.018 542.85 224.739 518.979 218.589C500.311 213.78 468.207 210.964 440.66 218.589C438.463 219.198 436.29 219.787 434.137 220.37C409.295 227.106 387.094 233.125 360.998 259.439C346.894 273.662 337.389 288.492 328.002 303.139C307.911 334.486 288.36 364.991 225.416 386.894L182.745 393.43H154.658H128.732L100.915 391.796L82.5526 388.799L62.8359 384.987L49.5046 381.175L36.3695 373.549L0.450684 343.592C11.9237 341.022 26.4935 340.941 43.139 340.849C100.552 340.53 182.659 340.076 247.564 236.836C249.547 234.189 251.574 231.478 253.643 228.712C294.991 173.42 352.931 95.9421 409.716 61.5372C469.343 25.4111 531.394 4.08743 587.448 0.460015C641.937 -3.06605 687.694 13.9362 719.788 42.6125H722.298V44.9044Z"/>
</mask>
<path fill-rule="evenodd" clip-rule="evenodd" d="M722.298 44.9044C722.373 44.9742 722.447 45.0441 722.522 45.1141L722.298 45.469V743.601V1166.38C808.07 1101.37 926.162 1061.21 1056.53 1061.21C1318.63 1061.21 1531.1 1223.53 1531.1 1423.75C1531.1 1623.98 1318.63 1786.29 1056.53 1786.29C794.436 1786.29 581.965 1623.98 581.965 1423.75C581.965 1420.42 582.023 1417.11 582.14 1413.8L547.613 268.234C546.037 243.018 542.85 224.739 518.979 218.589C500.311 213.78 468.207 210.964 440.66 218.589C438.463 219.198 436.29 219.787 434.137 220.37C409.295 227.106 387.094 233.125 360.998 259.439C346.894 273.662 337.389 288.492 328.002 303.139C307.911 334.486 288.36 364.991 225.416 386.894L182.745 393.43H154.658H128.732L100.915 391.796L82.5526 388.799L62.8359 384.987L49.5046 381.175L36.3695 373.549L0.450684 343.592C11.9237 341.022 26.4935 340.941 43.139 340.849C100.552 340.53 182.659 340.076 247.564 236.836C249.547 234.189 251.574 231.478 253.643 228.712C294.991 173.42 352.931 95.9421 409.716 61.5372C469.343 25.4111 531.394 4.08743 587.448 0.460015C641.937 -3.06605 687.694 13.9362 719.788 42.6125H722.298V44.9044Z" fill="#FFB76A"/>
<path d="M722.522 45.1141L736.197 30.52L748.256 41.8196L739.432 55.7926L722.522 45.1141ZM722.298 44.9044L708.648 59.5223L702.298 53.5927V44.9044H722.298ZM722.298 45.469H702.298V39.6828L705.387 34.7904L722.298 45.469ZM722.298 1166.38L734.379 1182.32L702.298 1206.63V1166.38H722.298ZM582.14 1413.8L602.131 1413.2L602.151 1413.85L602.128 1414.51L582.14 1413.8ZM547.613 268.234L567.574 266.986L567.595 267.308L567.604 267.632L547.613 268.234ZM518.979 218.589L513.99 237.957L518.979 218.589ZM440.66 218.589L435.324 199.314L435.324 199.314L440.66 218.589ZM434.137 220.37L439.371 239.673L439.371 239.674L434.137 220.37ZM360.998 259.439L375.2 273.522V273.522L360.998 259.439ZM328.002 303.139L344.84 313.931V313.931L328.002 303.139ZM225.416 386.894L231.988 405.783L230.256 406.385L228.444 406.663L225.416 386.894ZM182.745 393.43L185.773 413.199L184.268 413.43H182.745V393.43ZM128.732 393.43V413.43H128.145L127.559 413.395L128.732 393.43ZM100.915 391.796L99.7424 411.761L98.7123 411.701L97.6938 411.534L100.915 391.796ZM82.5526 388.799L79.3312 408.538L79.0431 408.491L78.7566 408.435L82.5526 388.799ZM62.8359 384.987L59.0399 404.624L58.1793 404.457L57.3365 404.216L62.8359 384.987ZM49.5046 381.175L44.0052 400.404L41.6141 399.72L39.4634 398.471L49.5046 381.175ZM36.3695 373.549L26.3282 390.846L24.8618 389.994L23.5597 388.908L36.3695 373.549ZM0.450684 343.592L-12.3591 358.952L-43.5331 332.952L-3.92249 324.076L0.450684 343.592ZM43.139 340.849L43.2499 360.848L43.139 340.849ZM247.564 236.836L230.632 226.191L231.068 225.498L231.558 224.843L247.564 236.836ZM253.643 228.712L269.66 240.69L269.659 240.69L253.643 228.712ZM409.716 61.5372L420.08 78.6425L409.716 61.5372ZM587.448 0.460015L588.74 20.4183L587.448 0.460015ZM719.788 42.6125V62.6125H712.155L706.463 57.5264L719.788 42.6125ZM722.298 42.6125V22.6125H742.298V42.6125H722.298ZM708.847 59.7082C708.78 59.6461 708.714 59.5842 708.648 59.5223L735.948 30.2865C736.031 30.3643 736.114 30.4421 736.197 30.52L708.847 59.7082ZM705.387 34.7904L705.611 34.4355L739.432 55.7926L739.208 56.1475L705.387 34.7904ZM702.298 743.601V45.469H742.298V743.601H702.298ZM702.298 1166.38V743.601H742.298V1166.38H702.298ZM1056.53 1081.21C930.14 1081.21 816.38 1120.17 734.379 1182.32L710.217 1150.44C799.76 1082.57 922.185 1041.21 1056.53 1041.21V1081.21ZM1511.1 1423.75C1511.1 1331.19 1462.04 1245.99 1379.96 1183.29C1297.87 1120.57 1183.59 1081.21 1056.53 1081.21V1041.21C1191.58 1041.21 1314.58 1083 1404.25 1151.5C1493.93 1220.02 1551.1 1316.09 1551.1 1423.75H1511.1ZM1056.53 1766.29C1183.59 1766.29 1297.87 1726.93 1379.96 1664.21C1462.04 1601.51 1511.1 1516.32 1511.1 1423.75H1551.1C1551.1 1531.41 1493.93 1627.49 1404.25 1696C1314.58 1764.5 1191.58 1806.29 1056.53 1806.29V1766.29ZM601.965 1423.75C601.965 1516.32 651.028 1601.51 733.104 1664.21C815.198 1726.93 929.481 1766.29 1056.53 1766.29V1806.29C921.489 1806.29 798.487 1764.5 708.821 1696C619.137 1627.49 561.965 1531.41 561.965 1423.75H601.965ZM602.128 1414.51C602.019 1417.58 601.965 1420.66 601.965 1423.75H561.965C561.965 1420.19 562.028 1416.64 562.152 1413.1L602.128 1414.51ZM567.604 267.632L602.131 1413.2L562.149 1414.41L527.623 268.837L567.604 267.632ZM523.969 199.222C541.306 203.688 553.098 213.541 559.768 227.777C565.57 240.162 566.805 254.685 567.574 266.986L527.652 269.482C526.845 256.567 525.699 249.343 523.546 244.746C522.26 242.002 520.523 239.64 513.99 237.957L523.969 199.222ZM435.324 199.314C467.103 190.518 502.89 193.792 523.969 199.222L513.99 237.957C497.732 233.769 469.311 231.411 445.996 237.865L435.324 199.314ZM428.904 201.067C431.065 200.481 433.187 199.906 435.324 199.314L445.996 237.865C443.74 238.489 441.516 239.092 439.371 239.673L428.904 201.067ZM346.797 245.356C376.765 215.136 403.3 208.009 428.904 201.067L439.371 239.674C415.289 246.202 397.422 251.113 375.2 273.522L346.797 245.356ZM311.163 292.347C320.47 277.827 331.004 261.282 346.797 245.356L375.2 273.522C362.784 286.042 354.308 299.158 344.84 313.931L311.163 292.347ZM218.843 368.004C248.063 357.837 266.165 346.068 279.116 333.953C292.313 321.606 301.012 308.186 311.163 292.347L344.84 313.931C334.901 329.439 323.779 346.945 306.442 363.163C288.859 379.613 265.713 394.048 231.988 405.783L218.843 368.004ZM179.717 373.66L222.387 367.124L228.444 406.663L185.773 413.199L179.717 373.66ZM154.658 373.43H182.745V413.43H154.658V373.43ZM128.732 373.43H154.658V413.43H128.732V373.43ZM102.088 371.83L129.905 373.464L127.559 413.395L99.7424 411.761L102.088 371.83ZM85.774 369.06L104.137 372.057L97.6938 411.534L79.3312 408.538L85.774 369.06ZM66.632 365.351L86.3486 369.162L78.7566 408.435L59.0399 404.624L66.632 365.351ZM55.004 361.945L68.3353 365.758L57.3365 404.216L44.0052 400.404L55.004 361.945ZM46.4108 356.253L59.5459 363.878L39.4634 398.471L26.3282 390.846L46.4108 356.253ZM13.2605 328.233L49.1793 358.19L23.5597 388.908L-12.3591 358.952L13.2605 328.233ZM43.2499 360.848C25.8268 360.945 13.7236 361.114 4.82385 363.108L-3.92249 324.076C10.1238 320.929 27.1603 320.937 43.0282 320.849L43.2499 360.848ZM264.496 247.481C229.807 302.657 189.599 331.569 149.392 346.228C109.899 360.627 71.7271 360.69 43.2499 360.848L43.0282 320.849C71.9636 320.689 103.552 320.365 135.691 308.648C167.117 297.19 200.415 274.254 230.632 226.191L264.496 247.481ZM269.659 240.69C267.592 243.455 265.559 246.173 263.569 248.828L231.558 224.843C233.535 222.205 235.557 219.502 237.626 216.734L269.659 240.69ZM420.08 78.6425C394.353 94.2297 367.291 120.341 340.944 150.46C314.776 180.374 290.398 212.958 269.66 240.69L237.626 216.735C258.236 189.174 283.502 155.373 310.837 124.124C337.993 93.08 368.294 63.2496 399.353 44.4318L420.08 78.6425ZM588.74 20.4183C536.577 23.7938 477.607 43.7884 420.08 78.6425L399.353 44.4318C461.078 7.03383 526.21 -15.619 586.157 -19.4982L588.74 20.4183ZM706.463 57.5264C678.615 32.644 638.216 17.2165 588.74 20.4183L586.157 -19.4982C645.657 -23.3486 696.774 -4.77162 733.114 27.6986L706.463 57.5264ZM722.298 62.6125H719.788V22.6125H722.298V62.6125ZM702.298 44.9044V42.6125H742.298V44.9044H702.298Z" fill="#F29A3B" mask="url(#path-1-inside-1_351_2156)"/>
<path d="M1222.18 1328.41C1222.18 1362.34 1230.18 1392.57 1242.59 1413.97C1255.15 1435.63 1271.02 1446.51 1286.48 1446.51C1301.94 1446.51 1317.81 1435.63 1330.37 1413.97C1342.78 1392.57 1350.78 1362.34 1350.78 1328.41C1350.78 1294.48 1342.78 1264.25 1330.37 1242.85C1317.81 1221.19 1301.94 1210.31 1286.48 1210.31C1271.02 1210.31 1255.15 1221.19 1242.59 1242.85C1230.18 1264.25 1222.18 1294.48 1222.18 1328.41Z" fill="white" stroke="black" stroke-width="20"/>
<mask id="path-4-inside-2_351_2156" fill="white">
<path fill-rule="evenodd" clip-rule="evenodd" d="M1320.91 1214.86C1319.66 1214.65 1318.39 1214.51 1317.13 1214.44C1301.42 1213.57 1286.11 1223.6 1274.26 1242.51C1262.42 1261.43 1254.93 1287.84 1253.28 1316.44L1315.25 1328.41L1254.11 1350.47C1257.15 1378.68 1265.91 1403.76 1278.63 1420.66C1290.86 1436.92 1305.9 1444.46 1320.92 1441.95C1344.62 1420.55 1360.79 1377.74 1360.79 1328.41C1360.79 1279.08 1344.61 1236.26 1320.91 1214.86Z"/>
</mask>
<path fill-rule="evenodd" clip-rule="evenodd" d="M1320.91 1214.86C1319.66 1214.65 1318.39 1214.51 1317.13 1214.44C1301.42 1213.57 1286.11 1223.6 1274.26 1242.51C1262.42 1261.43 1254.93 1287.84 1253.28 1316.44L1315.25 1328.41L1254.11 1350.47C1257.15 1378.68 1265.91 1403.76 1278.63 1420.66C1290.86 1436.92 1305.9 1444.46 1320.92 1441.95C1344.62 1420.55 1360.79 1377.74 1360.79 1328.41C1360.79 1279.08 1344.61 1236.26 1320.91 1214.86Z" fill="black"/>
<path d="M1320.91 1214.86L1321.07 1213.87L1321.36 1213.92L1321.58 1214.11L1320.91 1214.86ZM1317.13 1214.44L1317.19 1213.44L1317.13 1214.44ZM1274.26 1242.51L1273.42 1241.98L1274.26 1242.51ZM1253.28 1316.44L1253.09 1317.42L1252.23 1317.26L1252.28 1316.38L1253.28 1316.44ZM1315.25 1328.41L1315.44 1327.42L1319.01 1328.11L1315.59 1329.35L1315.25 1328.41ZM1254.11 1350.47L1253.12 1350.57L1253.03 1349.79L1253.77 1349.52L1254.11 1350.47ZM1278.63 1420.66L1277.83 1421.26L1278.63 1420.66ZM1320.92 1441.95L1321.59 1442.7L1321.37 1442.89L1321.08 1442.94L1320.92 1441.95ZM1320.74 1215.84C1319.53 1215.64 1318.3 1215.5 1317.07 1215.44L1317.19 1213.44C1318.49 1213.51 1319.78 1213.65 1321.07 1213.87L1320.74 1215.84ZM1317.07 1215.44C1301.87 1214.6 1286.85 1224.29 1275.11 1243.05L1273.42 1241.98C1285.36 1222.9 1300.97 1212.54 1317.19 1213.44L1317.07 1215.44ZM1275.11 1243.05C1263.38 1261.78 1255.92 1288.02 1254.28 1316.5L1252.28 1316.38C1253.94 1287.66 1261.46 1261.08 1273.42 1241.98L1275.11 1243.05ZM1253.47 1315.46L1315.44 1327.42L1315.06 1329.39L1253.09 1317.42L1253.47 1315.46ZM1315.59 1329.35L1254.45 1351.41L1253.77 1349.52L1314.91 1327.47L1315.59 1329.35ZM1255.1 1350.36C1258.13 1378.46 1266.85 1403.34 1279.43 1420.06L1277.83 1421.26C1264.97 1404.17 1256.17 1378.91 1253.12 1350.57L1255.1 1350.36ZM1279.43 1420.06C1291.52 1436.14 1306.22 1443.4 1320.75 1440.97L1321.08 1442.94C1305.57 1445.53 1290.2 1437.71 1277.83 1421.26L1279.43 1420.06ZM1320.25 1441.21C1343.66 1420.06 1359.79 1377.57 1359.79 1328.41H1361.79C1361.79 1377.9 1345.57 1421.04 1321.59 1442.7L1320.25 1441.21ZM1359.79 1328.41C1359.79 1279.24 1343.66 1236.74 1320.24 1215.6L1321.58 1214.11C1345.57 1235.77 1361.79 1278.91 1361.79 1328.41H1359.79Z" fill="black" mask="url(#path-4-inside-2_351_2156)"/>
<path d="M1018.45 1328.41C1018.45 1362.34 1026.45 1392.57 1038.86 1413.97C1051.43 1435.63 1067.3 1446.51 1082.75 1446.51C1098.21 1446.51 1114.08 1435.63 1126.64 1413.97C1139.06 1392.57 1147.05 1362.34 1147.05 1328.41C1147.05 1294.48 1139.06 1264.25 1126.64 1242.85C1114.08 1221.19 1098.21 1210.31 1082.75 1210.31C1067.3 1210.31 1051.43 1221.19 1038.86 1242.85C1026.45 1264.25 1018.45 1294.48 1018.45 1328.41Z" fill="white" stroke="black" stroke-width="20"/>
<mask id="path-7-inside-3_351_2156" fill="white">
<path fill-rule="evenodd" clip-rule="evenodd" d="M1117.18 1214.86C1115.93 1214.65 1114.67 1214.51 1113.4 1214.44C1097.69 1213.57 1082.38 1223.6 1070.54 1242.51C1058.7 1261.43 1051.2 1287.84 1049.55 1316.44L1111.52 1328.41L1050.38 1350.47C1053.42 1378.68 1062.18 1403.76 1074.9 1420.66C1087.14 1436.92 1102.17 1444.46 1117.19 1441.95C1140.89 1420.55 1157.06 1377.74 1157.06 1328.41C1157.06 1279.08 1140.89 1236.26 1117.18 1214.86Z"/>
</mask>
<path fill-rule="evenodd" clip-rule="evenodd" d="M1117.18 1214.86C1115.93 1214.65 1114.67 1214.51 1113.4 1214.44C1097.69 1213.57 1082.38 1223.6 1070.54 1242.51C1058.7 1261.43 1051.2 1287.84 1049.55 1316.44L1111.52 1328.41L1050.38 1350.47C1053.42 1378.68 1062.18 1403.76 1074.9 1420.66C1087.14 1436.92 1102.17 1444.46 1117.19 1441.95C1140.89 1420.55 1157.06 1377.74 1157.06 1328.41C1157.06 1279.08 1140.89 1236.26 1117.18 1214.86Z" fill="black"/>
<path d="M1117.18 1214.86L1117.35 1213.87L1117.64 1213.92L1117.85 1214.11L1117.18 1214.86ZM1113.4 1214.44L1113.46 1213.44L1113.4 1214.44ZM1070.54 1242.51L1069.69 1241.98L1070.54 1242.51ZM1049.55 1316.44L1049.36 1317.42L1048.5 1317.26L1048.55 1316.38L1049.55 1316.44ZM1111.52 1328.41L1111.71 1327.42L1115.28 1328.11L1111.86 1329.35L1111.52 1328.41ZM1050.38 1350.47L1049.39 1350.57L1049.31 1349.79L1050.04 1349.52L1050.38 1350.47ZM1074.9 1420.66L1074.1 1421.26L1074.9 1420.66ZM1117.19 1441.95L1117.86 1442.7L1117.64 1442.89L1117.35 1442.94L1117.19 1441.95ZM1117.02 1215.84C1115.8 1215.64 1114.58 1215.5 1113.35 1215.44L1113.46 1213.44C1114.76 1213.51 1116.06 1213.65 1117.35 1213.87L1117.02 1215.84ZM1113.35 1215.44C1098.14 1214.6 1083.12 1224.29 1071.39 1243.05L1069.69 1241.98C1081.63 1222.9 1097.24 1212.54 1113.46 1213.44L1113.35 1215.44ZM1071.39 1243.05C1059.66 1261.78 1052.19 1288.02 1050.55 1316.5L1048.55 1316.38C1050.21 1287.66 1057.74 1261.08 1069.69 1241.98L1071.39 1243.05ZM1049.74 1315.46L1111.71 1327.42L1111.33 1329.39L1049.36 1317.42L1049.74 1315.46ZM1111.86 1329.35L1050.72 1351.41L1050.04 1349.52L1111.18 1327.47L1111.86 1329.35ZM1051.38 1350.36C1054.41 1378.46 1063.12 1403.34 1075.7 1420.06L1074.1 1421.26C1061.24 1404.17 1052.44 1378.91 1049.39 1350.57L1051.38 1350.36ZM1075.7 1420.06C1087.8 1436.14 1102.5 1443.4 1117.02 1440.97L1117.35 1442.94C1101.84 1445.53 1086.48 1437.71 1074.1 1421.26L1075.7 1420.06ZM1116.52 1441.21C1139.94 1420.06 1156.06 1377.57 1156.06 1328.41H1158.06C1158.06 1377.9 1141.84 1421.04 1117.86 1442.7L1116.52 1441.21ZM1156.06 1328.41C1156.06 1279.24 1139.93 1236.74 1116.51 1215.6L1117.85 1214.11C1141.84 1235.77 1158.06 1278.91 1158.06 1328.41H1156.06Z" fill="black" mask="url(#path-7-inside-3_351_2156)"/>
<ellipse cx="978.494" cy="1485.51" rx="61.1187" ry="26.5863" fill="#F7C1B8"/>
<ellipse cx="1397.93" cy="1485.51" rx="61.1187" ry="26.5863" fill="#F7C1B8"/>
<ellipse cx="1210.98" cy="1527.8" rx="39.5474" ry="85.8014" fill="#E44E30"/>
<path d="M722.386 1260.67C722.386 1267.28 717.075 1272.63 710.533 1272.63C703.99 1272.63 698.68 1267.28 698.68 1260.67C698.68 1254.06 703.99 1248.71 710.533 1248.71C717.075 1248.71 722.386 1254.06 722.386 1260.67Z" fill="white" stroke="#FFBD2E"/>
<mask id="path-13-inside-4_351_2156" fill="white">
<path fill-rule="evenodd" clip-rule="evenodd" d="M970.1 1128.14C967.961 1126.72 965.282 1126.24 962.654 1126.81L962.661 1126.86C915.281 1125.67 869.747 1133.09 829.112 1148.63C788.405 1164.19 753.559 1187.54 726.917 1217.11L727.061 1217.2C725.827 1219.96 725.591 1223.12 726.411 1226.06C727.28 1229.17 729.264 1231.79 731.927 1233.33C734.59 1234.87 737.713 1235.21 740.61 1234.28C743.087 1233.48 745.224 1231.8 746.688 1229.54C771.415 1202.36 803.628 1180.87 841.202 1166.5C879.065 1152.02 921.494 1145.11 965.643 1146.23L965.647 1146.26C965.682 1146.25 965.717 1146.24 965.752 1146.24C965.775 1146.24 965.798 1146.24 965.82 1146.24L965.818 1146.22C968.378 1145.62 970.673 1144.07 972.217 1141.89C973.795 1139.66 974.459 1136.96 974.062 1134.38C973.665 1131.8 972.24 1129.56 970.1 1128.14Z"/>
</mask>
<path fill-rule="evenodd" clip-rule="evenodd" d="M970.1 1128.14C967.961 1126.72 965.282 1126.24 962.654 1126.81L962.661 1126.86C915.281 1125.67 869.747 1133.09 829.112 1148.63C788.405 1164.19 753.559 1187.54 726.917 1217.11L727.061 1217.2C725.827 1219.96 725.591 1223.12 726.411 1226.06C727.28 1229.17 729.264 1231.79 731.927 1233.33C734.59 1234.87 737.713 1235.21 740.61 1234.28C743.087 1233.48 745.224 1231.8 746.688 1229.54C771.415 1202.36 803.628 1180.87 841.202 1166.5C879.065 1152.02 921.494 1145.11 965.643 1146.23L965.647 1146.26C965.682 1146.25 965.717 1146.24 965.752 1146.24C965.775 1146.24 965.798 1146.24 965.82 1146.24L965.818 1146.22C968.378 1145.62 970.673 1144.07 972.217 1141.89C973.795 1139.66 974.459 1136.96 974.062 1134.38C973.665 1131.8 972.24 1129.56 970.1 1128.14Z" fill="white"/>
<path d="M962.654 1126.81L962.441 1125.84L961.522 1126.04L961.665 1126.97L962.654 1126.81ZM970.1 1128.14L969.548 1128.97V1128.97L970.1 1128.14ZM962.661 1126.86L962.636 1127.86L963.832 1127.89L963.65 1126.71L962.661 1126.86ZM829.112 1148.63L828.755 1147.69L829.112 1148.63ZM726.917 1217.11L726.174 1216.44L725.411 1217.28L726.349 1217.93L726.917 1217.11ZM727.061 1217.2L727.973 1217.61L728.314 1216.85L727.628 1216.38L727.061 1217.2ZM726.411 1226.06L725.448 1226.32L726.411 1226.06ZM731.927 1233.33L732.428 1232.46H732.428L731.927 1233.33ZM740.61 1234.28L740.917 1235.23H740.917L740.61 1234.28ZM746.688 1229.54L745.948 1228.87L745.893 1228.93L745.849 1229L746.688 1229.54ZM841.202 1166.5L841.559 1167.43L841.202 1166.5ZM965.643 1146.23L966.631 1146.08L966.504 1145.25L965.668 1145.23L965.643 1146.23ZM965.647 1146.26L964.659 1146.41L964.821 1147.46L965.859 1147.24L965.647 1146.26ZM965.752 1146.24L965.778 1145.24L965.652 1145.23L965.53 1145.26L965.752 1146.24ZM965.82 1146.24L965.795 1147.24L966.987 1147.27L966.809 1146.09L965.82 1146.24ZM965.818 1146.22L965.589 1145.25L964.692 1145.46L964.829 1146.37L965.818 1146.22ZM972.217 1141.89L973.033 1142.47V1142.47L972.217 1141.89ZM974.062 1134.38L975.05 1134.23V1134.23L974.062 1134.38ZM962.866 1127.79C965.245 1127.27 967.645 1127.71 969.548 1128.97L970.653 1127.31C968.277 1125.73 965.32 1125.21 962.441 1125.84L962.866 1127.79ZM963.65 1126.71L963.642 1126.66L961.665 1126.97L961.673 1127.02L963.65 1126.71ZM829.469 1149.56C869.972 1134.07 915.375 1126.67 962.636 1127.86L962.687 1125.86C915.188 1124.67 869.522 1132.1 828.755 1147.69L829.469 1149.56ZM727.66 1217.78C754.186 1188.34 788.895 1165.07 829.469 1149.56L828.755 1147.69C787.914 1163.31 752.931 1186.74 726.174 1216.44L727.66 1217.78ZM727.628 1216.38L727.484 1216.28L726.349 1217.93L726.493 1218.03L727.628 1216.38ZM727.374 1225.79C726.616 1223.07 726.835 1220.15 727.973 1217.61L726.148 1216.8C724.818 1219.76 724.565 1223.16 725.448 1226.32L727.374 1225.79ZM732.428 1232.46C730.004 1231.06 728.177 1228.67 727.374 1225.79L725.448 1226.32C726.383 1229.68 728.525 1232.52 731.426 1234.2L732.428 1232.46ZM740.303 1233.33C737.679 1234.17 734.849 1233.87 732.428 1232.46L731.426 1234.2C734.331 1235.88 737.748 1236.25 740.917 1235.23L740.303 1233.33ZM745.849 1229C744.504 1231.08 742.549 1232.6 740.303 1233.33L740.917 1235.23C743.624 1234.36 745.945 1232.53 747.528 1230.09L745.849 1229ZM840.845 1165.57C803.139 1179.98 770.79 1201.56 745.948 1228.87L747.428 1230.22C772.04 1203.15 804.117 1181.75 841.559 1167.43L840.845 1165.57ZM965.668 1145.23C921.401 1144.11 878.84 1151.04 840.845 1165.57L841.559 1167.43C879.289 1153.01 921.588 1146.12 965.618 1147.23L965.668 1145.23ZM966.635 1146.11L966.631 1146.08L964.655 1146.39L964.659 1146.41L966.635 1146.11ZM965.53 1145.26C965.498 1145.27 965.466 1145.27 965.435 1145.28L965.859 1147.24C965.898 1147.23 965.936 1147.22 965.974 1147.21L965.53 1145.26ZM965.846 1145.24C965.823 1145.24 965.8 1145.24 965.778 1145.24L965.726 1147.24C965.749 1147.24 965.772 1147.24 965.795 1147.24L965.846 1145.24ZM964.829 1146.37L964.832 1146.39L966.809 1146.09L966.807 1146.07L964.829 1146.37ZM971.401 1141.31C969.996 1143.29 967.908 1144.7 965.589 1145.25L966.046 1147.19C968.847 1146.54 971.35 1144.84 973.033 1142.47L971.401 1141.31ZM973.073 1134.53C973.429 1136.84 972.837 1139.28 971.401 1141.31L973.033 1142.47C974.753 1140.04 975.488 1137.08 975.05 1134.23L973.073 1134.53ZM969.548 1128.97C971.448 1130.23 972.718 1132.23 973.073 1134.53L975.05 1134.23C974.611 1131.38 973.032 1128.88 970.653 1127.31L969.548 1128.97Z" fill="#FFBD2E" mask="url(#path-13-inside-4_351_2156)"/>
</svg>
