<svg width="1531" height="1787" viewBox="0 0 1531 1787" fill="none" xmlns="http://www.w3.org/2000/svg">
<mask id="path-1-inside-1_351_2904" fill="white">
<path fill-rule="evenodd" clip-rule="evenodd" d="M721.845 44.9025C721.92 44.9729 721.996 45.0435 722.071 45.1141L721.845 45.4723V743.601V1166.38C807.617 1101.37 925.709 1061.21 1056.08 1061.21C1318.18 1061.21 1530.65 1223.53 1530.65 1423.75C1530.65 1623.98 1318.18 1786.29 1056.08 1786.29C793.983 1786.29 581.512 1623.98 581.512 1423.75C581.512 1420.42 581.57 1417.11 581.687 1413.8L547.158 268.17C545.58 242.987 542.379 224.734 518.528 218.589C499.86 213.78 467.756 210.964 440.209 218.589C438.012 219.198 435.839 219.787 433.686 220.37C408.844 227.106 386.643 233.125 360.547 259.439C346.443 273.662 336.938 288.492 327.551 303.139C307.46 334.486 287.909 364.991 224.965 386.894L182.294 393.43H154.207H128.281L100.464 391.796L82.1016 388.799L62.3849 384.987L49.0536 381.175L35.9185 373.549L-0.000366211 343.592C11.4727 341.022 26.0425 340.941 42.688 340.849C100.101 340.53 182.208 340.076 247.113 236.836C249.096 234.189 251.123 231.478 253.192 228.712C294.54 173.42 352.48 95.9421 409.265 61.5372C468.891 25.4111 530.943 4.08743 586.997 0.460015C641.485 -3.06605 687.243 13.9362 719.337 42.6125H721.845V44.9025Z"/>
</mask>
<path fill-rule="evenodd" clip-rule="evenodd" d="M721.845 44.9025C721.92 44.9729 721.996 45.0435 722.071 45.1141L721.845 45.4723V743.601V1166.38C807.617 1101.37 925.709 1061.21 1056.08 1061.21C1318.18 1061.21 1530.65 1223.53 1530.65 1423.75C1530.65 1623.98 1318.18 1786.29 1056.08 1786.29C793.983 1786.29 581.512 1623.98 581.512 1423.75C581.512 1420.42 581.57 1417.11 581.687 1413.8L547.158 268.17C545.58 242.987 542.379 224.734 518.528 218.589C499.86 213.78 467.756 210.964 440.209 218.589C438.012 219.198 435.839 219.787 433.686 220.37C408.844 227.106 386.643 233.125 360.547 259.439C346.443 273.662 336.938 288.492 327.551 303.139C307.46 334.486 287.909 364.991 224.965 386.894L182.294 393.43H154.207H128.281L100.464 391.796L82.1016 388.799L62.3849 384.987L49.0536 381.175L35.9185 373.549L-0.000366211 343.592C11.4727 341.022 26.0425 340.941 42.688 340.849C100.101 340.53 182.208 340.076 247.113 236.836C249.096 234.189 251.123 231.478 253.192 228.712C294.54 173.42 352.48 95.9421 409.265 61.5372C468.891 25.4111 530.943 4.08743 586.997 0.460015C641.485 -3.06605 687.243 13.9362 719.337 42.6125H721.845V44.9025Z" fill="#E0FFDD"/>
<path d="M722.071 45.1141L735.748 30.5218L747.804 41.8216L738.981 55.7926L722.071 45.1141ZM721.845 44.9025L708.199 59.5242L701.845 53.594V44.9025H721.845ZM721.845 45.4723H701.845V39.6861L704.934 34.7937L721.845 45.4723ZM721.845 1166.38L733.925 1182.32L701.845 1206.63V1166.38H721.845ZM581.687 1413.8L601.678 1413.2L601.697 1413.85L601.674 1414.51L581.687 1413.8ZM547.158 268.17L567.119 266.919L567.14 267.243L567.149 267.568L547.158 268.17ZM518.528 218.589L513.539 237.957L518.528 218.589ZM440.209 218.589L434.873 199.314L434.873 199.314L440.209 218.589ZM433.686 220.37L428.453 201.067L428.453 201.067L433.686 220.37ZM360.547 259.439L374.749 273.522V273.522L360.547 259.439ZM327.551 303.139L344.389 313.931V313.931L327.551 303.139ZM224.965 386.894L231.537 405.783L229.805 406.385L227.993 406.663L224.965 386.894ZM182.294 393.43L185.322 413.199L183.817 413.43H182.294V393.43ZM128.281 393.43V413.43H127.694L127.108 413.395L128.281 393.43ZM100.464 391.796L99.2914 411.761L98.2612 411.701L97.2428 411.534L100.464 391.796ZM82.1016 388.799L78.8801 408.538L78.592 408.491L78.3055 408.435L82.1016 388.799ZM62.3849 384.987L58.5889 404.624L57.7283 404.457L56.8855 404.216L62.3849 384.987ZM49.0536 381.175L43.5542 400.404L41.1631 399.72L39.0123 398.471L49.0536 381.175ZM35.9185 373.549L25.8772 390.846L24.4108 389.994L23.1086 388.908L35.9185 373.549ZM-0.000366211 343.592L-12.8102 358.952L-43.9841 332.952L-4.37354 324.076L-0.000366211 343.592ZM42.688 340.849L42.7988 360.848L42.688 340.849ZM247.113 236.836L230.181 226.191L230.617 225.498L231.107 224.843L247.113 236.836ZM253.192 228.712L269.208 240.69L269.208 240.69L253.192 228.712ZM409.265 61.5372L419.629 78.6425L409.265 61.5372ZM586.997 0.460015L588.289 20.4183L586.997 0.460015ZM719.337 42.6125V62.6125H711.704L706.012 57.5264L719.337 42.6125ZM721.845 42.6125V22.6125H741.845V42.6125H721.845ZM708.394 59.7063C708.327 59.6437 708.262 59.5832 708.199 59.5242L735.49 30.2808C735.578 30.3627 735.664 30.4432 735.748 30.5218L708.394 59.7063ZM704.934 34.7937L705.16 34.4355L738.981 55.7926L738.755 56.1509L704.934 34.7937ZM701.845 743.601V45.4723H741.845V743.601H701.845ZM701.845 1166.38V743.601H741.845V1166.38H701.845ZM1056.08 1081.21C929.687 1081.21 815.927 1120.17 733.925 1182.32L709.764 1150.44C799.307 1082.57 921.732 1041.21 1056.08 1041.21V1081.21ZM1510.65 1423.75C1510.65 1331.19 1461.59 1245.99 1379.51 1183.29C1297.42 1120.57 1183.13 1081.21 1056.08 1081.21V1041.21C1191.12 1041.21 1314.13 1083 1403.79 1151.5C1493.48 1220.02 1550.65 1316.09 1550.65 1423.75H1510.65ZM1056.08 1766.29C1183.13 1766.29 1297.42 1726.93 1379.51 1664.21C1461.59 1601.51 1510.65 1516.32 1510.65 1423.75H1550.65C1550.65 1531.41 1493.48 1627.49 1403.79 1696C1314.13 1764.5 1191.12 1806.29 1056.08 1806.29V1766.29ZM601.512 1423.75C601.512 1516.32 650.575 1601.51 732.651 1664.21C814.745 1726.93 929.028 1766.29 1056.08 1766.29V1806.29C921.036 1806.29 798.034 1764.5 708.368 1696C618.684 1627.49 561.512 1531.41 561.512 1423.75H601.512ZM601.674 1414.51C601.566 1417.58 601.512 1420.66 601.512 1423.75H561.512C561.512 1420.19 561.574 1416.64 561.699 1413.1L601.674 1414.51ZM567.149 267.568L601.678 1413.2L561.696 1414.41L527.167 268.773L567.149 267.568ZM523.518 199.222C540.838 203.684 552.628 213.523 559.301 227.744C565.108 240.12 566.349 254.628 567.119 266.919L527.198 269.421C526.39 256.529 525.24 249.32 523.09 244.736C521.805 242 520.069 239.639 513.539 237.957L523.518 199.222ZM434.873 199.314C466.652 190.518 502.439 193.792 523.518 199.222L513.539 237.957C497.281 233.769 468.86 231.411 445.545 237.865L434.873 199.314ZM428.453 201.067C430.614 200.481 432.736 199.906 434.873 199.314L445.545 237.865C443.288 238.489 441.065 239.092 438.919 239.674L428.453 201.067ZM346.346 245.356C376.314 215.136 402.849 208.009 428.453 201.067L438.92 239.674C414.838 246.202 396.971 251.113 374.749 273.522L346.346 245.356ZM310.712 292.347C320.019 277.827 330.553 261.282 346.346 245.356L374.749 273.522C362.333 286.042 353.857 299.158 344.389 313.931L310.712 292.347ZM218.392 368.004C247.612 357.837 265.714 346.068 278.665 333.953C291.862 321.606 300.561 308.186 310.712 292.347L344.389 313.931C334.45 329.439 323.328 346.945 305.991 363.163C288.407 379.613 265.261 394.048 231.537 405.783L218.392 368.004ZM179.266 373.66L221.936 367.124L227.993 406.663L185.322 413.199L179.266 373.66ZM154.207 373.43H182.294V413.43H154.207V373.43ZM128.281 373.43H154.207V413.43H128.281V373.43ZM101.637 371.83L129.454 373.464L127.108 413.395L99.2914 411.761L101.637 371.83ZM85.323 369.06L103.686 372.057L97.2428 411.534L78.8801 408.538L85.323 369.06ZM66.1809 365.351L85.8976 369.162L78.3055 408.435L58.5889 404.624L66.1809 365.351ZM54.553 361.945L67.8843 365.758L56.8855 404.216L43.5542 400.404L54.553 361.945ZM45.9597 356.253L59.0948 363.878L39.0123 398.471L25.8772 390.846L45.9597 356.253ZM12.8094 328.233L48.7283 358.19L23.1086 388.908L-12.8102 358.952L12.8094 328.233ZM42.7988 360.848C25.3757 360.945 13.2726 361.114 4.3728 363.108L-4.37354 324.076C9.67273 320.929 26.7092 320.937 42.5771 320.849L42.7988 360.848ZM264.045 247.481C229.356 302.657 189.148 331.569 148.941 346.228C109.448 360.627 71.276 360.69 42.7988 360.848L42.5771 320.849C71.5126 320.689 103.101 320.365 135.24 308.648C166.666 297.19 199.964 274.254 230.181 226.191L264.045 247.481ZM269.208 240.69C267.141 243.454 265.108 246.173 263.118 248.828L231.107 224.843C233.084 222.205 235.105 219.502 237.175 216.734L269.208 240.69ZM419.629 78.6425C393.902 94.2297 366.84 120.341 340.493 150.46C314.325 180.374 289.946 212.958 269.208 240.69L237.175 216.734C257.785 189.174 283.051 155.373 310.386 124.124C337.542 93.08 367.843 63.2496 398.901 44.4318L419.629 78.6425ZM588.289 20.4183C536.126 23.7938 477.156 43.7884 419.629 78.6425L398.901 44.4318C460.627 7.03383 525.759 -15.619 585.706 -19.4982L588.289 20.4183ZM706.012 57.5264C678.164 32.644 637.765 17.2165 588.289 20.4183L585.706 -19.4982C645.206 -23.3486 696.323 -4.77162 732.663 27.6986L706.012 57.5264ZM721.845 62.6125H719.337V22.6125H721.845V62.6125ZM701.845 44.9025V42.6125H741.845V44.9025H701.845Z" fill="#86FF7B" mask="url(#path-1-inside-1_351_2904)"/>
<path d="M1221.73 1328.41C1221.73 1362.34 1229.73 1392.57 1242.15 1413.97C1254.71 1435.63 1270.58 1446.51 1286.03 1446.51C1301.49 1446.51 1317.36 1435.63 1329.92 1413.97C1342.34 1392.57 1350.34 1362.34 1350.34 1328.41C1350.34 1294.48 1342.34 1264.25 1329.92 1242.85C1317.36 1221.19 1301.49 1210.31 1286.03 1210.31C1270.58 1210.31 1254.71 1221.19 1242.15 1242.85C1229.73 1264.25 1221.73 1294.48 1221.73 1328.41Z" fill="white" stroke="black" stroke-width="20"/>
<mask id="path-4-inside-2_351_2904" fill="white">
<path fill-rule="evenodd" clip-rule="evenodd" d="M1320.46 1214.86C1319.21 1214.65 1317.95 1214.51 1316.68 1214.44C1300.97 1213.57 1285.66 1223.6 1273.82 1242.51C1261.98 1261.43 1254.48 1287.84 1252.83 1316.44L1314.8 1328.41L1253.66 1350.47C1256.71 1378.68 1265.46 1403.76 1278.18 1420.66C1290.42 1436.92 1305.45 1444.46 1320.47 1441.95C1344.17 1420.55 1360.34 1377.74 1360.34 1328.41C1360.34 1279.08 1344.17 1236.26 1320.46 1214.86Z"/>
</mask>
<path fill-rule="evenodd" clip-rule="evenodd" d="M1320.46 1214.86C1319.21 1214.65 1317.95 1214.51 1316.68 1214.44C1300.97 1213.57 1285.66 1223.6 1273.82 1242.51C1261.98 1261.43 1254.48 1287.84 1252.83 1316.44L1314.8 1328.41L1253.66 1350.47C1256.71 1378.68 1265.46 1403.76 1278.18 1420.66C1290.42 1436.92 1305.45 1444.46 1320.47 1441.95C1344.17 1420.55 1360.34 1377.74 1360.34 1328.41C1360.34 1279.08 1344.17 1236.26 1320.46 1214.86Z" fill="black"/>
<path d="M1320.46 1214.86L1320.63 1213.87L1320.92 1213.92L1321.13 1214.11L1320.46 1214.86ZM1316.68 1214.44L1316.74 1213.44L1316.68 1214.44ZM1273.82 1242.51L1272.97 1241.98L1273.82 1242.51ZM1252.83 1316.44L1252.64 1317.42L1251.78 1317.26L1251.83 1316.38L1252.83 1316.44ZM1314.8 1328.41L1314.99 1327.42L1318.56 1328.11L1315.14 1329.35L1314.8 1328.41ZM1253.66 1350.47L1252.67 1350.57L1252.59 1349.79L1253.33 1349.52L1253.66 1350.47ZM1278.18 1420.66L1277.38 1421.26L1278.18 1420.66ZM1320.47 1441.95L1321.14 1442.7L1320.92 1442.89L1320.64 1442.94L1320.47 1441.95ZM1320.3 1215.84C1319.08 1215.64 1317.86 1215.5 1316.63 1215.44L1316.74 1213.44C1318.04 1213.51 1319.34 1213.65 1320.63 1213.87L1320.3 1215.84ZM1316.63 1215.44C1301.42 1214.6 1286.41 1224.29 1274.67 1243.05L1272.97 1241.98C1284.92 1222.9 1300.52 1212.54 1316.74 1213.44L1316.63 1215.44ZM1274.67 1243.05C1262.94 1261.78 1255.47 1288.02 1253.83 1316.5L1251.83 1316.38C1253.49 1287.66 1261.02 1261.08 1272.97 1241.98L1274.67 1243.05ZM1253.02 1315.46L1314.99 1327.42L1314.61 1329.39L1252.64 1317.42L1253.02 1315.46ZM1315.14 1329.35L1254 1351.41L1253.33 1349.52L1314.47 1327.47L1315.14 1329.35ZM1254.66 1350.36C1257.69 1378.46 1266.4 1403.34 1278.98 1420.06L1277.38 1421.26C1264.53 1404.17 1255.72 1378.91 1252.67 1350.57L1254.66 1350.36ZM1278.98 1420.06C1291.08 1436.14 1305.78 1443.4 1320.31 1440.97L1320.64 1442.94C1305.12 1445.53 1289.76 1437.71 1277.38 1421.26L1278.98 1420.06ZM1319.8 1441.21C1343.22 1420.06 1359.34 1377.57 1359.34 1328.41H1361.34C1361.34 1377.9 1345.13 1421.04 1321.14 1442.7L1319.8 1441.21ZM1359.34 1328.41C1359.34 1279.24 1343.22 1236.74 1319.79 1215.6L1321.13 1214.11C1345.12 1235.77 1361.34 1278.91 1361.34 1328.41H1359.34Z" fill="black" mask="url(#path-4-inside-2_351_2904)"/>
<path d="M1018.01 1328.41C1018.01 1362.34 1026.01 1392.57 1038.42 1413.97C1050.98 1435.63 1066.85 1446.51 1082.31 1446.51C1097.76 1446.51 1113.63 1435.63 1126.2 1413.97C1138.61 1392.57 1146.61 1362.34 1146.61 1328.41C1146.61 1294.48 1138.61 1264.25 1126.2 1242.85C1113.63 1221.19 1097.76 1210.31 1082.31 1210.31C1066.85 1210.31 1050.98 1221.19 1038.42 1242.85C1026.01 1264.25 1018.01 1294.48 1018.01 1328.41Z" fill="white" stroke="black" stroke-width="20"/>
<mask id="path-7-inside-3_351_2904" fill="white">
<path fill-rule="evenodd" clip-rule="evenodd" d="M1116.74 1214.86C1115.48 1214.65 1114.22 1214.51 1112.96 1214.44C1097.25 1213.57 1081.93 1223.6 1070.09 1242.51C1058.25 1261.43 1050.75 1287.84 1049.1 1316.44L1111.08 1328.41L1049.94 1350.47C1052.98 1378.68 1061.74 1403.76 1074.46 1420.66C1086.69 1436.92 1101.72 1444.46 1116.74 1441.95C1140.45 1420.55 1156.62 1377.74 1156.62 1328.41C1156.62 1279.08 1140.44 1236.26 1116.74 1214.86Z"/>
</mask>
<path fill-rule="evenodd" clip-rule="evenodd" d="M1116.74 1214.86C1115.48 1214.65 1114.22 1214.51 1112.96 1214.44C1097.25 1213.57 1081.93 1223.6 1070.09 1242.51C1058.25 1261.43 1050.75 1287.84 1049.1 1316.44L1111.08 1328.41L1049.94 1350.47C1052.98 1378.68 1061.74 1403.76 1074.46 1420.66C1086.69 1436.92 1101.72 1444.46 1116.74 1441.95C1140.45 1420.55 1156.62 1377.74 1156.62 1328.41C1156.62 1279.08 1140.44 1236.26 1116.74 1214.86Z" fill="black"/>
<path d="M1116.74 1214.86L1116.9 1213.87L1117.19 1213.92L1117.41 1214.11L1116.74 1214.86ZM1112.96 1214.44L1113.01 1213.44L1112.96 1214.44ZM1070.09 1242.51L1069.25 1241.98L1070.09 1242.51ZM1049.1 1316.44L1048.92 1317.42L1048.06 1317.26L1048.11 1316.38L1049.1 1316.44ZM1111.08 1328.41L1111.27 1327.42L1114.84 1328.11L1111.42 1329.35L1111.08 1328.41ZM1049.94 1350.47L1048.94 1350.57L1048.86 1349.79L1049.6 1349.52L1049.94 1350.47ZM1074.46 1420.66L1073.66 1421.26L1074.46 1420.66ZM1116.74 1441.95L1117.41 1442.7L1117.2 1442.89L1116.91 1442.94L1116.74 1441.95ZM1116.57 1215.84C1115.35 1215.64 1114.13 1215.5 1112.9 1215.44L1113.01 1213.44C1114.32 1213.51 1115.61 1213.65 1116.9 1213.87L1116.57 1215.84ZM1112.9 1215.44C1097.7 1214.6 1082.68 1224.29 1070.94 1243.05L1069.25 1241.98C1081.19 1222.9 1096.79 1212.54 1113.01 1213.44L1112.9 1215.44ZM1070.94 1243.05C1059.21 1261.78 1051.75 1288.02 1050.1 1316.5L1048.11 1316.38C1049.76 1287.66 1057.29 1261.08 1069.25 1241.98L1070.94 1243.05ZM1049.29 1315.46L1111.27 1327.42L1110.89 1329.39L1048.92 1317.42L1049.29 1315.46ZM1111.42 1329.35L1050.28 1351.41L1049.6 1349.52L1110.74 1327.47L1111.42 1329.35ZM1050.93 1350.36C1053.96 1378.46 1062.68 1403.34 1075.25 1420.06L1073.66 1421.26C1060.8 1404.17 1052 1378.91 1048.94 1350.57L1050.93 1350.36ZM1075.25 1420.06C1087.35 1436.14 1102.05 1443.4 1116.58 1440.97L1116.91 1442.94C1101.4 1445.53 1086.03 1437.71 1073.66 1421.26L1075.25 1420.06ZM1116.07 1441.21C1139.49 1420.06 1155.62 1377.57 1155.62 1328.41H1157.62C1157.62 1377.9 1141.4 1421.04 1117.41 1442.7L1116.07 1441.21ZM1155.62 1328.41C1155.62 1279.24 1139.49 1236.74 1116.07 1215.6L1117.41 1214.11C1141.4 1235.77 1157.62 1278.91 1157.62 1328.41H1155.62Z" fill="black" mask="url(#path-7-inside-3_351_2904)"/>
<ellipse cx="978.048" cy="1485.51" rx="61.1187" ry="26.5863" fill="#F7C1B8"/>
<ellipse cx="1397.49" cy="1485.51" rx="61.1187" ry="26.5863" fill="#F7C1B8"/>
<ellipse cx="1210.53" cy="1527.8" rx="39.5474" ry="85.8014" fill="#E44E30"/>
<path d="M721.941 1260.67C721.941 1267.28 716.63 1272.63 710.088 1272.63C703.545 1272.63 698.234 1267.28 698.234 1260.67C698.234 1254.06 703.545 1248.71 710.088 1248.71C716.63 1248.71 721.941 1254.06 721.941 1260.67Z" fill="white" stroke="#FFBD2E"/>
<mask id="path-13-inside-4_351_2904" fill="white">
<path fill-rule="evenodd" clip-rule="evenodd" d="M969.647 1128.14C967.508 1126.72 964.829 1126.24 962.201 1126.81L962.208 1126.86C914.828 1125.67 869.294 1133.09 828.659 1148.63C787.952 1164.19 753.105 1187.54 726.464 1217.11L726.607 1217.2C725.374 1219.96 725.137 1223.12 725.958 1226.06C726.827 1229.17 728.811 1231.79 731.474 1233.33C734.137 1234.87 737.26 1235.21 740.157 1234.28C742.634 1233.48 744.771 1231.8 746.235 1229.54C770.962 1202.36 803.175 1180.87 840.749 1166.5C878.612 1152.02 921.041 1145.11 965.19 1146.23L965.194 1146.26C965.229 1146.25 965.264 1146.24 965.299 1146.24C965.322 1146.24 965.344 1146.24 965.367 1146.24L965.365 1146.22C967.925 1145.62 970.22 1144.07 971.764 1141.89C973.342 1139.66 974.005 1136.96 973.609 1134.38C973.212 1131.8 971.787 1129.56 969.647 1128.14Z"/>
</mask>
<path fill-rule="evenodd" clip-rule="evenodd" d="M969.647 1128.14C967.508 1126.72 964.829 1126.24 962.201 1126.81L962.208 1126.86C914.828 1125.67 869.294 1133.09 828.659 1148.63C787.952 1164.19 753.105 1187.54 726.464 1217.11L726.607 1217.2C725.374 1219.96 725.137 1223.12 725.958 1226.06C726.827 1229.17 728.811 1231.79 731.474 1233.33C734.137 1234.87 737.26 1235.21 740.157 1234.28C742.634 1233.48 744.771 1231.8 746.235 1229.54C770.962 1202.36 803.175 1180.87 840.749 1166.5C878.612 1152.02 921.041 1145.11 965.19 1146.23L965.194 1146.26C965.229 1146.25 965.264 1146.24 965.299 1146.24C965.322 1146.24 965.344 1146.24 965.367 1146.24L965.365 1146.22C967.925 1145.62 970.22 1144.07 971.764 1141.89C973.342 1139.66 974.005 1136.96 973.609 1134.38C973.212 1131.8 971.787 1129.56 969.647 1128.14Z" fill="white"/>
<path d="M962.201 1126.81L961.988 1125.84L961.069 1126.04L961.212 1126.97L962.201 1126.81ZM969.647 1128.14L969.094 1128.97V1128.97L969.647 1128.14ZM962.208 1126.86L962.183 1127.86L963.379 1127.89L963.197 1126.71L962.208 1126.86ZM828.659 1148.63L828.301 1147.69L828.659 1148.63ZM726.464 1217.11L725.721 1216.44L724.958 1217.28L725.896 1217.93L726.464 1217.11ZM726.607 1217.2L727.52 1217.61L727.86 1216.85L727.175 1216.38L726.607 1217.2ZM725.958 1226.06L726.921 1225.79L725.958 1226.06ZM731.474 1233.33L731.975 1232.46H731.975L731.474 1233.33ZM740.157 1234.28L740.464 1235.23H740.464L740.157 1234.28ZM746.235 1229.54L745.495 1228.87L745.44 1228.93L745.396 1229L746.235 1229.54ZM840.749 1166.5L840.392 1165.57L840.749 1166.5ZM965.19 1146.23L966.178 1146.08L966.051 1145.25L965.215 1145.23L965.19 1146.23ZM965.194 1146.26L964.206 1146.41L964.368 1147.46L965.406 1147.24L965.194 1146.26ZM965.299 1146.24L965.324 1145.24L965.199 1145.23L965.076 1145.26L965.299 1146.24ZM965.367 1146.24L965.341 1147.24L966.534 1147.27L966.356 1146.09L965.367 1146.24ZM965.365 1146.22L965.136 1145.25L964.239 1145.46L964.376 1146.37L965.365 1146.22ZM971.764 1141.89L972.58 1142.47V1142.47L971.764 1141.89ZM973.609 1134.38L974.597 1134.23V1134.23L973.609 1134.38ZM962.413 1127.79C964.792 1127.27 967.192 1127.71 969.094 1128.97L970.2 1127.31C967.824 1125.73 964.867 1125.21 961.988 1125.84L962.413 1127.79ZM963.197 1126.71L963.189 1126.66L961.212 1126.97L961.22 1127.02L963.197 1126.71ZM829.016 1149.56C869.518 1134.07 914.922 1126.67 962.183 1127.86L962.233 1125.86C914.735 1124.67 869.069 1132.1 828.301 1147.69L829.016 1149.56ZM727.206 1217.78C753.733 1188.34 788.442 1165.07 829.016 1149.56L828.301 1147.69C787.461 1163.31 752.478 1186.74 725.721 1216.44L727.206 1217.78ZM727.175 1216.38L727.031 1216.28L725.896 1217.93L726.04 1218.03L727.175 1216.38ZM726.921 1225.79C726.163 1223.07 726.382 1220.15 727.52 1217.61L725.695 1216.8C724.365 1219.76 724.112 1223.16 724.995 1226.32L726.921 1225.79ZM731.975 1232.46C729.551 1231.06 727.724 1228.67 726.921 1225.79L724.995 1226.32C725.93 1229.68 728.072 1232.52 730.973 1234.2L731.975 1232.46ZM739.85 1233.33C737.226 1234.17 734.396 1233.87 731.975 1232.46L730.973 1234.2C733.878 1235.88 737.295 1236.25 740.464 1235.23L739.85 1233.33ZM745.396 1229C744.05 1231.08 742.096 1232.6 739.85 1233.33L740.464 1235.23C743.171 1234.36 745.492 1232.53 747.074 1230.09L745.396 1229ZM840.392 1165.57C802.686 1179.98 770.337 1201.56 745.495 1228.87L746.975 1230.22C771.587 1203.15 803.664 1181.75 841.106 1167.43L840.392 1165.57ZM965.215 1145.23C920.948 1144.11 878.387 1151.04 840.392 1165.57L841.106 1167.43C878.836 1153.01 921.134 1146.12 965.164 1147.23L965.215 1145.23ZM966.182 1146.11L966.178 1146.08L964.202 1146.39L964.206 1146.41L966.182 1146.11ZM965.076 1145.26C965.045 1145.27 965.013 1145.27 964.982 1145.28L965.406 1147.24C965.445 1147.23 965.483 1147.22 965.521 1147.21L965.076 1145.26ZM965.393 1145.24C965.37 1145.24 965.347 1145.24 965.324 1145.24L965.273 1147.24C965.296 1147.24 965.319 1147.24 965.341 1147.24L965.393 1145.24ZM964.376 1146.37L964.378 1146.39L966.356 1146.09L966.354 1146.07L964.376 1146.37ZM970.948 1141.31C969.543 1143.29 967.455 1144.7 965.136 1145.25L965.593 1147.19C968.394 1146.54 970.897 1144.84 972.58 1142.47L970.948 1141.31ZM972.62 1134.53C972.976 1136.84 972.384 1139.28 970.948 1141.31L972.58 1142.47C974.3 1140.04 975.035 1137.08 974.597 1134.23L972.62 1134.53ZM969.094 1128.97C970.995 1130.23 972.265 1132.23 972.62 1134.53L974.597 1134.23C974.158 1131.38 972.578 1128.88 970.2 1127.31L969.094 1128.97Z" fill="#FFBD2E" mask="url(#path-13-inside-4_351_2904)"/>
</svg>
