<svg width="1531" height="1787" viewBox="0 0 1531 1787" fill="none" xmlns="http://www.w3.org/2000/svg">
<mask id="path-1-inside-1_351_3014" fill="white">
<path fill-rule="evenodd" clip-rule="evenodd" d="M722.204 44.8999C722.28 44.9712 722.357 45.0426 722.433 45.1141L722.204 45.4767V743.601V1166.38C807.976 1101.37 926.069 1061.21 1056.44 1061.21C1318.54 1061.21 1531.01 1223.53 1531.01 1423.75C1531.01 1623.98 1318.54 1786.29 1056.44 1786.29C794.343 1786.29 581.871 1623.98 581.871 1423.75C581.871 1420.42 581.93 1417.11 582.046 1413.8L547.515 268.084C545.935 242.946 542.714 224.727 518.89 218.589C500.222 213.78 468.118 210.964 440.571 218.589C438.374 219.198 436.202 219.787 434.049 220.37C409.206 227.106 387.005 233.125 360.91 259.439C346.805 273.662 337.3 288.492 327.913 303.139C307.822 334.486 288.271 364.991 225.327 386.894L182.656 393.43H154.57H128.643L100.826 391.796L82.4637 388.799L62.7471 384.987L49.4158 381.175L36.2806 373.549L0.361816 343.592C11.8348 341.022 26.4047 340.941 43.0502 340.849C100.463 340.53 182.57 340.076 247.475 236.836C249.458 234.189 251.485 231.478 253.554 228.712C294.902 173.42 352.842 95.9421 409.627 61.5372C469.254 25.4111 531.305 4.08743 587.359 0.460015C641.848 -3.06605 687.606 13.9362 719.7 42.6125H722.204V44.8999Z"/>
</mask>
<path fill-rule="evenodd" clip-rule="evenodd" d="M722.204 44.8999C722.28 44.9712 722.357 45.0426 722.433 45.1141L722.204 45.4767V743.601V1166.38C807.976 1101.37 926.069 1061.21 1056.44 1061.21C1318.54 1061.21 1531.01 1223.53 1531.01 1423.75C1531.01 1623.98 1318.54 1786.29 1056.44 1786.29C794.343 1786.29 581.871 1623.98 581.871 1423.75C581.871 1420.42 581.93 1417.11 582.046 1413.8L547.515 268.084C545.935 242.946 542.714 224.727 518.89 218.589C500.222 213.78 468.118 210.964 440.571 218.589C438.374 219.198 436.202 219.787 434.049 220.37C409.206 227.106 387.005 233.125 360.91 259.439C346.805 273.662 337.3 288.492 327.913 303.139C307.822 334.486 288.271 364.991 225.327 386.894L182.656 393.43H154.57H128.643L100.826 391.796L82.4637 388.799L62.7471 384.987L49.4158 381.175L36.2806 373.549L0.361816 343.592C11.8348 341.022 26.4047 340.941 43.0502 340.849C100.463 340.53 182.57 340.076 247.475 236.836C249.458 234.189 251.485 231.478 253.554 228.712C294.902 173.42 352.842 95.9421 409.627 61.5372C469.254 25.4111 531.305 4.08743 587.359 0.460015C641.848 -3.06605 687.606 13.9362 719.7 42.6125H722.204V44.8999Z" fill="#1BF64B"/>
<path d="M722.433 45.1141L736.112 30.5233L748.165 41.8231L739.344 55.7926L722.433 45.1141ZM722.204 44.8999L708.557 59.5201L702.204 53.5901V44.8999H722.204ZM722.204 45.4767H702.204V39.6905L705.293 34.7982L722.204 45.4767ZM722.204 1166.38L734.285 1182.32L702.204 1206.63V1166.38H722.204ZM582.046 1413.8L602.037 1413.2L602.057 1413.85L602.034 1414.51L582.046 1413.8ZM547.515 268.084L567.476 266.829L567.496 267.155L567.506 267.482L547.515 268.084ZM518.89 218.589L513.901 237.957L518.89 218.589ZM440.571 218.589L435.235 199.314L435.236 199.314L440.571 218.589ZM434.049 220.37L439.282 239.673L439.282 239.674L434.049 220.37ZM360.91 259.439L375.111 273.522V273.522L360.91 259.439ZM327.913 303.139L344.751 313.931V313.931L327.913 303.139ZM225.327 386.894L231.9 405.783L230.168 406.385L228.355 406.663L225.327 386.894ZM182.656 393.43L185.685 413.199L184.179 413.43H182.656V393.43ZM128.643 393.43V413.43H128.056L127.47 413.395L128.643 393.43ZM100.826 391.796L99.6536 411.761L98.6234 411.701L97.605 411.534L100.826 391.796ZM82.4637 388.799L79.2423 408.538L78.9542 408.491L78.6677 408.435L82.4637 388.799ZM62.7471 384.987L58.951 404.624L58.0905 404.457L57.2477 404.216L62.7471 384.987ZM49.4158 381.175L43.9164 400.404L41.5253 399.72L39.3745 398.471L49.4158 381.175ZM36.2806 373.549L26.2394 390.846L24.7729 389.994L23.4708 388.908L36.2806 373.549ZM0.361816 343.592L-12.448 358.952L-43.6219 332.952L-4.01135 324.076L0.361816 343.592ZM43.0502 340.849L43.161 360.848L43.0502 340.849ZM247.475 236.836L230.543 226.191L230.979 225.498L231.469 224.843L247.475 236.836ZM253.554 228.712L269.571 240.69L269.571 240.69L253.554 228.712ZM409.627 61.5372L419.991 78.6425L409.627 61.5372ZM587.359 0.460015L588.651 20.4183L587.359 0.460015ZM719.7 42.6125V62.6125H712.066L706.374 57.5264L719.7 42.6125ZM722.204 42.6125V22.6125H742.204V42.6125H722.204ZM708.754 59.7048C708.69 59.6447 708.624 59.5832 708.557 59.5201L735.851 30.2797C735.937 30.3592 736.023 30.4405 736.112 30.5233L708.754 59.7048ZM705.293 34.7982L705.522 34.4355L739.344 55.7926L739.115 56.1553L705.293 34.7982ZM702.204 743.601V45.4767H742.204V743.601H702.204ZM702.204 1166.38V743.601H742.204V1166.38H702.204ZM1056.44 1081.21C930.046 1081.21 816.286 1120.17 734.285 1182.32L710.123 1150.44C799.667 1082.57 922.091 1041.21 1056.44 1041.21V1081.21ZM1511.01 1423.75C1511.01 1331.19 1461.94 1245.99 1379.87 1183.29C1297.77 1120.57 1183.49 1081.21 1056.44 1081.21V1041.21C1191.48 1041.21 1314.49 1083 1404.15 1151.5C1493.84 1220.02 1551.01 1316.09 1551.01 1423.75H1511.01ZM1056.44 1766.29C1183.49 1766.29 1297.77 1726.93 1379.87 1664.21C1461.94 1601.51 1511.01 1516.32 1511.01 1423.75H1551.01C1551.01 1531.41 1493.84 1627.49 1404.15 1696C1314.49 1764.5 1191.48 1806.29 1056.44 1806.29V1766.29ZM601.871 1423.75C601.871 1516.32 650.934 1601.51 733.01 1664.21C815.104 1726.93 929.387 1766.29 1056.44 1766.29V1806.29C921.395 1806.29 798.394 1764.5 708.728 1696C619.043 1627.49 561.871 1531.41 561.871 1423.75H601.871ZM602.034 1414.51C601.925 1417.58 601.871 1420.66 601.871 1423.75H561.871C561.871 1420.19 561.934 1416.64 562.059 1413.1L602.034 1414.51ZM567.506 267.482L602.037 1413.2L562.055 1414.41L527.524 268.687L567.506 267.482ZM523.88 199.222C541.177 203.678 552.963 213.498 559.642 227.7C565.457 240.062 566.704 254.552 567.476 266.829L527.555 269.339C526.746 256.477 525.593 249.289 523.446 244.723C522.163 241.997 520.427 239.638 513.901 237.957L523.88 199.222ZM435.236 199.314C467.014 190.518 502.802 193.792 523.88 199.222L513.901 237.957C497.643 233.769 469.222 231.411 445.907 237.865L435.236 199.314ZM428.815 201.067C430.976 200.481 433.098 199.906 435.235 199.314L445.907 237.865C443.651 238.489 441.427 239.092 439.282 239.673L428.815 201.067ZM346.708 245.356C376.677 215.136 403.211 208.009 428.815 201.067L439.282 239.674C415.2 246.202 397.333 251.113 375.111 273.522L346.708 245.356ZM311.074 292.347C320.381 277.827 330.915 261.282 346.708 245.356L375.111 273.522C362.695 286.042 354.22 299.158 344.751 313.931L311.074 292.347ZM218.754 368.004C247.974 357.837 266.076 346.068 279.027 333.953C292.225 321.606 300.923 308.186 311.074 292.347L344.751 313.931C334.812 329.439 323.69 346.945 306.353 363.163C288.77 379.613 265.624 394.048 231.9 405.783L218.754 368.004ZM179.628 373.66L222.299 367.124L228.355 406.663L185.685 413.199L179.628 373.66ZM154.57 373.43H182.656V413.43H154.57V373.43ZM128.643 373.43H154.57V413.43H128.643V373.43ZM101.999 371.83L129.816 373.464L127.47 413.395L99.6536 411.761L101.999 371.83ZM85.6852 369.06L104.048 372.057L97.605 411.534L79.2423 408.538L85.6852 369.06ZM66.5431 365.351L86.2598 369.162L78.6677 408.435L58.951 404.624L66.5431 365.351ZM54.9152 361.945L68.2465 365.758L57.2477 404.216L43.9164 400.404L54.9152 361.945ZM46.3219 356.253L59.457 363.878L39.3745 398.471L26.2394 390.846L46.3219 356.253ZM13.1716 328.233L49.0905 358.19L23.4708 388.908L-12.448 358.952L13.1716 328.233ZM43.161 360.848C25.7379 360.945 13.6348 361.114 4.73499 363.108L-4.01135 324.076C10.0349 320.929 27.0714 320.937 42.9393 320.849L43.161 360.848ZM264.407 247.481C229.718 302.657 189.51 331.569 149.304 346.228C109.81 360.627 71.6382 360.69 43.161 360.848L42.9393 320.849C71.8748 320.689 103.463 320.365 135.602 308.648C167.028 297.19 200.326 274.254 230.543 226.191L264.407 247.481ZM269.571 240.69C267.503 243.455 265.47 246.173 263.48 248.828L231.469 224.843C233.446 222.205 235.468 219.502 237.537 216.734L269.571 240.69ZM419.991 78.6425C394.265 94.2297 367.202 120.341 340.855 150.46C314.687 180.374 290.309 212.958 269.571 240.69L237.537 216.735C258.147 189.174 283.413 155.373 310.748 124.124C337.905 93.08 368.205 63.2496 399.264 44.4318L419.991 78.6425ZM588.651 20.4183C536.488 23.7938 477.518 43.7884 419.991 78.6425L399.264 44.4318C460.989 7.03383 526.122 -15.619 586.068 -19.4982L588.651 20.4183ZM706.374 57.5264C678.526 32.644 638.127 17.2165 588.651 20.4183L586.068 -19.4982C645.568 -23.3486 696.685 -4.77162 733.025 27.6986L706.374 57.5264ZM722.204 62.6125H719.7V22.6125H722.204V62.6125ZM702.204 44.8999V42.6125H742.204V44.8999H702.204Z" fill="#12FC45" mask="url(#path-1-inside-1_351_3014)"/>
<path d="M1222.09 1328.41C1222.09 1362.34 1230.09 1392.57 1242.51 1413.97C1255.07 1435.63 1270.94 1446.51 1286.39 1446.51C1301.85 1446.51 1317.72 1435.63 1330.28 1413.97C1342.7 1392.57 1350.7 1362.34 1350.7 1328.41C1350.7 1294.48 1342.7 1264.25 1330.28 1242.85C1317.72 1221.19 1301.85 1210.31 1286.39 1210.31C1270.94 1210.31 1255.07 1221.19 1242.51 1242.85C1230.09 1264.25 1222.09 1294.48 1222.09 1328.41Z" fill="white" stroke="black" stroke-width="20"/>
<mask id="path-4-inside-2_351_3014" fill="white">
<path fill-rule="evenodd" clip-rule="evenodd" d="M1320.82 1214.86C1319.57 1214.65 1318.31 1214.51 1317.04 1214.44C1301.33 1213.57 1286.02 1223.6 1274.18 1242.51C1262.34 1261.43 1254.84 1287.84 1253.19 1316.44L1315.16 1328.41L1254.02 1350.47C1257.07 1378.68 1265.82 1403.76 1278.54 1420.66C1290.78 1436.92 1305.81 1444.46 1320.83 1441.95C1344.53 1420.55 1360.7 1377.74 1360.7 1328.41C1360.7 1279.08 1344.53 1236.26 1320.82 1214.86Z"/>
</mask>
<path fill-rule="evenodd" clip-rule="evenodd" d="M1320.82 1214.86C1319.57 1214.65 1318.31 1214.51 1317.04 1214.44C1301.33 1213.57 1286.02 1223.6 1274.18 1242.51C1262.34 1261.43 1254.84 1287.84 1253.19 1316.44L1315.16 1328.41L1254.02 1350.47C1257.07 1378.68 1265.82 1403.76 1278.54 1420.66C1290.78 1436.92 1305.81 1444.46 1320.83 1441.95C1344.53 1420.55 1360.7 1377.74 1360.7 1328.41C1360.7 1279.08 1344.53 1236.26 1320.82 1214.86Z" fill="black"/>
<path d="M1320.82 1214.86L1320.99 1213.87L1321.28 1213.92L1321.49 1214.11L1320.82 1214.86ZM1317.04 1214.44L1316.99 1215.44L1317.04 1214.44ZM1274.18 1242.51L1273.33 1241.98L1274.18 1242.51ZM1253.19 1316.44L1253 1317.42L1252.14 1317.26L1252.19 1316.38L1253.19 1316.44ZM1315.16 1328.41L1315.35 1327.42L1318.92 1328.11L1315.5 1329.35L1315.16 1328.41ZM1254.02 1350.47L1253.03 1350.57L1252.95 1349.79L1253.68 1349.52L1254.02 1350.47ZM1278.54 1420.66L1279.34 1420.06L1278.54 1420.66ZM1320.83 1441.95L1321.5 1442.7L1321.28 1442.89L1320.99 1442.94L1320.83 1441.95ZM1320.66 1215.84C1319.44 1215.64 1318.22 1215.5 1316.99 1215.44L1317.1 1213.44C1318.4 1213.51 1319.7 1213.65 1320.99 1213.87L1320.66 1215.84ZM1316.99 1215.44C1301.78 1214.6 1286.77 1224.29 1275.03 1243.05L1273.33 1241.98C1285.28 1222.9 1300.88 1212.54 1317.1 1213.44L1316.99 1215.44ZM1275.03 1243.05C1263.3 1261.78 1255.83 1288.02 1254.19 1316.5L1252.19 1316.38C1253.85 1287.66 1261.38 1261.08 1273.33 1241.98L1275.03 1243.05ZM1253.38 1315.46L1315.35 1327.42L1314.97 1329.39L1253 1317.42L1253.38 1315.46ZM1315.5 1329.35L1254.36 1351.41L1253.68 1349.52L1314.82 1327.47L1315.5 1329.35ZM1255.02 1350.36C1258.05 1378.46 1266.76 1403.34 1279.34 1420.06L1277.74 1421.26C1264.88 1404.17 1256.08 1378.91 1253.03 1350.57L1255.02 1350.36ZM1279.34 1420.06C1291.44 1436.14 1306.14 1443.4 1320.66 1440.97L1320.99 1442.94C1305.48 1445.53 1290.12 1437.71 1277.74 1421.26L1279.34 1420.06ZM1320.16 1441.21C1343.58 1420.06 1359.7 1377.57 1359.7 1328.41H1361.7C1361.7 1377.9 1345.48 1421.04 1321.5 1442.7L1320.16 1441.21ZM1359.7 1328.41C1359.7 1279.24 1343.57 1236.74 1320.15 1215.6L1321.49 1214.11C1345.48 1235.77 1361.7 1278.91 1361.7 1328.41H1359.7Z" fill="black" mask="url(#path-4-inside-2_351_3014)"/>
<path d="M1018.37 1328.41C1018.37 1362.34 1026.36 1392.57 1038.78 1413.97C1051.34 1435.63 1067.21 1446.51 1082.67 1446.51C1098.12 1446.51 1113.99 1435.63 1126.56 1413.97C1138.97 1392.57 1146.97 1362.34 1146.97 1328.41C1146.97 1294.48 1138.97 1264.25 1126.56 1242.85C1113.99 1221.19 1098.12 1210.31 1082.67 1210.31C1067.21 1210.31 1051.34 1221.19 1038.78 1242.85C1026.36 1264.25 1018.37 1294.48 1018.37 1328.41Z" fill="white" stroke="black" stroke-width="20"/>
<mask id="path-7-inside-3_351_3014" fill="white">
<path fill-rule="evenodd" clip-rule="evenodd" d="M1117.1 1214.86C1115.84 1214.65 1114.58 1214.51 1113.32 1214.44C1097.6 1213.57 1082.29 1223.6 1070.45 1242.51C1058.61 1261.43 1051.11 1287.84 1049.46 1316.44L1111.44 1328.41L1050.3 1350.47C1053.34 1378.68 1062.1 1403.76 1074.82 1420.66C1087.05 1436.92 1102.08 1444.46 1117.1 1441.95C1140.8 1420.55 1156.98 1377.74 1156.98 1328.41C1156.98 1279.08 1140.8 1236.26 1117.1 1214.86Z"/>
</mask>
<path fill-rule="evenodd" clip-rule="evenodd" d="M1117.1 1214.86C1115.84 1214.65 1114.58 1214.51 1113.32 1214.44C1097.6 1213.57 1082.29 1223.6 1070.45 1242.51C1058.61 1261.43 1051.11 1287.84 1049.46 1316.44L1111.44 1328.41L1050.3 1350.47C1053.34 1378.68 1062.1 1403.76 1074.82 1420.66C1087.05 1436.92 1102.08 1444.46 1117.1 1441.95C1140.8 1420.55 1156.98 1377.74 1156.98 1328.41C1156.98 1279.08 1140.8 1236.26 1117.1 1214.86Z" fill="black"/>
<path d="M1117.1 1214.86L1117.26 1213.87L1117.55 1213.92L1117.77 1214.11L1117.1 1214.86ZM1113.32 1214.44L1113.37 1213.44L1113.32 1214.44ZM1070.45 1242.51L1069.6 1241.98L1070.45 1242.51ZM1049.46 1316.44L1049.27 1317.42L1048.42 1317.26L1048.47 1316.38L1049.46 1316.44ZM1111.44 1328.41L1111.63 1327.42L1115.2 1328.11L1111.78 1329.35L1111.44 1328.41ZM1050.3 1350.47L1049.3 1350.57L1049.22 1349.79L1049.96 1349.52L1050.3 1350.47ZM1074.82 1420.66L1074.02 1421.26L1074.82 1420.66ZM1117.1 1441.95L1117.77 1442.7L1117.56 1442.89L1117.27 1442.94L1117.1 1441.95ZM1116.93 1215.84C1115.71 1215.64 1114.49 1215.5 1113.26 1215.44L1113.37 1213.44C1114.67 1213.51 1115.97 1213.65 1117.26 1213.87L1116.93 1215.84ZM1113.26 1215.44C1098.06 1214.6 1083.04 1224.29 1071.3 1243.05L1069.6 1241.98C1081.55 1222.9 1097.15 1212.54 1113.37 1213.44L1113.26 1215.44ZM1071.3 1243.05C1059.57 1261.78 1052.11 1288.02 1050.46 1316.5L1048.47 1316.38C1050.12 1287.66 1057.65 1261.08 1069.6 1241.98L1071.3 1243.05ZM1049.65 1315.46L1111.63 1327.42L1111.25 1329.39L1049.27 1317.42L1049.65 1315.46ZM1111.78 1329.35L1050.64 1351.41L1049.96 1349.52L1111.1 1327.47L1111.78 1329.35ZM1051.29 1350.36C1054.32 1378.46 1063.03 1403.34 1075.61 1420.06L1074.02 1421.26C1061.16 1404.17 1052.36 1378.91 1049.3 1350.57L1051.29 1350.36ZM1075.61 1420.06C1087.71 1436.14 1102.41 1443.4 1116.94 1440.97L1117.27 1442.94C1101.76 1445.53 1086.39 1437.71 1074.02 1421.26L1075.61 1420.06ZM1116.43 1441.21C1139.85 1420.06 1155.98 1377.57 1155.98 1328.41H1157.98C1157.98 1377.9 1141.76 1421.04 1117.77 1442.7L1116.43 1441.21ZM1155.98 1328.41C1155.98 1279.24 1139.85 1236.74 1116.43 1215.6L1117.77 1214.11C1141.76 1235.77 1157.98 1278.91 1157.98 1328.41H1155.98Z" fill="black" mask="url(#path-7-inside-3_351_3014)"/>
<ellipse cx="978.408" cy="1485.51" rx="61.1187" ry="26.5863" fill="#F7C1B8"/>
<ellipse cx="1397.85" cy="1485.51" rx="61.1187" ry="26.5863" fill="#F7C1B8"/>
<ellipse cx="1210.9" cy="1527.8" rx="39.5474" ry="85.8014" fill="#E44E30"/>
<path d="M722.3 1260.67C722.3 1267.28 716.989 1272.63 710.447 1272.63C703.905 1272.63 698.594 1267.28 698.594 1260.67C698.594 1254.06 703.905 1248.71 710.447 1248.71C716.989 1248.71 722.3 1254.06 722.3 1260.67Z" fill="white" stroke="#FFBD2E"/>
<mask id="path-13-inside-4_351_3014" fill="white">
<path fill-rule="evenodd" clip-rule="evenodd" d="M970.007 1128.14C967.867 1126.72 965.189 1126.24 962.56 1126.81L962.568 1126.86C915.187 1125.67 869.653 1133.09 829.018 1148.63C788.311 1164.19 753.465 1187.54 726.823 1217.11L726.967 1217.2C725.733 1219.96 725.497 1223.12 726.317 1226.06C727.186 1229.17 729.171 1231.79 731.834 1233.33C734.496 1234.87 737.62 1235.21 740.516 1234.28C742.993 1233.48 745.131 1231.8 746.594 1229.54C771.321 1202.36 803.534 1180.87 841.108 1166.5C878.971 1152.02 921.4 1145.11 965.549 1146.23L965.553 1146.26C965.588 1146.25 965.623 1146.24 965.658 1146.24C965.681 1146.24 965.704 1146.24 965.727 1146.24L965.724 1146.22C968.284 1145.62 970.579 1144.07 972.123 1141.89C973.701 1139.66 974.365 1136.96 973.968 1134.38C973.571 1131.8 972.146 1129.56 970.007 1128.14Z"/>
</mask>
<path fill-rule="evenodd" clip-rule="evenodd" d="M970.007 1128.14C967.867 1126.72 965.189 1126.24 962.56 1126.81L962.568 1126.86C915.187 1125.67 869.653 1133.09 829.018 1148.63C788.311 1164.19 753.465 1187.54 726.823 1217.11L726.967 1217.2C725.733 1219.96 725.497 1223.12 726.317 1226.06C727.186 1229.17 729.171 1231.79 731.834 1233.33C734.496 1234.87 737.62 1235.21 740.516 1234.28C742.993 1233.48 745.131 1231.8 746.594 1229.54C771.321 1202.36 803.534 1180.87 841.108 1166.5C878.971 1152.02 921.4 1145.11 965.549 1146.23L965.553 1146.26C965.588 1146.25 965.623 1146.24 965.658 1146.24C965.681 1146.24 965.704 1146.24 965.727 1146.24L965.724 1146.22C968.284 1145.62 970.579 1144.07 972.123 1141.89C973.701 1139.66 974.365 1136.96 973.968 1134.38C973.571 1131.8 972.146 1129.56 970.007 1128.14Z" fill="white"/>
<path d="M962.56 1126.81L962.348 1125.84L961.428 1126.04L961.572 1126.97L962.56 1126.81ZM970.007 1128.14L969.454 1128.97V1128.97L970.007 1128.14ZM962.568 1126.86L962.542 1127.86L963.738 1127.89L963.556 1126.71L962.568 1126.86ZM829.018 1148.63L828.661 1147.69L829.018 1148.63ZM726.823 1217.11L726.08 1216.44L725.318 1217.28L726.255 1217.93L726.823 1217.11ZM726.967 1217.2L727.879 1217.61L728.22 1216.85L727.535 1216.38L726.967 1217.2ZM726.317 1226.06L727.28 1225.79L726.317 1226.06ZM731.834 1233.33L732.335 1232.46H732.335L731.834 1233.33ZM740.516 1234.28L740.823 1235.23H740.823L740.516 1234.28ZM746.594 1229.54L745.855 1228.87L745.8 1228.93L745.755 1229L746.594 1229.54ZM841.108 1166.5L840.751 1165.57L841.108 1166.5ZM965.549 1146.23L966.538 1146.08L966.41 1145.25L965.575 1145.23L965.549 1146.23ZM965.553 1146.26L964.565 1146.41L964.727 1147.46L965.766 1147.24L965.553 1146.26ZM965.658 1146.24L965.684 1145.24L965.558 1145.23L965.436 1145.26L965.658 1146.24ZM965.727 1146.24L965.701 1147.24L966.893 1147.27L966.716 1146.09L965.727 1146.24ZM965.724 1146.22L965.495 1145.25L964.598 1145.46L964.735 1146.37L965.724 1146.22ZM972.123 1141.89L972.939 1142.47V1142.47L972.123 1141.89ZM973.968 1134.38L974.956 1134.23V1134.23L973.968 1134.38ZM962.772 1127.79C965.151 1127.27 967.551 1127.71 969.454 1128.97L970.559 1127.31C968.183 1125.73 965.226 1125.21 962.348 1125.84L962.772 1127.79ZM963.556 1126.71L963.548 1126.66L961.572 1126.97L961.579 1127.02L963.556 1126.71ZM829.375 1149.56C869.878 1134.07 915.281 1126.67 962.542 1127.86L962.593 1125.86C915.094 1124.67 869.429 1132.1 828.661 1147.69L829.375 1149.56ZM727.566 1217.78C754.092 1188.34 788.802 1165.07 829.375 1149.56L828.661 1147.69C787.821 1163.31 752.838 1186.74 726.08 1216.44L727.566 1217.78ZM727.535 1216.38L727.391 1216.28L726.255 1217.93L726.399 1218.03L727.535 1216.38ZM727.28 1225.79C726.522 1223.07 726.742 1220.15 727.879 1217.61L726.054 1216.8C724.724 1219.76 724.471 1223.16 725.354 1226.32L727.28 1225.79ZM732.335 1232.46C729.91 1231.06 728.083 1228.67 727.28 1225.79L725.354 1226.32C726.289 1229.68 728.431 1232.52 731.332 1234.2L732.335 1232.46ZM740.209 1233.33C737.585 1234.17 734.756 1233.87 732.335 1232.46L731.332 1234.2C734.237 1235.88 737.654 1236.25 740.823 1235.23L740.209 1233.33ZM745.755 1229C744.41 1231.08 742.455 1232.6 740.209 1233.33L740.823 1235.23C743.531 1234.36 745.851 1232.53 747.434 1230.09L745.755 1229ZM840.751 1165.57C803.045 1179.98 770.697 1201.56 745.855 1228.87L747.334 1230.22C771.946 1203.15 804.024 1181.75 841.465 1167.43L840.751 1165.57ZM965.575 1145.23C921.307 1144.11 878.746 1151.04 840.751 1165.57L841.465 1167.43C879.196 1153.01 921.494 1146.12 965.524 1147.23L965.575 1145.23ZM966.542 1146.11L966.538 1146.08L964.561 1146.39L964.565 1146.41L966.542 1146.11ZM965.436 1145.26C965.404 1145.27 965.372 1145.27 965.341 1145.28L965.766 1147.24C965.804 1147.23 965.842 1147.22 965.88 1147.21L965.436 1145.26ZM965.753 1145.24C965.73 1145.24 965.707 1145.24 965.684 1145.24L965.632 1147.24C965.655 1147.24 965.678 1147.24 965.701 1147.24L965.753 1145.24ZM964.735 1146.37L964.738 1146.39L966.716 1146.09L966.713 1146.07L964.735 1146.37ZM971.307 1141.31C969.902 1143.29 967.815 1144.7 965.495 1145.25L965.953 1147.19C968.754 1146.54 971.256 1144.84 972.939 1142.47L971.307 1141.31ZM972.98 1134.53C973.335 1136.84 972.743 1139.28 971.307 1141.31L972.939 1142.47C974.66 1140.04 975.395 1137.08 974.956 1134.23L972.98 1134.53ZM969.454 1128.97C971.354 1130.23 972.625 1132.23 972.98 1134.53L974.956 1134.23C974.517 1131.38 972.938 1128.88 970.559 1127.31L969.454 1128.97Z" fill="#FFBD2E" mask="url(#path-13-inside-4_351_3014)"/>
</svg>
