<svg width="1531" height="1787" viewBox="0 0 1531 1787" fill="none" xmlns="http://www.w3.org/2000/svg">
<mask id="path-1-inside-1_351_2332" fill="white">
<path fill-rule="evenodd" clip-rule="evenodd" d="M721.86 45.6105C721.935 45.6807 722.01 45.7508 722.085 45.8211L721.86 46.1776V744.307V1167.09C807.633 1102.08 925.725 1061.92 1056.1 1061.92C1318.19 1061.92 1530.66 1224.23 1530.66 1424.46C1530.66 1624.68 1318.19 1787 1056.1 1787C793.999 1787 581.527 1624.68 581.527 1424.46C581.527 1421.13 581.586 1417.81 581.702 1414.51L547.175 268.912C545.598 243.711 542.404 225.444 518.543 219.296C499.875 214.487 467.77 211.671 440.224 219.296C438.027 219.905 435.854 220.494 433.701 221.077C408.858 227.813 386.657 233.832 360.562 260.146C346.458 274.369 336.953 289.199 327.565 303.846C307.475 335.193 287.924 365.698 224.979 387.601L182.309 394.137H154.222H128.296L100.479 392.503L82.1161 389.506L62.3994 385.694L49.0681 381.882L35.933 374.256L0.0141602 344.299C11.4872 341.729 26.057 341.648 42.7025 341.556C100.115 341.237 182.222 340.783 247.127 237.543C249.111 234.896 251.138 232.185 253.206 229.419C294.555 174.127 352.494 96.6491 409.28 62.2442C468.906 26.1181 530.957 4.79447 587.012 1.16705C641.499 -2.35898 687.257 14.6429 719.351 43.3186H721.86V45.6105Z"/>
</mask>
<path fill-rule="evenodd" clip-rule="evenodd" d="M721.86 45.6105C721.935 45.6807 722.01 45.7508 722.085 45.8211L721.86 46.1776V744.307V1167.09C807.633 1102.08 925.725 1061.92 1056.1 1061.92C1318.19 1061.92 1530.66 1224.23 1530.66 1424.46C1530.66 1624.68 1318.19 1787 1056.1 1787C793.999 1787 581.527 1624.68 581.527 1424.46C581.527 1421.13 581.586 1417.81 581.702 1414.51L547.175 268.912C545.598 243.711 542.404 225.444 518.543 219.296C499.875 214.487 467.77 211.671 440.224 219.296C438.027 219.905 435.854 220.494 433.701 221.077C408.858 227.813 386.657 233.832 360.562 260.146C346.458 274.369 336.953 289.199 327.565 303.846C307.475 335.193 287.924 365.698 224.979 387.601L182.309 394.137H154.222H128.296L100.479 392.503L82.1161 389.506L62.3994 385.694L49.0681 381.882L35.933 374.256L0.0141602 344.299C11.4872 341.729 26.057 341.648 42.7025 341.556C100.115 341.237 182.222 340.783 247.127 237.543C249.111 234.896 251.138 232.185 253.206 229.419C294.555 174.127 352.494 96.6491 409.28 62.2442C468.906 26.1181 530.957 4.79447 587.012 1.16705C641.499 -2.35898 687.257 14.6429 719.351 43.3186H721.86V45.6105Z" fill="#FF68CD"/>
<path d="M722.085 45.8211L735.763 31.2289L747.818 42.5286L738.996 56.4997L722.085 45.8211ZM721.86 45.6105L708.215 60.2324L701.86 54.3022V45.6105H721.86ZM721.86 46.1776H701.86V40.3914L704.95 35.499L721.86 46.1776ZM721.86 1167.09L733.941 1183.03L701.86 1207.34V1167.09H721.86ZM581.702 1414.51L601.693 1413.91L601.713 1414.56L601.69 1415.21L581.702 1414.51ZM547.175 268.912L567.136 267.662L567.156 267.986L567.166 268.309L547.175 268.912ZM518.543 219.296L513.553 238.664L518.543 219.296ZM440.224 219.296L434.888 200.021L434.888 200.021L440.224 219.296ZM433.701 221.077L438.934 240.381L438.934 240.381L433.701 221.077ZM360.562 260.146L374.763 274.229V274.229L360.562 260.146ZM327.565 303.846L344.404 314.638V314.638L327.565 303.846ZM224.979 387.601L231.552 406.49L229.82 407.092L228.007 407.37L224.979 387.601ZM182.309 394.137L185.337 413.906L183.832 414.137H182.309V394.137ZM128.296 394.137V414.137H127.709L127.123 414.102L128.296 394.137ZM100.479 392.503L99.3059 412.468L98.2758 412.408L97.2573 412.241L100.479 392.503ZM82.1161 389.506L78.8947 409.245L78.6066 409.198L78.3201 409.142L82.1161 389.506ZM62.3994 385.694L58.6034 405.331L57.7428 405.164L56.9 404.923L62.3994 385.694ZM49.0681 381.882L43.5687 401.111L41.1776 400.427L39.0269 399.178L49.0681 381.882ZM35.933 374.256L25.8917 391.553L24.4253 390.702L23.1232 389.615L35.933 374.256ZM0.0141602 344.299L-12.7957 359.659L-43.9696 333.659L-4.35901 324.783L0.0141602 344.299ZM42.7025 341.556L42.8134 361.555L42.7025 341.556ZM247.127 237.543L230.195 226.898L230.631 226.205L231.122 225.55L247.127 237.543ZM253.206 229.419L269.223 241.397L269.223 241.397L253.206 229.419ZM409.28 62.2442L419.644 79.3496L409.28 62.2442ZM587.012 1.16705L585.72 -18.7912L587.012 1.16705ZM719.351 43.3186V63.3186H711.717L706.025 58.2327L719.351 43.3186ZM721.86 43.3186V23.3186H741.86V43.3186H721.86ZM708.408 60.4133C708.342 60.3509 708.277 60.2908 708.215 60.2324L735.506 30.9887C735.594 31.0706 735.679 31.1508 735.763 31.2289L708.408 60.4133ZM704.95 35.499L705.175 35.1425L738.996 56.4997L738.771 56.8561L704.95 35.499ZM701.86 744.307V46.1776H741.86V744.307H701.86ZM701.86 1167.09V744.307H741.86V1167.09H701.86ZM1056.1 1081.92C929.702 1081.92 815.943 1120.87 733.941 1183.03L709.78 1151.15C799.323 1083.28 921.748 1041.92 1056.1 1041.92V1081.92ZM1510.66 1424.46C1510.66 1331.89 1461.6 1246.7 1379.52 1184C1297.43 1121.28 1183.15 1081.92 1056.1 1081.92V1041.92C1191.14 1041.92 1314.14 1083.71 1403.81 1152.21C1493.49 1220.72 1550.66 1316.8 1550.66 1424.46H1510.66ZM1056.1 1767C1183.15 1767 1297.43 1727.63 1379.52 1664.92C1461.6 1602.22 1510.66 1517.02 1510.66 1424.46H1550.66C1550.66 1532.12 1493.49 1628.19 1403.81 1696.71C1314.14 1765.21 1191.14 1807 1056.1 1807V1767ZM601.527 1424.46C601.527 1517.02 650.591 1602.22 732.666 1664.92C814.76 1727.63 929.043 1767 1056.1 1767V1807C921.051 1807 798.05 1765.21 708.384 1696.71C618.7 1628.19 561.527 1532.12 561.527 1424.46H601.527ZM601.69 1415.21C601.582 1418.28 601.527 1421.37 601.527 1424.46H561.527C561.527 1420.9 561.59 1417.34 561.715 1413.8L601.69 1415.21ZM567.166 268.309L601.693 1413.91L561.712 1415.11L527.184 269.514L567.166 268.309ZM523.532 199.929C540.862 204.393 552.653 214.24 559.324 228.469C565.128 240.85 566.366 255.366 567.136 267.662L527.214 270.161C526.406 257.257 525.259 250.039 523.107 245.449C521.822 242.708 520.085 240.347 513.553 238.664L523.532 199.929ZM434.888 200.021C466.666 191.225 502.454 194.499 523.532 199.929L513.553 238.664C497.296 234.476 468.875 232.118 445.559 238.572L434.888 200.021ZM428.467 201.774C430.628 201.188 432.75 200.613 434.888 200.021L445.559 238.572C443.303 239.196 441.079 239.799 438.934 240.381L428.467 201.774ZM346.361 246.063C376.329 215.843 402.864 208.716 428.468 201.774L438.934 240.381C414.853 246.909 396.986 251.82 374.763 274.229L346.361 246.063ZM310.727 293.054C320.033 278.534 330.568 261.989 346.361 246.063L374.763 274.229C362.347 286.749 353.872 299.865 344.404 314.638L310.727 293.054ZM218.406 368.711C247.627 358.544 265.729 346.775 278.679 334.66C291.877 322.313 300.575 308.893 310.727 293.054L344.404 314.638C334.464 330.146 323.342 347.652 306.006 363.87C288.422 380.32 265.276 394.755 231.552 406.49L218.406 368.711ZM179.281 374.367L221.951 367.831L228.007 407.37L185.337 413.906L179.281 374.367ZM154.222 374.137H182.309V414.137H154.222V374.137ZM128.296 374.137H154.222V414.137H128.296V374.137ZM101.652 372.537L129.468 374.171L127.123 414.102L99.3059 412.468L101.652 372.537ZM85.3375 369.767L103.7 372.764L97.2573 412.241L78.8947 409.245L85.3375 369.767ZM66.1954 366.058L85.9121 369.869L78.3201 409.142L58.6034 405.331L66.1954 366.058ZM54.5675 362.652L67.8988 366.465L56.9 404.923L43.5687 401.111L54.5675 362.652ZM45.9742 356.96L59.1094 364.585L39.0269 399.178L25.8917 391.553L45.9742 356.96ZM12.824 328.94L48.7428 358.897L23.1232 389.615L-12.7957 359.659L12.824 328.94ZM42.8134 361.555C25.3903 361.652 13.2871 361.821 4.38733 363.815L-4.35901 324.783C9.68726 321.636 26.7238 321.644 42.5917 321.556L42.8134 361.555ZM264.059 248.188C229.371 303.364 189.163 332.276 148.956 346.935C109.462 361.334 71.2905 361.398 42.8134 361.555L42.5917 321.556C71.5271 321.396 103.115 321.072 135.254 309.355C166.681 297.897 199.979 274.961 230.195 226.898L264.059 248.188ZM269.223 241.397C267.155 244.162 265.123 246.88 263.133 249.535L231.122 225.55C233.099 222.912 235.12 220.209 237.19 217.441L269.223 241.397ZM419.644 79.3496C393.917 94.9367 366.855 121.048 340.507 151.167C314.34 181.081 289.961 213.665 269.223 241.397L237.19 217.442C257.8 189.881 283.065 156.08 310.401 124.831C337.557 93.787 367.857 63.9566 398.916 45.1388L419.644 79.3496ZM588.303 21.1253C536.141 24.5009 477.17 44.4954 419.644 79.3496L398.916 45.1388C460.642 7.74087 525.774 -14.9119 585.72 -18.7912L588.303 21.1253ZM706.025 58.2327C678.177 33.3507 637.779 17.9236 588.303 21.1253L585.72 -18.7912C645.22 -22.6416 696.337 -4.06498 732.676 28.4046L706.025 58.2327ZM721.86 63.3186H719.351V23.3186H721.86V63.3186ZM701.86 45.6105V43.3186H741.86V45.6105H701.86Z" fill="#FF31BA" mask="url(#path-1-inside-1_351_2332)"/>
<path d="M1221.75 1329.12C1221.75 1363.05 1229.75 1393.28 1242.16 1414.68C1254.72 1436.34 1270.59 1447.22 1286.05 1447.22C1301.51 1447.22 1317.38 1436.34 1329.94 1414.68C1342.35 1393.28 1350.35 1363.05 1350.35 1329.12C1350.35 1295.19 1342.35 1264.96 1329.94 1243.56C1317.38 1221.9 1301.51 1211.02 1286.05 1211.02C1270.59 1211.02 1254.72 1221.9 1242.16 1243.56C1229.75 1264.96 1221.75 1295.19 1221.75 1329.12Z" fill="white" stroke="black" stroke-width="20"/>
<mask id="path-4-inside-2_351_2332" fill="white">
<path fill-rule="evenodd" clip-rule="evenodd" d="M1320.47 1215.56C1319.22 1215.35 1317.96 1215.21 1316.69 1215.14C1300.98 1214.28 1285.67 1224.31 1273.83 1243.22C1261.99 1262.14 1254.49 1288.54 1252.84 1317.15L1314.81 1329.11L1253.67 1351.17C1256.71 1379.39 1265.47 1404.46 1278.19 1421.37C1290.43 1437.63 1305.46 1445.17 1320.48 1442.66C1344.18 1421.26 1360.35 1378.44 1360.35 1329.12C1360.35 1279.78 1344.18 1236.96 1320.47 1215.56Z"/>
</mask>
<path fill-rule="evenodd" clip-rule="evenodd" d="M1320.47 1215.56C1319.22 1215.35 1317.96 1215.21 1316.69 1215.14C1300.98 1214.28 1285.67 1224.31 1273.83 1243.22C1261.99 1262.14 1254.49 1288.54 1252.84 1317.15L1314.81 1329.11L1253.67 1351.17C1256.71 1379.39 1265.47 1404.46 1278.19 1421.37C1290.43 1437.63 1305.46 1445.17 1320.48 1442.66C1344.18 1421.26 1360.35 1378.44 1360.35 1329.12C1360.35 1279.78 1344.18 1236.96 1320.47 1215.56Z" fill="black"/>
<path d="M1320.47 1215.56L1320.64 1214.58L1320.92 1214.62L1321.14 1214.82L1320.47 1215.56ZM1316.69 1215.14L1316.75 1214.15L1316.69 1215.14ZM1273.83 1243.22L1272.98 1242.69L1273.83 1243.22ZM1252.84 1317.15L1252.65 1318.13L1251.79 1317.96L1251.84 1317.09L1252.84 1317.15ZM1314.81 1329.11L1315 1328.13L1318.57 1328.82L1315.15 1330.05L1314.81 1329.11ZM1253.67 1351.17L1252.68 1351.28L1252.59 1350.5L1253.33 1350.23L1253.67 1351.17ZM1278.19 1421.37L1277.39 1421.97L1278.19 1421.37ZM1320.48 1442.66L1321.15 1443.4L1320.93 1443.6L1320.64 1443.65L1320.48 1442.66ZM1320.31 1216.55C1319.09 1216.35 1317.87 1216.21 1316.64 1216.14L1316.75 1214.15C1318.05 1214.22 1319.35 1214.36 1320.64 1214.58L1320.31 1216.55ZM1316.64 1216.14C1301.43 1215.3 1286.41 1225 1274.67 1243.75L1272.98 1242.69C1284.92 1223.61 1300.53 1213.25 1316.75 1214.15L1316.64 1216.14ZM1274.67 1243.75C1262.94 1262.49 1255.48 1288.72 1253.84 1317.21L1251.84 1317.09C1253.5 1288.37 1261.03 1261.79 1272.98 1242.69L1274.67 1243.75ZM1253.03 1316.17L1315 1328.13L1314.62 1330.09L1252.65 1318.13L1253.03 1316.17ZM1315.15 1330.05L1254.01 1352.11L1253.33 1350.23L1314.47 1328.17L1315.15 1330.05ZM1254.67 1351.07C1257.7 1379.16 1266.41 1404.05 1278.99 1420.77L1277.39 1421.97C1264.53 1404.88 1255.73 1379.62 1252.68 1351.28L1254.67 1351.07ZM1278.99 1420.77C1291.09 1436.84 1305.78 1444.1 1320.31 1441.68L1320.64 1443.65C1305.13 1446.24 1289.76 1438.41 1277.39 1421.97L1278.99 1420.77ZM1319.81 1441.92C1343.23 1420.77 1359.35 1378.28 1359.35 1329.12H1361.35C1361.35 1378.61 1345.13 1421.74 1321.15 1443.4L1319.81 1441.92ZM1359.35 1329.12C1359.35 1279.95 1343.22 1237.45 1319.8 1216.31L1321.14 1214.82C1345.13 1236.48 1361.35 1279.62 1361.35 1329.12H1359.35Z" fill="black" mask="url(#path-4-inside-2_351_2332)"/>
<path d="M1018.02 1329.12C1018.02 1363.05 1026.02 1393.28 1038.44 1414.68C1051 1436.34 1066.87 1447.22 1082.32 1447.22C1097.78 1447.22 1113.65 1436.34 1126.21 1414.68C1138.63 1393.28 1146.62 1363.05 1146.62 1329.12C1146.62 1295.19 1138.63 1264.96 1126.21 1243.56C1113.65 1221.9 1097.78 1211.02 1082.32 1211.02C1066.87 1211.02 1051 1221.9 1038.44 1243.56C1026.02 1264.96 1018.02 1295.19 1018.02 1329.12Z" fill="white" stroke="black" stroke-width="20"/>
<mask id="path-7-inside-3_351_2332" fill="white">
<path fill-rule="evenodd" clip-rule="evenodd" d="M1116.74 1215.56C1115.49 1215.35 1114.23 1215.21 1112.97 1215.14C1097.25 1214.28 1081.94 1224.31 1070.1 1243.22C1058.26 1262.14 1050.76 1288.54 1049.11 1317.15L1111.09 1329.11L1049.95 1351.17C1052.99 1379.39 1061.74 1404.46 1074.46 1421.37C1086.7 1437.63 1101.73 1445.17 1116.75 1442.66C1140.45 1421.26 1156.62 1378.44 1156.62 1329.12C1156.62 1279.78 1140.45 1236.96 1116.74 1215.56Z"/>
</mask>
<path fill-rule="evenodd" clip-rule="evenodd" d="M1116.74 1215.56C1115.49 1215.35 1114.23 1215.21 1112.97 1215.14C1097.25 1214.28 1081.94 1224.31 1070.1 1243.22C1058.26 1262.14 1050.76 1288.54 1049.11 1317.15L1111.09 1329.11L1049.95 1351.17C1052.99 1379.39 1061.74 1404.46 1074.46 1421.37C1086.7 1437.63 1101.73 1445.17 1116.75 1442.66C1140.45 1421.26 1156.62 1378.44 1156.62 1329.12C1156.62 1279.78 1140.45 1236.96 1116.74 1215.56Z" fill="black"/>
<path d="M1116.74 1215.56L1116.91 1214.58L1117.2 1214.62L1117.41 1214.82L1116.74 1215.56ZM1112.97 1215.14L1113.02 1214.15L1112.97 1215.14ZM1070.1 1243.22L1069.25 1242.69L1070.1 1243.22ZM1049.11 1317.15L1048.92 1318.13L1048.06 1317.96L1048.11 1317.09L1049.11 1317.15ZM1111.09 1329.11L1111.28 1328.13L1114.84 1328.82L1111.43 1330.05L1111.09 1329.11ZM1049.95 1351.17L1048.95 1351.28L1048.87 1350.5L1049.61 1350.23L1049.95 1351.17ZM1074.46 1421.37L1073.66 1421.97L1074.46 1421.37ZM1116.75 1442.66L1117.42 1443.4L1117.2 1443.6L1116.92 1443.65L1116.75 1442.66ZM1116.58 1216.55C1115.36 1216.35 1114.14 1216.21 1112.91 1216.14L1113.02 1214.15C1114.32 1214.22 1115.62 1214.36 1116.91 1214.58L1116.58 1216.55ZM1112.91 1216.14C1097.71 1215.3 1082.69 1225 1070.95 1243.75L1069.25 1242.69C1081.2 1223.61 1096.8 1213.25 1113.02 1214.15L1112.91 1216.14ZM1070.95 1243.75C1059.22 1262.49 1051.75 1288.72 1050.11 1317.21L1048.11 1317.09C1049.77 1288.37 1057.3 1261.79 1069.25 1242.69L1070.95 1243.75ZM1049.3 1316.17L1111.28 1328.13L1110.9 1330.09L1048.92 1318.13L1049.3 1316.17ZM1111.43 1330.05L1050.29 1352.11L1049.61 1350.23L1110.75 1328.17L1111.43 1330.05ZM1050.94 1351.07C1053.97 1379.16 1062.68 1404.05 1075.26 1420.77L1073.66 1421.97C1060.81 1404.88 1052.01 1379.62 1048.95 1351.28L1050.94 1351.07ZM1075.26 1420.77C1087.36 1436.84 1102.06 1444.1 1116.59 1441.68L1116.92 1443.65C1101.41 1446.24 1086.04 1438.41 1073.66 1421.97L1075.26 1420.77ZM1116.08 1441.92C1139.5 1420.77 1155.62 1378.28 1155.62 1329.12H1157.62C1157.62 1378.61 1141.41 1421.74 1117.42 1443.4L1116.08 1441.92ZM1155.62 1329.12C1155.62 1279.95 1139.5 1237.45 1116.07 1216.31L1117.41 1214.82C1141.4 1236.48 1157.62 1279.62 1157.62 1329.12H1155.62Z" fill="black" mask="url(#path-7-inside-3_351_2332)"/>
<ellipse cx="978.064" cy="1486.22" rx="61.1187" ry="26.5863" fill="#F7C1B8"/>
<ellipse cx="1397.5" cy="1486.22" rx="61.1187" ry="26.5863" fill="#F7C1B8"/>
<ellipse cx="1210.55" cy="1528.51" rx="39.5474" ry="85.8014" fill="#E44E30"/>
<path d="M721.948 1261.38C721.948 1267.98 716.638 1273.33 710.095 1273.33C703.553 1273.33 698.242 1267.98 698.242 1261.38C698.242 1254.77 703.553 1249.42 710.095 1249.42C716.638 1249.42 721.948 1254.77 721.948 1261.38Z" fill="white" stroke="#FFBD2E"/>
<mask id="path-13-inside-4_351_2332" fill="white">
<path fill-rule="evenodd" clip-rule="evenodd" d="M969.663 1128.85C967.524 1127.43 964.845 1126.95 962.216 1127.52L962.224 1127.57C914.844 1126.38 869.309 1133.8 828.674 1149.34C787.967 1164.9 753.121 1188.25 726.479 1217.82L726.623 1217.92C725.389 1220.67 725.153 1223.83 725.973 1226.77C726.843 1229.88 728.827 1232.5 731.49 1234.04C734.153 1235.58 737.276 1235.92 740.173 1234.99C742.649 1234.19 744.787 1232.51 746.251 1230.25C770.978 1203.07 803.191 1181.58 840.764 1167.21C878.627 1152.73 921.057 1145.82 965.205 1146.94L965.209 1146.97C965.244 1146.96 965.279 1146.95 965.314 1146.95C965.337 1146.95 965.36 1146.95 965.383 1146.95L965.38 1146.93C967.94 1146.33 970.236 1144.78 971.779 1142.6C973.358 1140.37 974.021 1137.67 973.624 1135.09C973.227 1132.51 971.802 1130.27 969.663 1128.85Z"/>
</mask>
<path fill-rule="evenodd" clip-rule="evenodd" d="M969.663 1128.85C967.524 1127.43 964.845 1126.95 962.216 1127.52L962.224 1127.57C914.844 1126.38 869.309 1133.8 828.674 1149.34C787.967 1164.9 753.121 1188.25 726.479 1217.82L726.623 1217.92C725.389 1220.67 725.153 1223.83 725.973 1226.77C726.843 1229.88 728.827 1232.5 731.49 1234.04C734.153 1235.58 737.276 1235.92 740.173 1234.99C742.649 1234.19 744.787 1232.51 746.251 1230.25C770.978 1203.07 803.191 1181.58 840.764 1167.21C878.627 1152.73 921.057 1145.82 965.205 1146.94L965.209 1146.97C965.244 1146.96 965.279 1146.95 965.314 1146.95C965.337 1146.95 965.36 1146.95 965.383 1146.95L965.38 1146.93C967.94 1146.33 970.236 1144.78 971.779 1142.6C973.358 1140.37 974.021 1137.67 973.624 1135.09C973.227 1132.51 971.802 1130.27 969.663 1128.85Z" fill="white"/>
<path d="M962.216 1127.52L962.004 1126.55L961.085 1126.75L961.228 1127.68L962.216 1127.52ZM969.663 1128.85L969.11 1129.68V1129.68L969.663 1128.85ZM962.224 1127.57L962.199 1128.57L963.394 1128.6L963.212 1127.42L962.224 1127.57ZM828.674 1149.34L828.317 1148.4L828.674 1149.34ZM726.479 1217.82L725.736 1217.15L724.974 1217.99L725.911 1218.64L726.479 1217.82ZM726.623 1217.92L727.536 1218.32L727.876 1217.57L727.191 1217.09L726.623 1217.92ZM725.973 1226.77L726.937 1226.5L725.973 1226.77ZM731.49 1234.04L731.991 1233.18H731.991L731.49 1234.04ZM740.173 1234.99L740.48 1235.94H740.48L740.173 1234.99ZM746.251 1230.25L745.511 1229.58L745.456 1229.64L745.411 1229.71L746.251 1230.25ZM840.764 1167.21L840.407 1166.28L840.764 1167.21ZM965.205 1146.94L966.194 1146.79L966.066 1145.97L965.231 1145.94L965.205 1146.94ZM965.209 1146.97L964.221 1147.12L964.383 1148.17L965.422 1147.95L965.209 1146.97ZM965.314 1146.95L965.34 1145.95L965.215 1145.94L965.092 1145.97L965.314 1146.95ZM965.383 1146.95L965.357 1147.95L966.549 1147.98L966.372 1146.8L965.383 1146.95ZM965.38 1146.93L965.152 1145.96L964.254 1146.17L964.391 1147.08L965.38 1146.93ZM971.779 1142.6L972.595 1143.18V1143.18L971.779 1142.6ZM973.624 1135.09L974.613 1134.94V1134.94L973.624 1135.09ZM962.429 1128.5C964.807 1127.99 967.208 1128.42 969.11 1129.68L970.216 1128.02C967.839 1126.44 964.882 1125.92 962.004 1126.55L962.429 1128.5ZM963.212 1127.42L963.205 1127.37L961.228 1127.68L961.235 1127.73L963.212 1127.42ZM829.031 1150.27C869.534 1134.78 914.937 1127.38 962.199 1128.57L962.249 1126.57C914.75 1125.38 869.085 1132.81 828.317 1148.4L829.031 1150.27ZM727.222 1218.49C753.748 1189.05 788.458 1165.78 829.031 1150.27L828.317 1148.4C787.477 1164.02 752.494 1187.45 725.736 1217.15L727.222 1218.49ZM727.191 1217.09L727.047 1216.99L725.911 1218.64L726.055 1218.74L727.191 1217.09ZM726.937 1226.5C726.179 1223.78 726.398 1220.86 727.536 1218.32L725.711 1217.51C724.381 1220.47 724.128 1223.87 725.01 1227.04L726.937 1226.5ZM731.991 1233.18C729.567 1231.77 727.74 1229.38 726.937 1226.5L725.01 1227.04C725.946 1230.39 728.087 1233.23 730.989 1234.91L731.991 1233.18ZM739.865 1234.04C737.242 1234.88 734.412 1234.58 731.991 1233.18L730.989 1234.91C733.894 1236.59 737.31 1236.96 740.48 1235.94L739.865 1234.04ZM745.411 1229.71C744.066 1231.79 742.112 1233.31 739.865 1234.04L740.48 1235.94C743.187 1235.07 745.508 1233.24 747.09 1230.8L745.411 1229.71ZM840.407 1166.28C802.701 1180.69 770.353 1202.27 745.511 1229.58L746.991 1230.93C771.602 1203.87 803.68 1182.46 841.122 1168.14L840.407 1166.28ZM965.231 1145.94C920.963 1144.82 878.403 1151.75 840.407 1166.28L841.122 1168.14C878.852 1153.72 921.15 1146.83 965.18 1147.94L965.231 1145.94ZM966.198 1146.82L966.194 1146.79L964.217 1147.1L964.221 1147.12L966.198 1146.82ZM965.092 1145.97C965.06 1145.98 965.029 1145.99 964.997 1145.99L965.422 1147.95C965.46 1147.94 965.498 1147.93 965.537 1147.92L965.092 1145.97ZM965.409 1145.95C965.386 1145.95 965.363 1145.95 965.34 1145.95L965.289 1147.95C965.312 1147.95 965.334 1147.95 965.357 1147.95L965.409 1145.95ZM964.391 1147.08L964.394 1147.1L966.372 1146.8L966.369 1146.78L964.391 1147.08ZM970.964 1142.02C969.559 1144 967.471 1145.41 965.152 1145.96L965.609 1147.9C968.41 1147.25 970.913 1145.55 972.595 1143.18L970.964 1142.02ZM972.636 1135.25C972.991 1137.55 972.399 1139.99 970.964 1142.02L972.595 1143.18C974.316 1140.75 975.051 1137.79 974.613 1134.94L972.636 1135.25ZM969.11 1129.68C971.011 1130.94 972.281 1132.94 972.636 1135.25L974.613 1134.94C974.174 1132.09 972.594 1129.59 970.216 1128.02L969.11 1129.68Z" fill="#FFBD2E" mask="url(#path-13-inside-4_351_2332)"/>
</svg>
