<svg width="1532" height="1787" viewBox="0 0 1532 1787" fill="none" xmlns="http://www.w3.org/2000/svg">
<mask id="path-1-inside-1_351_2046" fill="white">
<path fill-rule="evenodd" clip-rule="evenodd" d="M722.79 45.4117C722.865 45.4817 722.94 45.5517 723.015 45.6219L722.79 45.9778V744.107V1166.89C808.562 1101.88 926.655 1061.72 1057.03 1061.72C1319.12 1061.72 1531.59 1224.03 1531.59 1424.26C1531.59 1624.48 1319.12 1786.8 1057.03 1786.8C794.928 1786.8 582.457 1624.48 582.457 1424.26C582.457 1420.93 582.516 1417.62 582.632 1414.31L548.105 268.724C546.528 243.518 543.337 225.245 519.472 219.097C500.804 214.288 468.7 211.472 441.153 219.097C438.956 219.705 436.783 220.294 434.63 220.878C409.787 227.613 387.587 233.632 361.491 259.947C347.387 274.17 337.882 289 328.495 303.647C308.404 334.994 288.853 365.499 225.908 387.401L183.238 393.937H155.151H129.225L101.408 392.303L83.0454 389.307L63.3287 385.495L49.9974 381.682L36.8623 374.057L0.943481 344.1C12.4165 341.529 26.9863 341.449 43.6318 341.356C101.044 341.038 183.151 340.583 248.057 237.344C250.04 234.697 252.067 231.986 254.135 229.22C295.484 173.928 353.424 96.4499 410.209 62.045C469.835 25.9189 531.887 4.59525 587.941 0.967827C642.428 -2.55818 688.186 14.4434 720.28 43.1189H722.79V45.4117Z"/>
</mask>
<path fill-rule="evenodd" clip-rule="evenodd" d="M722.79 45.4117C722.865 45.4817 722.94 45.5517 723.015 45.6219L722.79 45.9778V744.107V1166.89C808.562 1101.88 926.655 1061.72 1057.03 1061.72C1319.12 1061.72 1531.59 1224.03 1531.59 1424.26C1531.59 1624.48 1319.12 1786.8 1057.03 1786.8C794.928 1786.8 582.457 1624.48 582.457 1424.26C582.457 1420.93 582.516 1417.62 582.632 1414.31L548.105 268.724C546.528 243.518 543.337 225.245 519.472 219.097C500.804 214.288 468.7 211.472 441.153 219.097C438.956 219.705 436.783 220.294 434.63 220.878C409.787 227.613 387.587 233.632 361.491 259.947C347.387 274.17 337.882 289 328.495 303.647C308.404 334.994 288.853 365.499 225.908 387.401L183.238 393.937H155.151H129.225L101.408 392.303L83.0454 389.307L63.3287 385.495L49.9974 381.682L36.8623 374.057L0.943481 344.1C12.4165 341.529 26.9863 341.449 43.6318 341.356C101.044 341.038 183.151 340.583 248.057 237.344C250.04 234.697 252.067 231.986 254.135 229.22C295.484 173.928 353.424 96.4499 410.209 62.045C469.835 25.9189 531.887 4.59525 587.941 0.967827C642.428 -2.55818 688.186 14.4434 720.28 43.1189H722.79V45.4117Z" fill="#B7846E"/>
<path d="M723.015 45.6219L736.692 31.0296L748.748 42.3294L739.925 56.3005L723.015 45.6219ZM722.79 45.4117L709.144 60.0332L702.79 54.1031V45.4117H722.79ZM722.79 45.9778H702.79V40.1916L705.879 35.2992L722.79 45.9778ZM722.79 1166.89L734.871 1182.83L702.79 1207.14V1166.89H722.79ZM582.632 1414.31L602.623 1413.71L602.643 1414.36L602.62 1415.01L582.632 1414.31ZM548.105 268.724L568.066 267.475L568.086 267.798L568.096 268.122L548.105 268.724ZM519.472 219.097L514.483 238.465L519.472 219.097ZM441.153 219.097L435.817 199.822L435.817 199.822L441.153 219.097ZM434.63 220.878L429.397 201.575L429.397 201.575L434.63 220.878ZM361.491 259.947L375.692 274.03V274.03L361.491 259.947ZM328.495 303.647L345.333 314.439V314.439L328.495 303.647ZM225.908 387.401L232.481 406.29L230.749 406.893L228.937 407.171L225.908 387.401ZM183.238 393.937L186.266 413.707L184.761 413.937H183.238V393.937ZM129.225 393.937V413.937H128.638L128.052 413.903L129.225 393.937ZM101.408 392.303L100.235 412.269L99.2051 412.208L98.1866 412.042L101.408 392.303ZM83.0454 389.307L79.824 409.045L79.5359 408.998L79.2494 408.943L83.0454 389.307ZM63.3287 385.495L59.5327 405.131L58.6721 404.965L57.8293 404.724L63.3287 385.495ZM49.9974 381.682L44.498 400.911L42.1069 400.228L39.9562 398.979L49.9974 381.682ZM36.8623 374.057L26.821 391.354L25.3546 390.502L24.0525 389.416L36.8623 374.057ZM0.943481 344.1L-11.8663 359.46L-43.0403 333.46L-3.42969 324.584L0.943481 344.1ZM43.6318 341.356L43.7427 361.356L43.6318 341.356ZM248.057 237.344L231.125 226.699L231.56 226.006L232.051 225.351L248.057 237.344ZM254.135 229.22L270.152 241.198L270.152 241.198L254.135 229.22ZM410.209 62.045L420.573 79.1504L410.209 62.045ZM587.941 0.967827L586.65 -18.9904L587.941 0.967827ZM720.28 43.1189V63.1189H712.646L706.954 58.033L720.28 43.1189ZM722.79 43.1189V23.1189H742.79V43.1189H722.79ZM709.337 60.2141C709.271 60.1521 709.207 60.0919 709.144 60.0332L736.436 30.7902C736.523 30.8714 736.608 30.9514 736.692 31.0296L709.337 60.2141ZM705.879 35.2992L706.104 34.9433L739.925 56.3005L739.701 56.6563L705.879 35.2992ZM702.79 744.107V45.9778H742.79V744.107H702.79ZM702.79 1166.89V744.107H742.79V1166.89H702.79ZM1057.03 1081.72C930.632 1081.72 816.872 1120.67 734.871 1182.83L710.709 1150.95C800.252 1083.08 922.677 1041.72 1057.03 1041.72V1081.72ZM1511.59 1424.26C1511.59 1331.69 1462.53 1246.5 1380.45 1183.8C1298.36 1121.08 1184.08 1081.72 1057.03 1081.72V1041.72C1192.07 1041.72 1315.07 1083.51 1404.74 1152.01C1494.42 1220.52 1551.59 1316.6 1551.59 1424.26H1511.59ZM1057.03 1766.8C1184.08 1766.8 1298.36 1727.43 1380.45 1664.72C1462.53 1602.02 1511.59 1516.82 1511.59 1424.26H1551.59C1551.59 1531.92 1494.42 1627.99 1404.74 1696.51C1315.07 1765.01 1192.07 1806.8 1057.03 1806.8V1766.8ZM602.457 1424.26C602.457 1516.82 651.52 1602.02 733.596 1664.72C815.69 1727.43 929.973 1766.8 1057.03 1766.8V1806.8C921.981 1806.8 798.98 1765.01 709.313 1696.51C619.629 1627.99 562.457 1531.92 562.457 1424.26H602.457ZM602.62 1415.01C602.511 1418.09 602.457 1421.17 602.457 1424.26H562.457C562.457 1420.7 562.52 1417.14 562.645 1413.6L602.62 1415.01ZM568.096 268.122L602.623 1413.71L562.641 1414.91L528.114 269.327L568.096 268.122ZM524.462 199.73C541.794 204.195 553.586 214.044 560.256 228.276C566.06 240.658 567.297 255.177 568.066 267.475L528.144 269.973C527.336 257.065 526.19 249.844 524.037 245.252C522.752 242.509 521.015 240.148 514.483 238.465L524.462 199.73ZM435.817 199.822C467.596 191.025 503.383 194.299 524.462 199.73L514.483 238.465C498.225 234.277 469.804 231.918 446.489 238.372L435.817 199.822ZM429.397 201.575C431.558 200.989 433.68 200.414 435.817 199.822L446.489 238.372C444.232 238.997 442.009 239.6 439.863 240.181L429.397 201.575ZM347.29 245.864C377.258 215.644 403.793 208.517 429.397 201.575L439.864 240.181C415.782 246.71 397.915 251.621 375.692 274.03L347.29 245.864ZM311.656 292.855C320.962 278.335 331.497 261.79 347.29 245.864L375.692 274.03C363.277 286.55 354.801 299.666 345.333 314.439L311.656 292.855ZM219.336 368.512C248.556 358.345 266.658 346.576 279.609 334.461C292.806 322.114 301.505 308.694 311.656 292.855L345.333 314.439C335.394 329.947 324.271 347.453 306.935 363.671C289.351 380.121 266.205 394.556 232.481 406.29L219.336 368.512ZM180.21 374.168L222.88 367.632L228.937 407.171L186.266 413.707L180.21 374.168ZM155.151 373.937H183.238V413.937H155.151V373.937ZM129.225 373.937H155.151V413.937H129.225V373.937ZM102.581 372.338L130.398 373.972L128.052 413.903L100.235 412.269L102.581 372.338ZM86.2668 369.568L104.63 372.565L98.1866 412.042L79.824 409.045L86.2668 369.568ZM67.1248 365.859L86.8414 369.67L79.2494 408.943L59.5327 405.131L67.1248 365.859ZM55.4968 362.453L68.8281 366.266L57.8293 404.724L44.498 400.911L55.4968 362.453ZM46.9036 356.76L60.0387 364.386L39.9562 398.979L26.821 391.354L46.9036 356.76ZM13.7533 328.741L49.6721 358.698L24.0525 389.416L-11.8663 359.46L13.7533 328.741ZM43.7427 361.356C26.3196 361.453 14.2164 361.622 5.31665 363.616L-3.42969 324.584C10.6166 321.437 27.6531 321.445 43.521 321.357L43.7427 361.356ZM264.989 247.988C230.3 303.165 190.092 332.077 149.885 346.736C110.391 361.135 72.2198 361.198 43.7427 361.356L43.521 321.357C72.4564 321.196 104.045 320.873 136.184 309.156C167.61 297.698 200.908 274.762 231.125 226.699L264.989 247.988ZM270.152 241.198C268.085 243.962 266.052 246.68 264.062 249.336L232.051 225.351C234.028 222.713 236.049 220.01 238.119 217.242L270.152 241.198ZM420.573 79.1504C394.846 94.7375 367.784 120.849 341.437 150.968C315.269 180.882 290.89 213.466 270.152 241.198L238.119 217.242C258.729 189.682 283.995 155.881 311.33 124.632C338.486 93.5878 368.787 63.7574 399.845 44.9396L420.573 79.1504ZM589.233 20.9261C537.07 24.3016 478.1 44.2962 420.573 79.1504L399.845 44.9396C461.571 7.54165 526.703 -15.1112 586.65 -18.9904L589.233 20.9261ZM706.954 58.033C679.106 33.1513 638.708 17.7244 589.233 20.9261L586.65 -18.9904C646.149 -22.8408 697.265 -4.26441 733.605 28.2048L706.954 58.033ZM722.79 63.1189H720.28V23.1189H722.79V63.1189ZM702.79 45.4117V43.1189H742.79V45.4117H702.79Z" fill="#85513B" mask="url(#path-1-inside-1_351_2046)"/>
<path d="M1222.68 1328.92C1222.68 1362.85 1230.67 1393.08 1243.09 1414.48C1255.65 1436.14 1271.52 1447.01 1286.98 1447.01C1302.43 1447.01 1318.3 1436.14 1330.86 1414.48C1343.28 1393.08 1351.28 1362.85 1351.28 1328.92C1351.28 1294.99 1343.28 1264.76 1330.86 1243.35C1318.3 1221.7 1302.43 1210.82 1286.98 1210.82C1271.52 1210.82 1255.65 1221.7 1243.09 1243.35C1230.67 1264.76 1222.68 1294.99 1222.68 1328.92Z" fill="white" stroke="black" stroke-width="20"/>
<mask id="path-4-inside-2_351_2046" fill="white">
<path fill-rule="evenodd" clip-rule="evenodd" d="M1321.4 1215.36C1320.14 1215.15 1318.88 1215.01 1317.62 1214.94C1301.91 1214.08 1286.59 1224.11 1274.75 1243.02C1262.91 1261.94 1255.41 1288.35 1253.77 1316.95L1315.74 1328.91L1254.6 1350.97C1257.64 1379.19 1266.4 1404.27 1279.12 1421.17C1291.35 1437.43 1306.38 1444.97 1321.4 1442.46C1345.11 1421.06 1361.28 1378.24 1361.28 1328.92C1361.28 1279.58 1345.1 1236.77 1321.4 1215.36Z"/>
</mask>
<path fill-rule="evenodd" clip-rule="evenodd" d="M1321.4 1215.36C1320.14 1215.15 1318.88 1215.01 1317.62 1214.94C1301.91 1214.08 1286.59 1224.11 1274.75 1243.02C1262.91 1261.94 1255.41 1288.35 1253.77 1316.95L1315.74 1328.91L1254.6 1350.97C1257.64 1379.19 1266.4 1404.27 1279.12 1421.17C1291.35 1437.43 1306.38 1444.97 1321.4 1442.46C1345.11 1421.06 1361.28 1378.24 1361.28 1328.92C1361.28 1279.58 1345.1 1236.77 1321.4 1215.36Z" fill="black"/>
<path d="M1321.4 1215.36L1321.56 1214.38L1321.85 1214.43L1322.07 1214.62L1321.4 1215.36ZM1317.62 1214.94L1317.67 1213.95L1317.62 1214.94ZM1274.75 1243.02L1273.91 1242.49L1274.75 1243.02ZM1253.77 1316.95L1253.58 1317.93L1252.72 1317.76L1252.77 1316.89L1253.77 1316.95ZM1315.74 1328.91L1315.93 1327.93L1319.5 1328.62L1316.08 1329.85L1315.74 1328.91ZM1254.6 1350.97L1253.6 1351.08L1253.52 1350.3L1254.26 1350.03L1254.6 1350.97ZM1279.12 1421.17L1278.32 1421.77L1279.12 1421.17ZM1321.4 1442.46L1322.07 1443.2L1321.86 1443.4L1321.57 1443.45L1321.4 1442.46ZM1321.23 1216.35C1320.01 1216.15 1318.79 1216.01 1317.56 1215.94L1317.67 1213.95C1318.98 1214.02 1320.27 1214.16 1321.56 1214.38L1321.23 1216.35ZM1317.56 1215.94C1302.36 1215.1 1287.34 1224.8 1275.6 1243.55L1273.91 1242.49C1285.85 1223.41 1301.45 1213.05 1317.67 1213.95L1317.56 1215.94ZM1275.6 1243.55C1263.87 1262.29 1256.41 1288.52 1254.76 1317.01L1252.77 1316.89C1254.42 1288.17 1261.95 1261.59 1273.91 1242.49L1275.6 1243.55ZM1253.95 1315.97L1315.93 1327.93L1315.55 1329.9L1253.58 1317.93L1253.95 1315.97ZM1316.08 1329.85L1254.94 1351.91L1254.26 1350.03L1315.4 1327.97L1316.08 1329.85ZM1255.59 1350.87C1258.62 1378.96 1267.34 1403.85 1279.92 1420.57L1278.32 1421.77C1265.46 1404.68 1256.66 1379.42 1253.6 1351.08L1255.59 1350.87ZM1279.92 1420.57C1292.01 1436.64 1306.71 1443.9 1321.24 1441.48L1321.57 1443.45C1306.06 1446.04 1290.69 1438.21 1278.32 1421.77L1279.92 1420.57ZM1320.73 1441.72C1344.15 1420.57 1360.28 1378.08 1360.28 1328.92H1362.28C1362.28 1378.41 1346.06 1421.54 1322.07 1443.2L1320.73 1441.72ZM1360.28 1328.92C1360.28 1279.75 1344.15 1237.25 1320.73 1216.11L1322.07 1214.62C1346.06 1236.28 1362.28 1279.42 1362.28 1328.92H1360.28Z" fill="black" mask="url(#path-4-inside-2_351_2046)"/>
<path d="M1018.95 1328.92C1018.95 1362.85 1026.95 1393.08 1039.36 1414.48C1051.92 1436.14 1067.79 1447.01 1083.25 1447.01C1098.71 1447.01 1114.58 1436.14 1127.14 1414.48C1139.55 1393.08 1147.55 1362.85 1147.55 1328.92C1147.55 1294.99 1139.55 1264.76 1127.14 1243.35C1114.58 1221.7 1098.71 1210.82 1083.25 1210.82C1067.79 1210.82 1051.92 1221.7 1039.36 1243.35C1026.95 1264.76 1018.95 1294.99 1018.95 1328.92Z" fill="white" stroke="black" stroke-width="20"/>
<mask id="path-7-inside-3_351_2046" fill="white">
<path fill-rule="evenodd" clip-rule="evenodd" d="M1117.67 1215.36C1116.42 1215.15 1115.16 1215.01 1113.89 1214.94C1098.18 1214.08 1082.87 1224.11 1071.03 1243.02C1059.18 1261.94 1051.69 1288.35 1050.04 1316.95L1112.01 1328.91L1050.87 1350.97C1053.91 1379.19 1062.67 1404.27 1075.39 1421.17C1087.63 1437.43 1102.66 1444.97 1117.68 1442.46C1141.38 1421.06 1157.55 1378.24 1157.55 1328.92C1157.55 1279.58 1141.38 1236.77 1117.67 1215.36Z"/>
</mask>
<path fill-rule="evenodd" clip-rule="evenodd" d="M1117.67 1215.36C1116.42 1215.15 1115.16 1215.01 1113.89 1214.94C1098.18 1214.08 1082.87 1224.11 1071.03 1243.02C1059.18 1261.94 1051.69 1288.35 1050.04 1316.95L1112.01 1328.91L1050.87 1350.97C1053.91 1379.19 1062.67 1404.27 1075.39 1421.17C1087.63 1437.43 1102.66 1444.97 1117.68 1442.46C1141.38 1421.06 1157.55 1378.24 1157.55 1328.92C1157.55 1279.58 1141.38 1236.77 1117.67 1215.36Z" fill="black"/>
<path d="M1117.67 1215.36L1117.83 1214.38L1118.12 1214.43L1118.34 1214.62L1117.67 1215.36ZM1113.89 1214.94L1113.95 1213.95L1113.89 1214.94ZM1071.03 1243.02L1070.18 1242.49L1071.03 1243.02ZM1050.04 1316.95L1049.85 1317.93L1048.99 1317.76L1049.04 1316.89L1050.04 1316.95ZM1112.01 1328.91L1112.2 1327.93L1115.77 1328.62L1112.35 1329.85L1112.01 1328.91ZM1050.87 1350.97L1049.88 1351.08L1049.79 1350.3L1050.53 1350.03L1050.87 1350.97ZM1075.39 1421.17L1074.59 1421.77L1075.39 1421.17ZM1117.68 1442.46L1118.35 1443.2L1118.13 1443.4L1117.84 1443.45L1117.68 1442.46ZM1117.51 1216.35C1116.29 1216.15 1115.06 1216.01 1113.84 1215.94L1113.95 1213.95C1115.25 1214.02 1116.55 1214.16 1117.83 1214.38L1117.51 1216.35ZM1113.84 1215.94C1098.63 1215.1 1083.61 1224.8 1071.87 1243.55L1070.18 1242.49C1082.12 1223.41 1097.73 1213.05 1113.95 1213.95L1113.84 1215.94ZM1071.87 1243.55C1060.14 1262.29 1052.68 1288.52 1051.04 1317.01L1049.04 1316.89C1050.7 1288.17 1058.23 1261.59 1070.18 1242.49L1071.87 1243.55ZM1050.23 1315.97L1112.2 1327.93L1111.82 1329.9L1049.85 1317.93L1050.23 1315.97ZM1112.35 1329.85L1051.21 1351.91L1050.53 1350.03L1111.67 1327.97L1112.35 1329.85ZM1051.87 1350.87C1054.89 1378.96 1063.61 1403.85 1076.19 1420.57L1074.59 1421.77C1061.73 1404.68 1052.93 1379.42 1049.88 1351.08L1051.87 1350.87ZM1076.19 1420.57C1088.29 1436.64 1102.98 1443.9 1117.51 1441.48L1117.84 1443.45C1102.33 1446.04 1086.96 1438.21 1074.59 1421.77L1076.19 1420.57ZM1117.01 1441.72C1140.43 1420.57 1156.55 1378.08 1156.55 1328.92H1158.55C1158.55 1378.41 1142.33 1421.54 1118.35 1443.2L1117.01 1441.72ZM1156.55 1328.92C1156.55 1279.75 1140.42 1237.25 1117 1216.11L1118.34 1214.62C1142.33 1236.28 1158.55 1279.42 1158.55 1328.92H1156.55Z" fill="black" mask="url(#path-7-inside-3_351_2046)"/>
<ellipse cx="978.99" cy="1486.01" rx="61.1187" ry="26.5863" fill="#F7C1B8"/>
<ellipse cx="1398.43" cy="1486.01" rx="61.1187" ry="26.5863" fill="#F7C1B8"/>
<ellipse cx="1211.48" cy="1528.31" rx="39.5474" ry="85.8014" fill="#E44E30"/>
<path d="M722.882 1261.18C722.882 1267.78 717.571 1273.13 711.029 1273.13C704.487 1273.13 699.176 1267.78 699.176 1261.18C699.176 1254.57 704.487 1249.22 711.029 1249.22C717.571 1249.22 722.882 1254.57 722.882 1261.18Z" fill="white" stroke="#FFBD2E"/>
<mask id="path-13-inside-4_351_2046" fill="white">
<path fill-rule="evenodd" clip-rule="evenodd" d="M970.593 1128.65C968.453 1127.23 965.775 1126.75 963.146 1127.32L963.154 1127.37C915.773 1126.18 870.239 1133.6 829.604 1149.13C788.897 1164.7 754.051 1188.05 727.409 1217.62L727.553 1217.71C726.319 1220.47 726.083 1223.63 726.903 1226.57C727.772 1229.68 729.757 1232.3 732.419 1233.84C735.082 1235.38 738.206 1235.72 741.102 1234.79C743.579 1233.99 745.717 1232.31 747.18 1230.05C771.907 1202.87 804.12 1181.38 841.694 1167.01C879.557 1152.53 921.986 1145.62 966.135 1146.74L966.139 1146.77C966.174 1146.76 966.209 1146.75 966.244 1146.75C966.267 1146.75 966.29 1146.75 966.313 1146.75L966.31 1146.73C968.87 1146.13 971.165 1144.58 972.709 1142.4C974.287 1140.17 974.951 1137.47 974.554 1134.89C974.157 1132.31 972.732 1130.07 970.593 1128.65Z"/>
</mask>
<path fill-rule="evenodd" clip-rule="evenodd" d="M970.593 1128.65C968.453 1127.23 965.775 1126.75 963.146 1127.32L963.154 1127.37C915.773 1126.18 870.239 1133.6 829.604 1149.13C788.897 1164.7 754.051 1188.05 727.409 1217.62L727.553 1217.71C726.319 1220.47 726.083 1223.63 726.903 1226.57C727.772 1229.68 729.757 1232.3 732.419 1233.84C735.082 1235.38 738.206 1235.72 741.102 1234.79C743.579 1233.99 745.717 1232.31 747.18 1230.05C771.907 1202.87 804.12 1181.38 841.694 1167.01C879.557 1152.53 921.986 1145.62 966.135 1146.74L966.139 1146.77C966.174 1146.76 966.209 1146.75 966.244 1146.75C966.267 1146.75 966.29 1146.75 966.313 1146.75L966.31 1146.73C968.87 1146.13 971.165 1144.58 972.709 1142.4C974.287 1140.17 974.951 1137.47 974.554 1134.89C974.157 1132.31 972.732 1130.07 970.593 1128.65Z" fill="white"/>
<path d="M963.146 1127.32L962.934 1126.35L962.014 1126.55L962.158 1127.48L963.146 1127.32ZM970.593 1128.65L970.04 1129.48V1129.48L970.593 1128.65ZM963.154 1127.37L963.128 1128.37L964.324 1128.4L964.142 1127.22L963.154 1127.37ZM829.604 1149.13L829.247 1148.2L829.604 1149.13ZM727.409 1217.62L726.666 1216.95L725.904 1217.79L726.841 1218.44L727.409 1217.62ZM727.553 1217.71L728.465 1218.12L728.806 1217.36L728.121 1216.89L727.553 1217.71ZM726.903 1226.57L727.866 1226.3L726.903 1226.57ZM732.419 1233.84L732.921 1232.97H732.921L732.419 1233.84ZM741.102 1234.79L741.409 1235.74H741.409L741.102 1234.79ZM747.18 1230.05L746.441 1229.38L746.386 1229.44L746.341 1229.51L747.18 1230.05ZM841.694 1167.01L842.051 1167.94L841.694 1167.01ZM966.135 1146.74L967.123 1146.59L966.996 1145.76L966.161 1145.74L966.135 1146.74ZM966.139 1146.77L965.151 1146.92L965.313 1147.97L966.352 1147.75L966.139 1146.77ZM966.244 1146.75L966.27 1145.75L966.144 1145.74L966.022 1145.77L966.244 1146.75ZM966.313 1146.75L966.287 1147.75L967.479 1147.78L967.301 1146.6L966.313 1146.75ZM966.31 1146.73L966.081 1145.76L965.184 1145.97L965.321 1146.88L966.31 1146.73ZM972.709 1142.4L973.525 1142.98V1142.98L972.709 1142.4ZM974.554 1134.89L975.542 1134.74V1134.74L974.554 1134.89ZM963.358 1128.3C965.737 1127.78 968.137 1128.22 970.04 1129.48L971.145 1127.82C968.769 1126.24 965.812 1125.72 962.934 1126.35L963.358 1128.3ZM964.142 1127.22L964.134 1127.17L962.158 1127.48L962.165 1127.53L964.142 1127.22ZM829.961 1150.07C870.464 1134.58 915.867 1127.18 963.128 1128.37L963.179 1126.37C915.68 1125.18 870.014 1132.61 829.247 1148.2L829.961 1150.07ZM728.152 1218.28C754.678 1188.85 789.388 1165.58 829.961 1150.07L829.247 1148.2C788.407 1163.82 753.423 1187.25 726.666 1216.95L728.152 1218.28ZM728.121 1216.89L727.977 1216.79L726.841 1218.44L726.985 1218.54L728.121 1216.89ZM727.866 1226.3C727.108 1223.58 727.328 1220.66 728.465 1218.12L726.64 1217.31C725.31 1220.27 725.057 1223.67 725.94 1226.83L727.866 1226.3ZM732.921 1232.97C730.496 1231.57 728.669 1229.17 727.866 1226.3L725.94 1226.83C726.875 1230.19 729.017 1233.02 731.918 1234.71L732.921 1232.97ZM740.795 1233.84C738.171 1234.68 735.341 1234.38 732.921 1232.97L731.918 1234.71C734.823 1236.39 738.24 1236.76 741.409 1235.74L740.795 1233.84ZM746.341 1229.51C744.996 1231.59 743.041 1233.11 740.795 1233.84L741.409 1235.74C744.117 1234.87 746.437 1233.04 748.02 1230.6L746.341 1229.51ZM841.337 1166.08C803.631 1180.49 771.283 1202.07 746.441 1229.38L747.92 1230.73C772.532 1203.66 804.61 1182.26 842.051 1167.94L841.337 1166.08ZM966.161 1145.74C921.893 1144.62 879.332 1151.55 841.337 1166.08L842.051 1167.94C879.781 1153.52 922.08 1146.62 966.11 1147.74L966.161 1145.74ZM967.128 1146.62L967.123 1146.59L965.147 1146.89L965.151 1146.92L967.128 1146.62ZM966.022 1145.77C965.99 1145.78 965.958 1145.78 965.927 1145.79L966.352 1147.75C966.39 1147.74 966.428 1147.73 966.466 1147.72L966.022 1145.77ZM966.338 1145.75C966.316 1145.75 966.293 1145.75 966.27 1145.75L966.218 1147.74C966.241 1147.75 966.264 1147.75 966.287 1147.75L966.338 1145.75ZM965.321 1146.88L965.324 1146.9L967.301 1146.6L967.299 1146.58L965.321 1146.88ZM971.893 1141.82C970.488 1143.8 968.401 1145.21 966.081 1145.76L966.539 1147.7C969.339 1147.05 971.842 1145.35 973.525 1142.98L971.893 1141.82ZM973.565 1135.04C973.921 1137.35 973.329 1139.79 971.893 1141.82L973.525 1142.98C975.246 1140.55 975.981 1137.59 975.542 1134.74L973.565 1135.04ZM970.04 1129.48C971.94 1130.74 973.211 1132.74 973.565 1135.04L975.542 1134.74C975.103 1131.89 973.524 1129.39 971.145 1127.82L970.04 1129.48Z" fill="#FFBD2E" mask="url(#path-13-inside-4_351_2046)"/>
</svg>
