<svg width="1532" height="1787" viewBox="0 0 1532 1787" fill="none" xmlns="http://www.w3.org/2000/svg">
<mask id="path-1-inside-1_351_2882" fill="white">
<path fill-rule="evenodd" clip-rule="evenodd" d="M722.727 45.6092C722.803 45.6797 722.879 45.7504 722.954 45.8211L722.727 46.1799V744.307V1167.09C808.5 1102.08 926.592 1061.92 1056.96 1061.92C1319.06 1061.92 1531.53 1224.23 1531.53 1424.46C1531.53 1624.68 1319.06 1787 1056.96 1787C794.866 1787 582.394 1624.68 582.394 1424.46C582.394 1421.13 582.453 1417.81 582.57 1414.51L548.041 268.867C546.463 243.689 543.259 225.44 519.411 219.296C500.743 214.487 468.639 211.671 441.092 219.296C438.895 219.905 436.723 220.494 434.57 221.077C409.727 227.813 387.526 233.832 361.431 260.146C347.326 274.369 337.821 289.199 328.434 303.846C308.343 335.193 288.792 365.698 225.848 387.601L183.177 394.137H155.091H129.164L101.347 392.503L82.9847 389.506L63.2681 385.694L49.9368 381.882L36.8016 374.256L0.882812 344.299C12.3558 341.729 26.9257 341.648 43.5712 341.556C100.984 341.237 183.091 340.783 247.996 237.543C249.979 234.896 252.006 232.185 254.075 229.419C295.423 174.127 353.363 96.6491 410.148 62.2442C469.775 26.1181 531.826 4.79447 587.88 1.16705C642.368 -2.35898 688.126 14.6429 720.219 43.3186H722.727V45.6092Z"/>
</mask>
<path fill-rule="evenodd" clip-rule="evenodd" d="M722.727 45.6092C722.803 45.6797 722.879 45.7504 722.954 45.8211L722.727 46.1799V744.307V1167.09C808.5 1102.08 926.592 1061.92 1056.96 1061.92C1319.06 1061.92 1531.53 1224.23 1531.53 1424.46C1531.53 1624.68 1319.06 1787 1056.96 1787C794.866 1787 582.394 1624.68 582.394 1424.46C582.394 1421.13 582.453 1417.81 582.57 1414.51L548.041 268.867C546.463 243.689 543.259 225.44 519.411 219.296C500.743 214.487 468.639 211.671 441.092 219.296C438.895 219.905 436.723 220.494 434.57 221.077C409.727 227.813 387.526 233.832 361.431 260.146C347.326 274.369 337.821 289.199 328.434 303.846C308.343 335.193 288.792 365.698 225.848 387.601L183.177 394.137H155.091H129.164L101.347 392.503L82.9847 389.506L63.2681 385.694L49.9368 381.882L36.8016 374.256L0.882812 344.299C12.3558 341.729 26.9257 341.648 43.5712 341.556C100.984 341.237 183.091 340.783 247.996 237.543C249.979 234.896 252.006 232.185 254.075 229.419C295.423 174.127 353.363 96.6491 410.148 62.2442C469.775 26.1181 531.826 4.79447 587.88 1.16705C642.368 -2.35898 688.126 14.6429 720.219 43.3186H722.727V45.6092Z" fill="#FCF69B"/>
<path d="M722.954 45.8211L736.631 31.2285L748.687 42.5283L739.865 56.4997L722.954 45.8211ZM722.727 45.6092L709.082 60.2308L702.727 54.3007V45.6092H722.727ZM722.727 46.1799H702.727V40.3937L705.817 35.5013L722.727 46.1799ZM722.727 1167.09L734.808 1183.03L702.727 1207.34V1167.09H722.727ZM582.57 1414.51L602.561 1413.91L602.58 1414.56L602.557 1415.21L582.57 1414.51ZM548.041 268.867L568.002 267.615L568.022 267.94L568.032 268.264L548.041 268.867ZM519.411 219.296L514.422 238.664L519.411 219.296ZM441.092 219.296L435.756 200.021L435.757 200.021L441.092 219.296ZM434.57 221.077L439.803 240.381L439.803 240.381L434.57 221.077ZM361.431 260.146L375.632 274.229V274.229L361.431 260.146ZM328.434 303.846L345.272 314.638V314.638L328.434 303.846ZM225.848 387.601L232.421 406.49L230.689 407.092L228.876 407.37L225.848 387.601ZM183.177 394.137L186.206 413.906L184.7 414.137H183.177V394.137ZM129.164 394.137V414.137H128.577L127.991 414.102L129.164 394.137ZM101.347 392.503L100.175 412.468L99.1444 412.408L98.126 412.241L101.347 392.503ZM82.9847 389.506L79.7633 409.245L79.4752 409.198L79.1887 409.142L82.9847 389.506ZM63.2681 385.694L59.472 405.331L58.6115 405.164L57.7687 404.923L63.2681 385.694ZM49.9368 381.882L44.4374 401.111L42.0463 400.427L39.8955 399.178L49.9368 381.882ZM36.8016 374.256L26.7604 391.553L25.2939 390.702L23.9918 389.615L36.8016 374.256ZM0.882812 344.299L-11.927 359.659L-43.101 333.659L-3.49036 324.783L0.882812 344.299ZM43.5712 341.556L43.682 361.555L43.5712 341.556ZM247.996 237.543L231.064 226.898L231.5 226.205L231.99 225.55L247.996 237.543ZM254.075 229.419L270.092 241.397L270.092 241.397L254.075 229.419ZM410.148 62.2442L420.512 79.3496L410.148 62.2442ZM587.88 1.16705L586.589 -18.7912L587.88 1.16705ZM720.219 43.3186V63.3186H712.586L706.894 58.2327L720.219 43.3186ZM722.727 43.3186V23.3186H742.727V43.3186H722.727ZM709.277 60.4137C709.21 60.3507 709.145 60.29 709.082 60.2308L736.373 30.9876C736.461 31.0695 736.547 31.15 736.631 31.2285L709.277 60.4137ZM705.817 35.5013L706.043 35.1425L739.865 56.4997L739.638 56.8585L705.817 35.5013ZM702.727 744.307V46.1799H742.727V744.307H702.727ZM702.727 1167.09V744.307H742.727V1167.09H702.727ZM1056.96 1081.92C930.57 1081.92 816.81 1120.87 734.808 1183.03L710.647 1151.15C800.19 1083.28 922.615 1041.92 1056.96 1041.92V1081.92ZM1511.53 1424.46C1511.53 1331.89 1462.47 1246.7 1380.39 1184C1298.3 1121.28 1184.02 1081.92 1056.96 1081.92V1041.92C1192.01 1041.92 1315.01 1083.71 1404.67 1152.21C1494.36 1220.72 1551.53 1316.8 1551.53 1424.46H1511.53ZM1056.96 1767C1184.02 1767 1298.3 1727.63 1380.39 1664.92C1462.47 1602.22 1511.53 1517.02 1511.53 1424.46H1551.53C1551.53 1532.12 1494.36 1628.19 1404.67 1696.71C1315.01 1765.21 1192.01 1807 1056.96 1807V1767ZM602.394 1424.46C602.394 1517.02 651.458 1602.22 733.534 1664.92C815.627 1727.63 929.91 1767 1056.96 1767V1807C921.918 1807 798.917 1765.21 709.251 1696.71C619.567 1628.19 562.394 1532.12 562.394 1424.46H602.394ZM602.557 1415.21C602.449 1418.29 602.394 1421.37 602.394 1424.46H562.394C562.394 1420.9 562.457 1417.34 562.582 1413.8L602.557 1415.21ZM568.032 268.264L602.561 1413.91L562.579 1415.11L528.05 269.469L568.032 268.264ZM524.401 199.929C541.719 204.39 553.508 214.227 560.182 228.446C565.99 240.82 567.231 255.326 568.002 267.615L528.08 270.118C527.272 257.23 526.123 250.023 523.972 245.442C522.688 242.706 520.952 240.346 514.422 238.664L524.401 199.929ZM435.757 200.021C467.535 191.225 503.323 194.499 524.401 199.929L514.422 238.664C498.164 234.476 469.743 232.118 446.428 238.572L435.757 200.021ZM429.336 201.774C431.497 201.188 433.619 200.613 435.756 200.021L446.428 238.572C444.172 239.196 441.948 239.799 439.803 240.381L429.336 201.774ZM347.229 246.063C377.198 215.843 403.732 208.716 429.336 201.774L439.803 240.381C415.721 246.909 397.854 251.82 375.632 274.229L347.229 246.063ZM311.595 293.054C320.902 278.534 331.436 261.989 347.229 246.063L375.632 274.229C363.216 286.749 354.741 299.865 345.272 314.638L311.595 293.054ZM219.275 368.711C248.495 358.544 266.597 346.775 279.548 334.66C292.746 322.313 301.444 308.893 311.595 293.054L345.272 314.638C335.333 330.146 324.211 347.652 306.874 363.87C289.291 380.32 266.145 394.755 232.421 406.49L219.275 368.711ZM180.149 374.367L222.82 367.831L228.876 407.37L186.206 413.906L180.149 374.367ZM155.091 374.137H183.177V414.137H155.091V374.137ZM129.164 374.137H155.091V414.137H129.164V374.137ZM102.52 372.537L130.337 374.171L127.991 414.102L100.175 412.468L102.52 372.537ZM86.2062 369.767L104.569 372.764L98.126 412.241L79.7633 409.245L86.2062 369.767ZM67.0641 366.058L86.7808 369.869L79.1887 409.142L59.472 405.331L67.0641 366.058ZM55.4362 362.652L68.7675 366.465L57.7687 404.923L44.4374 401.111L55.4362 362.652ZM46.8429 356.96L59.978 364.585L39.8955 399.178L26.7604 391.553L46.8429 356.96ZM13.6926 328.94L49.6115 358.897L23.9918 389.615L-11.927 359.659L13.6926 328.94ZM43.682 361.555C26.2589 361.652 14.1558 361.821 5.25598 363.815L-3.49036 324.783C10.5559 321.636 27.5924 321.644 43.4603 321.556L43.682 361.555ZM264.928 248.188C230.239 303.364 190.031 332.276 149.825 346.935C110.331 361.334 72.1592 361.398 43.682 361.555L43.4603 321.556C72.3958 321.396 103.984 321.072 136.123 309.355C167.549 297.897 200.847 274.961 231.064 226.898L264.928 248.188ZM270.092 241.397C268.024 244.162 265.991 246.88 264.001 249.535L231.99 225.55C233.967 222.912 235.989 220.209 238.058 217.441L270.092 241.397ZM420.512 79.3496C394.786 94.9367 367.723 121.048 341.376 151.167C315.208 181.081 290.83 213.665 270.092 241.397L238.058 217.442C258.668 189.881 283.934 156.08 311.269 124.831C338.426 93.787 368.726 63.9566 399.785 45.1388L420.512 79.3496ZM589.172 21.1253C537.009 24.5009 478.039 44.4954 420.512 79.3496L399.785 45.1388C461.51 7.74087 526.643 -14.9119 586.589 -18.7912L589.172 21.1253ZM706.894 58.2327C679.046 33.3507 638.648 17.9236 589.172 21.1253L586.589 -18.7912C646.088 -22.6416 697.205 -4.06498 733.545 28.4046L706.894 58.2327ZM722.727 63.3186H720.219V23.3186H722.727V63.3186ZM702.727 45.6092V43.3186H742.727V45.6092H702.727Z" fill="#ECE472" mask="url(#path-1-inside-1_351_2882)"/>
<path d="M1222.62 1329.12C1222.62 1363.05 1230.61 1393.28 1243.03 1414.68C1255.59 1436.34 1271.46 1447.22 1286.92 1447.22C1302.37 1447.22 1318.24 1436.34 1330.81 1414.68C1343.22 1393.28 1351.22 1363.05 1351.22 1329.12C1351.22 1295.19 1343.22 1264.96 1330.81 1243.56C1318.24 1221.9 1302.37 1211.02 1286.92 1211.02C1271.46 1211.02 1255.59 1221.9 1243.03 1243.56C1230.61 1264.96 1222.62 1295.19 1222.62 1329.12Z" fill="white" stroke="black" stroke-width="20"/>
<mask id="path-4-inside-2_351_2882" fill="white">
<path fill-rule="evenodd" clip-rule="evenodd" d="M1321.35 1215.56C1320.09 1215.35 1318.83 1215.21 1317.57 1215.14C1301.85 1214.28 1286.54 1224.31 1274.7 1243.22C1262.86 1262.14 1255.36 1288.54 1253.71 1317.15L1315.69 1329.11L1254.55 1351.17C1257.59 1379.39 1266.35 1404.46 1279.07 1421.37C1291.3 1437.63 1306.33 1445.17 1321.35 1442.66C1345.05 1421.26 1361.23 1378.44 1361.23 1329.12C1361.23 1279.78 1345.05 1236.96 1321.35 1215.56Z"/>
</mask>
<path fill-rule="evenodd" clip-rule="evenodd" d="M1321.35 1215.56C1320.09 1215.35 1318.83 1215.21 1317.57 1215.14C1301.85 1214.28 1286.54 1224.31 1274.7 1243.22C1262.86 1262.14 1255.36 1288.54 1253.71 1317.15L1315.69 1329.11L1254.55 1351.17C1257.59 1379.39 1266.35 1404.46 1279.07 1421.37C1291.3 1437.63 1306.33 1445.17 1321.35 1442.66C1345.05 1421.26 1361.23 1378.44 1361.23 1329.12C1361.23 1279.78 1345.05 1236.96 1321.35 1215.56Z" fill="black"/>
<path d="M1321.35 1215.56L1321.51 1214.58L1321.8 1214.62L1322.02 1214.82L1321.35 1215.56ZM1317.57 1215.14L1317.62 1214.15L1317.57 1215.14ZM1274.7 1243.22L1273.85 1242.69L1274.7 1243.22ZM1253.71 1317.15L1253.52 1318.13L1252.67 1317.96L1252.72 1317.09L1253.71 1317.15ZM1315.69 1329.11L1315.88 1328.13L1319.45 1328.82L1316.03 1330.05L1315.69 1329.11ZM1254.55 1351.17L1253.55 1351.28L1253.47 1350.5L1254.21 1350.23L1254.55 1351.17ZM1279.07 1421.37L1278.27 1421.97L1279.07 1421.37ZM1321.35 1442.66L1322.02 1443.4L1321.81 1443.6L1321.52 1443.65L1321.35 1442.66ZM1321.18 1216.55C1319.96 1216.35 1318.74 1216.21 1317.51 1216.14L1317.62 1214.15C1318.92 1214.22 1320.22 1214.36 1321.51 1214.58L1321.18 1216.55ZM1317.51 1216.14C1302.31 1215.3 1287.29 1225 1275.55 1243.75L1273.85 1242.69C1285.8 1223.61 1301.4 1213.25 1317.62 1214.15L1317.51 1216.14ZM1275.55 1243.75C1263.82 1262.49 1256.36 1288.72 1254.71 1317.21L1252.72 1317.09C1254.37 1288.37 1261.9 1261.79 1273.85 1242.69L1275.55 1243.75ZM1253.9 1316.17L1315.88 1328.13L1315.5 1330.09L1253.52 1318.13L1253.9 1316.17ZM1316.03 1330.05L1254.89 1352.11L1254.21 1350.23L1315.35 1328.17L1316.03 1330.05ZM1255.54 1351.07C1258.57 1379.16 1267.28 1404.05 1279.86 1420.77L1278.27 1421.97C1265.41 1404.88 1256.61 1379.62 1253.55 1351.28L1255.54 1351.07ZM1279.86 1420.77C1291.96 1436.84 1306.66 1444.1 1321.19 1441.68L1321.52 1443.65C1306.01 1446.24 1290.64 1438.41 1278.27 1421.97L1279.86 1420.77ZM1320.68 1441.92C1344.1 1420.77 1360.23 1378.28 1360.23 1329.12H1362.23C1362.23 1378.61 1346.01 1421.74 1322.02 1443.4L1320.68 1441.92ZM1360.23 1329.12C1360.23 1279.95 1344.1 1237.45 1320.68 1216.31L1322.02 1214.82C1346.01 1236.48 1362.23 1279.62 1362.23 1329.12H1360.23Z" fill="black" mask="url(#path-4-inside-2_351_2882)"/>
<path d="M1018.89 1329.12C1018.89 1363.05 1026.89 1393.28 1039.3 1414.68C1051.86 1436.34 1067.74 1447.22 1083.19 1447.22C1098.65 1447.22 1114.52 1436.34 1127.08 1414.68C1139.49 1393.28 1147.49 1363.05 1147.49 1329.12C1147.49 1295.19 1139.49 1264.96 1127.08 1243.56C1114.52 1221.9 1098.65 1211.02 1083.19 1211.02C1067.74 1211.02 1051.86 1221.9 1039.3 1243.56C1026.89 1264.96 1018.89 1295.19 1018.89 1329.12Z" fill="white" stroke="black" stroke-width="20"/>
<mask id="path-7-inside-3_351_2882" fill="white">
<path fill-rule="evenodd" clip-rule="evenodd" d="M1117.62 1215.56C1116.37 1215.35 1115.11 1215.21 1113.84 1215.14C1098.13 1214.28 1082.82 1224.31 1070.98 1243.22C1059.13 1262.14 1051.64 1288.54 1049.99 1317.15L1111.96 1329.11L1050.82 1351.17C1053.86 1379.39 1062.62 1404.46 1075.34 1421.37C1087.57 1437.63 1102.61 1445.17 1117.63 1442.66C1141.33 1421.26 1157.5 1378.44 1157.5 1329.12C1157.5 1279.78 1141.32 1236.96 1117.62 1215.56Z"/>
</mask>
<path fill-rule="evenodd" clip-rule="evenodd" d="M1117.62 1215.56C1116.37 1215.35 1115.11 1215.21 1113.84 1215.14C1098.13 1214.28 1082.82 1224.31 1070.98 1243.22C1059.13 1262.14 1051.64 1288.54 1049.99 1317.15L1111.96 1329.11L1050.82 1351.17C1053.86 1379.39 1062.62 1404.46 1075.34 1421.37C1087.57 1437.63 1102.61 1445.17 1117.63 1442.66C1141.33 1421.26 1157.5 1378.44 1157.5 1329.12C1157.5 1279.78 1141.32 1236.96 1117.62 1215.56Z" fill="black"/>
<path d="M1117.62 1215.56L1117.78 1214.58L1118.07 1214.62L1118.29 1214.82L1117.62 1215.56ZM1113.84 1215.14L1113.9 1214.15L1113.84 1215.14ZM1070.98 1243.22L1070.13 1242.69L1070.98 1243.22ZM1049.99 1317.15L1049.8 1318.13L1048.94 1317.96L1048.99 1317.09L1049.99 1317.15ZM1111.96 1329.11L1112.15 1328.13L1115.72 1328.82L1112.3 1330.05L1111.96 1329.11ZM1050.82 1351.17L1049.83 1351.28L1049.74 1350.5L1050.48 1350.23L1050.82 1351.17ZM1075.34 1421.37L1074.54 1421.97L1075.34 1421.37ZM1117.63 1442.66L1118.3 1443.4L1118.08 1443.6L1117.79 1443.65L1117.63 1442.66ZM1117.46 1216.55C1116.24 1216.35 1115.01 1216.21 1113.79 1216.14L1113.9 1214.15C1115.2 1214.22 1116.49 1214.36 1117.78 1214.58L1117.46 1216.55ZM1113.79 1216.14C1098.58 1215.3 1083.56 1225 1071.82 1243.75L1070.13 1242.69C1082.07 1223.61 1097.68 1213.25 1113.9 1214.15L1113.79 1216.14ZM1071.82 1243.75C1060.09 1262.49 1052.63 1288.72 1050.99 1317.21L1048.99 1317.09C1050.65 1288.37 1058.18 1261.79 1070.13 1242.69L1071.82 1243.75ZM1050.18 1316.17L1112.15 1328.13L1111.77 1330.09L1049.8 1318.13L1050.18 1316.17ZM1112.3 1330.05L1051.16 1352.11L1050.48 1350.23L1111.62 1328.17L1112.3 1330.05ZM1051.82 1351.07C1054.84 1379.16 1063.56 1404.05 1076.14 1420.77L1074.54 1421.97C1061.68 1404.88 1052.88 1379.62 1049.83 1351.28L1051.82 1351.07ZM1076.14 1420.77C1088.24 1436.84 1102.93 1444.1 1117.46 1441.68L1117.79 1443.65C1102.28 1446.24 1086.91 1438.41 1074.54 1421.97L1076.14 1420.77ZM1116.96 1441.92C1140.37 1420.77 1156.5 1378.28 1156.5 1329.12H1158.5C1158.5 1378.61 1142.28 1421.74 1118.3 1443.4L1116.96 1441.92ZM1156.5 1329.12C1156.5 1279.95 1140.37 1237.45 1116.95 1216.31L1118.29 1214.82C1142.28 1236.48 1158.5 1279.62 1158.5 1329.12H1156.5Z" fill="black" mask="url(#path-7-inside-3_351_2882)"/>
<ellipse cx="978.931" cy="1486.22" rx="61.1187" ry="26.5863" fill="#F7C1B8"/>
<ellipse cx="1398.37" cy="1486.22" rx="61.1187" ry="26.5863" fill="#F7C1B8"/>
<ellipse cx="1211.41" cy="1528.51" rx="39.5474" ry="85.8014" fill="#E44E30"/>
<path d="M722.823 1261.38C722.823 1267.98 717.513 1273.33 710.97 1273.33C704.428 1273.33 699.117 1267.98 699.117 1261.38C699.117 1254.77 704.428 1249.42 710.97 1249.42C717.513 1249.42 722.823 1254.77 722.823 1261.38Z" fill="white" stroke="#FFBD2E"/>
<mask id="path-13-inside-4_351_2882" fill="white">
<path fill-rule="evenodd" clip-rule="evenodd" d="M970.53 1128.85C968.391 1127.43 965.712 1126.95 963.083 1127.52L963.091 1127.57C915.711 1126.38 870.177 1133.8 829.541 1149.34C788.835 1164.9 753.988 1188.25 727.346 1217.82L727.49 1217.92C726.256 1220.67 726.02 1223.83 726.841 1226.77C727.71 1229.88 729.694 1232.5 732.357 1234.04C735.02 1235.58 738.143 1235.92 741.04 1234.99C743.517 1234.19 745.654 1232.51 747.118 1230.25C771.845 1203.07 804.058 1181.58 841.632 1167.21C879.494 1152.73 921.924 1145.82 966.073 1146.94L966.077 1146.97C966.112 1146.96 966.147 1146.95 966.182 1146.95C966.204 1146.95 966.227 1146.95 966.25 1146.95L966.248 1146.93C968.808 1146.33 971.103 1144.78 972.647 1142.6C974.225 1140.37 974.888 1137.67 974.491 1135.09C974.094 1132.51 972.669 1130.27 970.53 1128.85Z"/>
</mask>
<path fill-rule="evenodd" clip-rule="evenodd" d="M970.53 1128.85C968.391 1127.43 965.712 1126.95 963.083 1127.52L963.091 1127.57C915.711 1126.38 870.177 1133.8 829.541 1149.34C788.835 1164.9 753.988 1188.25 727.346 1217.82L727.49 1217.92C726.256 1220.67 726.02 1223.83 726.841 1226.77C727.71 1229.88 729.694 1232.5 732.357 1234.04C735.02 1235.58 738.143 1235.92 741.04 1234.99C743.517 1234.19 745.654 1232.51 747.118 1230.25C771.845 1203.07 804.058 1181.58 841.632 1167.21C879.494 1152.73 921.924 1145.82 966.073 1146.94L966.077 1146.97C966.112 1146.96 966.147 1146.95 966.182 1146.95C966.204 1146.95 966.227 1146.95 966.25 1146.95L966.248 1146.93C968.808 1146.33 971.103 1144.78 972.647 1142.6C974.225 1140.37 974.888 1137.67 974.491 1135.09C974.094 1132.51 972.669 1130.27 970.53 1128.85Z" fill="white"/>
<path d="M963.083 1127.52L962.871 1126.55L961.952 1126.75L962.095 1127.68L963.083 1127.52ZM970.53 1128.85L969.977 1129.68V1129.68L970.53 1128.85ZM963.091 1127.57L963.066 1128.57L964.261 1128.6L964.079 1127.42L963.091 1127.57ZM829.541 1149.34L829.184 1148.4L829.541 1149.34ZM727.346 1217.82L726.604 1217.15L725.841 1217.99L726.779 1218.64L727.346 1217.82ZM727.49 1217.92L728.403 1218.32L728.743 1217.57L728.058 1217.09L727.49 1217.92ZM726.841 1226.77L727.804 1226.5L726.841 1226.77ZM732.357 1234.04L732.858 1233.18H732.858L732.357 1234.04ZM741.04 1234.99L741.347 1235.94H741.347L741.04 1234.99ZM747.118 1230.25L746.378 1229.58L746.323 1229.64L746.279 1229.71L747.118 1230.25ZM841.632 1167.21L841.989 1168.14L841.632 1167.21ZM966.073 1146.94L967.061 1146.79L966.934 1145.97L966.098 1145.94L966.073 1146.94ZM966.077 1146.97L965.088 1147.12L965.25 1148.17L966.289 1147.95L966.077 1146.97ZM966.182 1146.95L966.207 1145.95L966.082 1145.94L965.959 1145.97L966.182 1146.95ZM966.25 1146.95L966.224 1147.95L967.416 1147.98L967.239 1146.8L966.25 1146.95ZM966.248 1146.93L966.019 1145.96L965.121 1146.17L965.259 1147.08L966.248 1146.93ZM972.647 1142.6L973.463 1143.18V1143.18L972.647 1142.6ZM974.491 1135.09L975.48 1134.94V1134.94L974.491 1135.09ZM963.296 1128.5C965.674 1127.99 968.075 1128.42 969.977 1129.68L971.083 1128.02C968.707 1126.44 965.75 1125.92 962.871 1126.55L963.296 1128.5ZM964.079 1127.42L964.072 1127.37L962.095 1127.68L962.103 1127.73L964.079 1127.42ZM829.899 1150.27C870.401 1134.78 915.804 1127.38 963.066 1128.57L963.116 1126.57C915.617 1125.38 869.952 1132.81 829.184 1148.4L829.899 1150.27ZM728.089 1218.49C754.615 1189.05 789.325 1165.78 829.899 1150.27L829.184 1148.4C788.344 1164.02 753.361 1187.45 726.604 1217.15L728.089 1218.49ZM728.058 1217.09L727.914 1216.99L726.779 1218.64L726.922 1218.74L728.058 1217.09ZM727.804 1226.5C727.046 1223.78 727.265 1220.86 728.403 1218.32L726.578 1217.51C725.248 1220.47 724.995 1223.87 725.877 1227.04L727.804 1226.5ZM732.858 1233.18C730.434 1231.77 728.607 1229.38 727.804 1226.5L725.877 1227.04C726.813 1230.39 728.954 1233.23 731.856 1234.91L732.858 1233.18ZM740.733 1234.04C738.109 1234.88 735.279 1234.58 732.858 1233.18L731.856 1234.91C734.761 1236.59 738.177 1236.96 741.347 1235.94L740.733 1234.04ZM746.279 1229.71C744.933 1231.79 742.979 1233.31 740.733 1234.04L741.347 1235.94C744.054 1235.07 746.375 1233.24 747.957 1230.8L746.279 1229.71ZM841.274 1166.28C803.568 1180.69 771.22 1202.27 746.378 1229.58L747.858 1230.93C772.47 1203.87 804.547 1182.46 841.989 1168.14L841.274 1166.28ZM966.098 1145.94C921.83 1144.82 879.27 1151.75 841.274 1166.28L841.989 1168.14C879.719 1153.72 922.017 1146.83 966.047 1147.94L966.098 1145.94ZM967.065 1146.82L967.061 1146.79L965.084 1147.1L965.088 1147.12L967.065 1146.82ZM965.959 1145.97C965.928 1145.98 965.896 1145.99 965.864 1145.99L966.289 1147.95C966.327 1147.94 966.366 1147.93 966.404 1147.92L965.959 1145.97ZM966.276 1145.95C966.253 1145.95 966.23 1145.95 966.207 1145.95L966.156 1147.95C966.179 1147.95 966.201 1147.95 966.224 1147.95L966.276 1145.95ZM965.259 1147.08L965.261 1147.1L967.239 1146.8L967.236 1146.78L965.259 1147.08ZM971.831 1142.02C970.426 1144 968.338 1145.41 966.019 1145.96L966.476 1147.9C969.277 1147.25 971.78 1145.55 973.463 1143.18L971.831 1142.02ZM973.503 1135.25C973.858 1137.55 973.266 1139.99 971.831 1142.02L973.463 1143.18C975.183 1140.75 975.918 1137.79 975.48 1134.94L973.503 1135.25ZM969.977 1129.68C971.878 1130.94 973.148 1132.94 973.503 1135.25L975.48 1134.94C975.041 1132.09 973.461 1129.59 971.083 1128.02L969.977 1129.68Z" fill="#FFBD2E" mask="url(#path-13-inside-4_351_2882)"/>
</svg>
