<svg width="614" height="596" viewBox="0 0 614 596" fill="none" xmlns="http://www.w3.org/2000/svg">
<path fill-rule="evenodd" clip-rule="evenodd" d="M307 522C476.551 522 614 405.146 614 261C614 116.854 476.551 0 307 0C137.449 0 0 116.854 0 261C0 367.253 74.6818 458.677 181.853 499.401L182.5 500.5L186.5 510.5L189.5 520L192 529L193 534V539V544L192.5 551L191 558.5L188.5 568L186 578L184.254 583.5L182.5 589L182.071 592L183 594.5L184.5 595.5H186.754H191.754L195 595L198.5 594L209.5 587.5L220 579.5L231 571.5L239.5 563.5L248 555L255 545.5L263 535.5L269 525L271.817 520.305C283.362 521.425 295.102 522 307 522Z" fill="white"/>
</svg>
